<?xml version="1.0" encoding="UTF-8" standalone="no"?>
<!-- Created with Inkscape (http://www.inkscape.org/) -->

<svg
   xmlns:dc="http://purl.org/dc/elements/1.1/"
   xmlns:cc="http://creativecommons.org/ns#"
   xmlns:rdf="http://www.w3.org/1999/02/22-rdf-syntax-ns#"
   xmlns:svg="http://www.w3.org/2000/svg"
   xmlns="http://www.w3.org/2000/svg"
   xmlns:xlink="http://www.w3.org/1999/xlink"
   xmlns:sodipodi="http://sodipodi.sourceforge.net/DTD/sodipodi-0.dtd"
   xmlns:inkscape="http://www.inkscape.org/namespaces/inkscape"
   width="1832.6852"
   height="365.46716"
   id="svg2"
   version="1.1"
   inkscape:version="0.91 r"
   sodipodi:docname="founderCellsSetting.svg">
  <sodipodi:namedview
     id="base"
     pagecolor="#ffffff"
     bordercolor="#666666"
     borderopacity="1.0"
     inkscape:pageopacity="0.0"
     inkscape:pageshadow="2"
     inkscape:zoom="0.35"
     inkscape:cx="1232.392"
     inkscape:cy="278.8481"
     inkscape:document-units="px"
     inkscape:current-layer="layer1"
     showgrid="false"
     inkscape:window-width="1920"
     inkscape:window-height="1025"
     inkscape:window-x="-3"
     inkscape:window-y="-3"
     inkscape:window-maximized="1"
     fit-margin-top="0"
     fit-margin-left="0"
     fit-margin-right="0"
     fit-margin-bottom="0"
     showguides="true"
     inkscape:guide-bbox="true" />
  <defs
     id="defs4">
    <marker
       style="overflow:visible"
       id="Arrow2Mend"
       refX="0"
       refY="0"
       orient="auto"
       inkscape:stockid="Arrow2Mend">
      <path
         inkscape:connector-curvature="0"
         transform="scale(-0.6,-0.6)"
         d="M 8.7185878,4.0337352 -2.2072895,0.01601326 8.7185884,-4.0017078 c -1.7454984,2.3720609 -1.7354408,5.6174519 -6e-7,8.035443 z"
         style="fill-rule:evenodd;stroke-width:0.625;stroke-linejoin:round"
         id="path6872" />
    </marker>
    <linearGradient
       id="linearGradient3987">
      <stop
         style="stop-color:#feb24c;stop-opacity:1;"
         offset="0"
         id="stop3989" />
      <stop
         id="stop4001"
         offset="0.19797821"
         style="stop-color:#fd8d3c;stop-opacity:1;" />
      <stop
         id="stop3999"
         offset="0.40096852"
         style="stop-color:#fc4e2a;stop-opacity:1;" />
      <stop
         id="stop3997"
         offset="0.6033867"
         style="stop-color:#e31a1c;stop-opacity:1;" />
      <stop
         id="stop3995"
         offset="0.79843748"
         style="stop-color:#bd0026;stop-opacity:1;" />
      <stop
         style="stop-color:#800026;stop-opacity:1;"
         offset="1"
         id="stop3991" />
    </linearGradient>
    <linearGradient
       inkscape:collect="always"
       xlink:href="#linearGradient3987"
       id="linearGradient4469"
       gradientUnits="userSpaceOnUse"
       gradientTransform="matrix(0.79142012,0,0,0.59360755,-24.291916,151.99564)"
       x1="1337.1428"
       y1="2064.8562"
       x2="1820"
       y2="2064.8562" />
    <clipPath
       clipPathUnits="userSpaceOnUse"
       id="clipPath28526">
      <rect
         style="fill:#ff0000;fill-opacity:1;fill-rule:nonzero;stroke:#fc4e2a;stroke-width:5;stroke-linecap:round;stroke-linejoin:round;stroke-miterlimit:4;stroke-dasharray:none;stroke-dashoffset:0;stroke-opacity:1"
         id="rect28528"
         width="85.714287"
         height="134.64285"
         x="770.70294"
         y="-1097.2858" />
    </clipPath>
  </defs>
  <metadata
     id="metadata7">
    <rdf:RDF>
      <cc:Work
         rdf:about="">
        <dc:format>image/svg+xml</dc:format>
        <dc:type
           rdf:resource="http://purl.org/dc/dcmitype/StillImage" />
        <dc:title></dc:title>
      </cc:Work>
    </rdf:RDF>
  </metadata>
  <g
     inkscape:label="Layer 1"
     inkscape:groupmode="layer"
     id="layer1"
     transform="translate(1211.4717,1420.361)">
    <text
       xml:space="preserve"
       style="font-style:normal;font-variant:normal;font-weight:normal;font-stretch:normal;font-size:100px;line-height:125%;font-family:Arial;-inkscape-font-specification:Arial;letter-spacing:0px;word-spacing:0px;fill:#000000;fill-opacity:1;stroke:none"
       x="440.42651"
       y="392.06302"
       id="text3226"
       sodipodi:linespacing="125%"
       transform="translate(-826.85089,-904.09375)"><tspan
         sodipodi:role="line"
         id="tspan3228"
         x="440.42651"
         y="392.06302" /></text>
    <g
       id="g4345">
      <rect
         style="fill:none;stroke:#000000;stroke-width:5;stroke-linecap:round;stroke-linejoin:round;stroke-miterlimit:4;stroke-dasharray:none;stroke-dashoffset:0;stroke-opacity:1"
         id="rect8084"
         width="887.68518"
         height="151.89577"
         x="-1208.9717"
         y="-1417.861" />
      <path
         style="fill:none;stroke:#000000;stroke-width:5;stroke-linecap:butt;stroke-linejoin:miter;stroke-miterlimit:4;stroke-dasharray:none;stroke-opacity:1"
         d="m -765.12909,-1418.1424 0,151.4286"
         id="path8094"
         inkscape:connector-curvature="0" />
      <g
         id="g9113"
         transform="translate(-1320.9804,-2625.1127)">
        <g
           word-spacing="normal"
           letter-spacing="normal"
           font-size-adjust="none"
           font-stretch="normal"
           font-weight="normal"
           font-variant="normal"
           font-style="normal"
           stroke-miterlimit="10.433"
           xml:space="preserve"
           transform="matrix(1.0596867,0,0,-1.0596867,-185.44517,1726.8428)"
           id="g9115"
           style="font-style:normal;font-variant:normal;font-weight:normal;font-stretch:normal;letter-spacing:normal;word-spacing:normal;text-anchor:start;fill:none;stroke:#000000;stroke-linecap:butt;stroke-linejoin:miter;stroke-miterlimit:10.43299961;stroke-dasharray:none;stroke-dashoffset:0;stroke-opacity:1"><path
             id="path9117"
             d="m 467.19,438.55 0,0.05 0,0.04 0,0.04 0,0.04 0,0.04 0,0.04 0,0.04 0,0.03 -0.01,0.03 0,0.04 0,0.03 0,0.03 0,0.03 -0.01,0.03 0,0.02 0,0.03 -0.01,0.03 0,0.02 -0.01,0.02 0,0.03 -0.02,0.04 -0.01,0.04 -0.02,0.03 -0.02,0.03 -0.02,0.03 -0.02,0.02 -0.03,0.03 -0.03,0.02 -0.03,0.01 -0.04,0.02 -0.04,0.01 -0.05,0.01 -0.02,0.01 -0.02,0 -0.03,0.01 -0.03,0 -0.02,0 -0.03,0.01 -0.03,0 -0.03,0 -0.03,0 -0.04,0 -0.03,0 -0.04,0.01 -0.03,0 -0.04,0 -0.04,0 -0.04,0 -0.04,0 -0.05,0 -0.04,0 -0.05,0 c -2.23,-2.2 -5.39,-2.24 -6.82,-2.24 l 0,-1.25 c 0.84,0 3.14,0 5.04,0.97 l 0,-17.76 c 0,-1.16 0,-1.61 -3.48,-1.61 l -1.31,0 0,-1.25 c 0.62,0.03 4.9,0.14 6.2,0.14 1.08,0 5.47,-0.11 6.23,-0.14 l 0,1.25 -1.32,0 c -3.49,0 -3.49,0.45 -3.49,1.61 z"
             inkscape:connector-curvature="0"
             style="fill:#000000;stroke-width:0" /><path
             id="path9119"
             d="m 491.8,441.67 0.01,0.03 0.01,0.03 0.01,0.03 0.01,0.03 0.01,0.02 0.01,0.03 0.01,0.03 0.01,0.02 0.02,0.05 0.01,0.05 0.02,0.04 0.01,0.05 0.01,0.04 0.02,0.04 0.01,0.03 0.01,0.04 0,0.03 0.01,0.03 0.01,0.03 0.01,0.02 0,0.03 0.01,0.02 0,0.02 0,0.02 0.01,0.02 0,0.02 0,0.01 0,0.02 0,0.01 0.01,0.01 0,0.01 0,0.01 0,0.01 0,0.01 0,0.01 0,0 c 0,0.55 -0.46,0.99 -1,0.99 -0.35,0 -0.71,-0.14 -0.85,-0.44 l -17.29,-47.48 c -0.25,-0.64 -0.25,-0.85 -0.25,-0.89 0,-0.55 0.45,-1 1,-1 0.65,0 0.79,0.34 1.09,1.18 z"
             inkscape:connector-curvature="0"
             style="fill:#000000;stroke-width:0" /><path
             id="path9121"
             d="m 509.71,412.54 -1.19,0 c -0.09,-0.76 -0.45,-2.83 -0.9,-3.17 -0.27,-0.2 -2.96,-0.2 -3.44,-0.2 l -6.42,0 c 3.65,3.23 4.87,4.2 6.97,5.84 2.57,2.06 4.98,4.22 4.98,7.53 0,4.22 -3.69,6.8 -8.16,6.8 -4.31,0 -7.25,-3.03 -7.25,-6.23 0,-1.79 1.5,-1.96 1.86,-1.96 0.83,0 1.85,0.6 1.85,1.85 0,0.62 -0.25,1.84 -2.06,1.84 1.07,2.47 3.45,3.23 5.09,3.23 3.48,0 5.3,-2.7 5.3,-5.53 0,-3.03 -2.16,-5.43 -3.29,-6.68 l -8.39,-8.3 c -0.36,-0.31 -0.36,-0.39 -0.36,-1.36 l 14.36,0 z"
             inkscape:connector-curvature="0"
             style="fill:#000000;stroke-width:0" /></g>      </g>
      <g
         transform="translate(-866.9804,-2625.1127)"
         id="g9123">
        <g
           style="font-style:normal;font-variant:normal;font-weight:normal;font-stretch:normal;letter-spacing:normal;word-spacing:normal;text-anchor:start;fill:none;stroke:#000000;stroke-linecap:butt;stroke-linejoin:miter;stroke-miterlimit:10.43299961;stroke-dasharray:none;stroke-dashoffset:0;stroke-opacity:1"
           id="g9125"
           transform="matrix(1.0596867,0,0,-1.0596867,-185.44517,1726.8428)"
           xml:space="preserve"
           stroke-miterlimit="10.433"
           font-style="normal"
           font-variant="normal"
           font-weight="normal"
           font-stretch="normal"
           font-size-adjust="none"
           letter-spacing="normal"
           word-spacing="normal"><path
             style="fill:#000000;stroke-width:0"
             inkscape:connector-curvature="0"
             d="m 467.19,438.55 0,0.05 0,0.04 0,0.04 0,0.04 0,0.04 0,0.04 0,0.04 0,0.03 -0.01,0.03 0,0.04 0,0.03 0,0.03 0,0.03 -0.01,0.03 0,0.02 0,0.03 -0.01,0.03 0,0.02 -0.01,0.02 0,0.03 -0.02,0.04 -0.01,0.04 -0.02,0.03 -0.02,0.03 -0.02,0.03 -0.02,0.02 -0.03,0.03 -0.03,0.02 -0.03,0.01 -0.04,0.02 -0.04,0.01 -0.05,0.01 -0.02,0.01 -0.02,0 -0.03,0.01 -0.03,0 -0.02,0 -0.03,0.01 -0.03,0 -0.03,0 -0.03,0 -0.04,0 -0.03,0 -0.04,0.01 -0.03,0 -0.04,0 -0.04,0 -0.04,0 -0.04,0 -0.05,0 -0.04,0 -0.05,0 c -2.23,-2.2 -5.39,-2.24 -6.82,-2.24 l 0,-1.25 c 0.84,0 3.14,0 5.04,0.97 l 0,-17.76 c 0,-1.16 0,-1.61 -3.48,-1.61 l -1.31,0 0,-1.25 c 0.62,0.03 4.9,0.14 6.2,0.14 1.08,0 5.47,-0.11 6.23,-0.14 l 0,1.25 -1.32,0 c -3.49,0 -3.49,0.45 -3.49,1.61 z"
             id="path9127" /><path
             style="fill:#000000;stroke-width:0"
             inkscape:connector-curvature="0"
             d="m 491.8,441.67 0.01,0.03 0.01,0.03 0.01,0.03 0.01,0.03 0.01,0.02 0.01,0.03 0.01,0.03 0.01,0.02 0.02,0.05 0.01,0.05 0.02,0.04 0.01,0.05 0.01,0.04 0.02,0.04 0.01,0.03 0.01,0.04 0,0.03 0.01,0.03 0.01,0.03 0.01,0.02 0,0.03 0.01,0.02 0,0.02 0,0.02 0.01,0.02 0,0.02 0,0.01 0,0.02 0,0.01 0.01,0.01 0,0.01 0,0.01 0,0.01 0,0.01 0,0.01 0,0 c 0,0.55 -0.46,0.99 -1,0.99 -0.35,0 -0.71,-0.14 -0.85,-0.44 l -17.29,-47.48 c -0.25,-0.64 -0.25,-0.85 -0.25,-0.89 0,-0.55 0.45,-1 1,-1 0.65,0 0.79,0.34 1.09,1.18 z"
             id="path9129" /><path
             style="fill:#000000;stroke-width:0"
             inkscape:connector-curvature="0"
             d="m 509.71,412.54 -1.19,0 c -0.09,-0.76 -0.45,-2.83 -0.9,-3.17 -0.27,-0.2 -2.96,-0.2 -3.44,-0.2 l -6.42,0 c 3.65,3.23 4.87,4.2 6.97,5.84 2.57,2.06 4.98,4.22 4.98,7.53 0,4.22 -3.69,6.8 -8.16,6.8 -4.31,0 -7.25,-3.03 -7.25,-6.23 0,-1.79 1.5,-1.96 1.86,-1.96 0.83,0 1.85,0.6 1.85,1.85 0,0.62 -0.25,1.84 -2.06,1.84 1.07,2.47 3.45,3.23 5.09,3.23 3.48,0 5.3,-2.7 5.3,-5.53 0,-3.03 -2.16,-5.43 -3.29,-6.68 l -8.39,-8.3 c -0.36,-0.31 -0.36,-0.39 -0.36,-1.36 l 14.36,0 z"
             id="path9131" /></g>      </g>
    </g>
    <g
       id="g4465">
      <path
         style="fill:none;stroke:#00ff00;stroke-width:5;stroke-linecap:butt;stroke-linejoin:miter;stroke-miterlimit:4;stroke-dasharray:none;stroke-opacity:1"
         d="m 26.87091,-1418.1424 0,151.4286"
         id="path8098"
         inkscape:connector-curvature="0" />
      <path
         inkscape:connector-curvature="0"
         id="path8100"
         d="m 320.87091,-1418.1424 0,151.4286"
         style="fill:none;stroke:#00ff00;stroke-width:5;stroke-linecap:butt;stroke-linejoin:miter;stroke-miterlimit:4;stroke-dasharray:none;stroke-opacity:1" />
      <rect
         y="-1417.861"
         x="-268.97168"
         height="151.89577"
         width="887.68518"
         id="rect8090"
         style="fill:none;stroke:#000000;stroke-width:5;stroke-linecap:round;stroke-linejoin:round;stroke-miterlimit:4;stroke-dasharray:none;stroke-dashoffset:0;stroke-opacity:1" />
      <path
         inkscape:connector-curvature="0"
         id="path8096"
         d="m 174.87091,-1418.1424 0,151.4286"
         style="fill:none;stroke:#000000;stroke-width:5;stroke-linecap:butt;stroke-linejoin:miter;stroke-miterlimit:4;stroke-dasharray:none;stroke-opacity:1" />
      <g
         transform="translate(141.59678,-2625.1127)"
         id="g8609">
        <g
           style="font-style:normal;font-variant:normal;font-weight:normal;font-stretch:normal;letter-spacing:normal;word-spacing:normal;text-anchor:start;fill:none;stroke:#000000;stroke-linecap:butt;stroke-linejoin:miter;stroke-miterlimit:10.43299961;stroke-dasharray:none;stroke-dashoffset:0;stroke-opacity:1"
           word-spacing="normal"
           letter-spacing="normal"
           font-size-adjust="none"
           font-stretch="normal"
           font-weight="normal"
           font-variant="normal"
           font-style="normal"
           stroke-miterlimit="10.433"
           xml:space="preserve"
           transform="matrix(1.0596867,0,0,-1.0596867,-185.44517,1726.8428)"
           id="g8611"><path
             style="fill:#000000;stroke-width:0"
             inkscape:connector-curvature="0"
             id="path8613"
             d="m 473.11,422.74 -1.18,0 c -0.1,-0.76 -0.46,-2.83 -0.91,-3.17 -0.27,-0.2 -2.95,-0.2 -3.44,-0.2 l -6.42,0 c 3.66,3.23 4.88,4.2 6.97,5.84 2.58,2.06 4.98,4.22 4.98,7.53 0,4.22 -3.68,6.8 -8.15,6.8 -4.32,0 -7.25,-3.03 -7.25,-6.24 0,-1.78 1.5,-1.95 1.86,-1.95 0.82,0 1.84,0.6 1.84,1.85 0,0.62 -0.25,1.84 -2.06,1.84 1.08,2.47 3.45,3.23 5.09,3.23 3.49,0 5.3,-2.7 5.3,-5.53 0,-3.03 -2.16,-5.44 -3.28,-6.69 l -8.39,-8.29 c -0.36,-0.31 -0.36,-0.39 -0.36,-1.36 l 14.36,0 z" /><path
             style="fill:#000000;stroke-width:0"
             inkscape:connector-curvature="0"
             id="path8615"
             d="m 491.8,441.67 0.01,0.03 0.01,0.03 0.01,0.03 0.01,0.03 0.01,0.02 0.01,0.03 0.01,0.03 0.01,0.02 0.02,0.05 0.01,0.05 0.02,0.04 0.01,0.05 0.01,0.04 0.02,0.04 0.01,0.03 0.01,0.04 0,0.03 0.01,0.03 0.01,0.03 0.01,0.02 0,0.03 0.01,0.02 0,0.02 0,0.02 0.01,0.02 0,0.02 0,0.01 0,0.02 0,0.01 0.01,0.01 0,0.01 0,0.01 0,0.01 0,0.01 0,0.01 0,0 c 0,0.55 -0.46,0.99 -1,0.99 -0.35,0 -0.71,-0.14 -0.85,-0.44 l -17.29,-47.48 c -0.25,-0.64 -0.25,-0.85 -0.25,-0.89 0,-0.55 0.45,-1 1,-1 0.65,0 0.79,0.34 1.09,1.18 z" /><path
             style="fill:#000000;stroke-width:0"
             inkscape:connector-curvature="0"
             id="path8617"
             d="m 501.63,417.84 0.26,-0.01 0.24,-0.01 0.25,-0.03 0.23,-0.04 0.24,-0.05 0.22,-0.06 0.22,-0.07 0.22,-0.08 0.21,-0.1 0.2,-0.1 0.2,-0.12 0.19,-0.12 0.18,-0.14 0.17,-0.15 0.17,-0.16 0.16,-0.17 0.15,-0.18 0.14,-0.19 0.14,-0.21 0.12,-0.21 0.12,-0.23 0.11,-0.23 0.1,-0.25 0.09,-0.25 0.08,-0.27 0.07,-0.28 0.06,-0.29 0.05,-0.3 0.03,-0.31 0.03,-0.32 0.02,-0.34 0,-0.34 c 0,-4.33 -2.51,-5.61 -4.53,-5.61 -1.39,0 -4.47,0.38 -5.92,2.44 1.63,0.06 2.02,1.22 2.02,1.95 0,1.11 -0.85,1.91 -1.92,1.91 -0.97,0 -1.96,-0.6 -1.96,-2.02 0,-3.28 3.63,-5.4 7.85,-5.4 4.84,0 8.18,3.25 8.18,6.73 0,2.72 -2.22,5.44 -6.06,6.23 3.66,1.33 4.99,3.94 4.99,6.07 0,2.75 -3.18,4.81 -7.04,4.81 -3.87,0 -6.82,-1.89 -6.82,-4.67 0,-1.19 0.76,-1.85 1.81,-1.85 1.08,0 1.76,0.8 1.76,1.77 0,1.02 -0.68,1.75 -1.76,1.81 1.22,1.55 3.61,1.92 4.9,1.92 1.57,0 3.77,-0.76 3.77,-3.79 0,-1.47 -0.48,-3.07 -1.39,-4.14 -1.16,-1.33 -2.13,-1.41 -3.88,-1.5 -0.87,-0.08 -0.93,-0.08 -1.1,-0.11 -0.08,0 -0.36,-0.07 -0.36,-0.46 0,-0.48 0.31,-0.48 0.9,-0.48 z" /></g>      </g>
      <g
         transform="translate(-221.26036,-2625.1127)"
         id="g8919">
        <g
           style="font-style:normal;font-variant:normal;font-weight:normal;font-stretch:normal;letter-spacing:normal;word-spacing:normal;text-anchor:start;fill:none;stroke:#000000;stroke-linecap:butt;stroke-linejoin:miter;stroke-miterlimit:10.43299961;stroke-dasharray:none;stroke-dashoffset:0;stroke-opacity:1"
           id="g8921"
           transform="matrix(1.0596867,0,0,-1.0596867,-185.44517,1726.8428)"
           xml:space="preserve"
           stroke-miterlimit="10.433"
           font-style="normal"
           font-variant="normal"
           font-weight="normal"
           font-stretch="normal"
           font-size-adjust="none"
           letter-spacing="normal"
           word-spacing="normal"><path
             style="fill:#000000;stroke-width:0"
             inkscape:connector-curvature="0"
             d="m 467.19,438.55 0,0.05 0,0.04 0,0.04 0,0.04 0,0.04 0,0.04 0,0.04 0,0.03 -0.01,0.03 0,0.04 0,0.03 0,0.03 0,0.03 -0.01,0.03 0,0.02 0,0.03 -0.01,0.03 0,0.02 -0.01,0.02 0,0.03 -0.02,0.04 -0.01,0.04 -0.02,0.03 -0.02,0.03 -0.02,0.03 -0.02,0.02 -0.03,0.03 -0.03,0.02 -0.03,0.01 -0.04,0.02 -0.04,0.01 -0.05,0.01 -0.02,0.01 -0.02,0 -0.03,0.01 -0.03,0 -0.02,0 -0.03,0.01 -0.03,0 -0.03,0 -0.03,0 -0.04,0 -0.03,0 -0.04,0.01 -0.03,0 -0.04,0 -0.04,0 -0.04,0 -0.04,0 -0.05,0 -0.04,0 -0.05,0 c -2.23,-2.2 -5.39,-2.24 -6.82,-2.24 l 0,-1.25 c 0.84,0 3.14,0 5.04,0.97 l 0,-17.76 c 0,-1.16 0,-1.61 -3.48,-1.61 l -1.31,0 0,-1.25 c 0.62,0.03 4.9,0.14 6.2,0.14 1.08,0 5.47,-0.11 6.23,-0.14 l 0,1.25 -1.32,0 c -3.49,0 -3.49,0.45 -3.49,1.61 z"
             id="path8923" /><path
             style="fill:#000000;stroke-width:0"
             inkscape:connector-curvature="0"
             d="m 491.8,441.67 0.01,0.03 0.01,0.03 0.01,0.03 0.01,0.03 0.01,0.02 0.01,0.03 0.01,0.03 0.01,0.02 0.02,0.05 0.01,0.05 0.02,0.04 0.01,0.05 0.01,0.04 0.02,0.04 0.01,0.03 0.01,0.04 0,0.03 0.01,0.03 0.01,0.03 0.01,0.02 0,0.03 0.01,0.02 0,0.02 0,0.02 0.01,0.02 0,0.02 0,0.01 0,0.02 0,0.01 0.01,0.01 0,0.01 0,0.01 0,0.01 0,0.01 0,0.01 0,0 c 0,0.55 -0.46,0.99 -1,0.99 -0.35,0 -0.71,-0.14 -0.85,-0.44 l -17.29,-47.48 c -0.25,-0.64 -0.25,-0.85 -0.25,-0.89 0,-0.55 0.45,-1 1,-1 0.65,0 0.79,0.34 1.09,1.18 z"
             id="path8925" /><path
             style="fill:#000000;stroke-width:0"
             inkscape:connector-curvature="0"
             d="m 501.63,417.84 0.26,-0.01 0.24,-0.01 0.25,-0.03 0.23,-0.04 0.24,-0.05 0.22,-0.06 0.22,-0.07 0.22,-0.08 0.21,-0.1 0.2,-0.1 0.2,-0.12 0.19,-0.12 0.18,-0.14 0.17,-0.15 0.17,-0.16 0.16,-0.17 0.15,-0.18 0.14,-0.19 0.14,-0.21 0.12,-0.21 0.12,-0.23 0.11,-0.23 0.1,-0.25 0.09,-0.25 0.08,-0.27 0.07,-0.28 0.06,-0.29 0.05,-0.3 0.03,-0.31 0.03,-0.32 0.02,-0.34 0,-0.34 c 0,-4.33 -2.51,-5.61 -4.53,-5.61 -1.39,0 -4.47,0.38 -5.92,2.44 1.63,0.06 2.02,1.22 2.02,1.95 0,1.11 -0.85,1.91 -1.92,1.91 -0.97,0 -1.96,-0.6 -1.96,-2.02 0,-3.28 3.63,-5.4 7.85,-5.4 4.84,0 8.18,3.25 8.18,6.73 0,2.72 -2.22,5.44 -6.06,6.23 3.66,1.33 4.99,3.94 4.99,6.07 0,2.75 -3.18,4.81 -7.04,4.81 -3.87,0 -6.82,-1.89 -6.82,-4.67 0,-1.19 0.76,-1.85 1.81,-1.85 1.08,0 1.76,0.8 1.76,1.77 0,1.02 -0.68,1.75 -1.76,1.81 1.22,1.55 3.61,1.92 4.9,1.92 1.57,0 3.77,-0.76 3.77,-3.79 0,-1.47 -0.48,-3.07 -1.39,-4.14 -1.16,-1.33 -2.13,-1.41 -3.88,-1.5 -0.87,-0.08 -0.93,-0.08 -1.1,-0.11 -0.08,0 -0.36,-0.07 -0.36,-0.46 0,-0.48 0.31,-0.48 0.9,-0.48 z"
             id="path8927" /></g>      </g>
      <g
         id="g9133"
         transform="translate(-81.26036,-2625.1127)">
        <g
           word-spacing="normal"
           letter-spacing="normal"
           font-size-adjust="none"
           font-stretch="normal"
           font-weight="normal"
           font-variant="normal"
           font-style="normal"
           stroke-miterlimit="10.433"
           xml:space="preserve"
           transform="matrix(1.0596867,0,0,-1.0596867,-185.44517,1726.8428)"
           id="g9135"
           style="font-style:normal;font-variant:normal;font-weight:normal;font-stretch:normal;letter-spacing:normal;word-spacing:normal;text-anchor:start;fill:none;stroke:#000000;stroke-linecap:butt;stroke-linejoin:miter;stroke-miterlimit:10.43299961;stroke-dasharray:none;stroke-dashoffset:0;stroke-opacity:1"><path
             id="path9137"
             d="m 467.19,438.55 0,0.05 0,0.04 0,0.04 0,0.04 0,0.04 0,0.04 0,0.04 0,0.03 -0.01,0.03 0,0.04 0,0.03 0,0.03 0,0.03 -0.01,0.03 0,0.02 0,0.03 -0.01,0.03 0,0.02 -0.01,0.02 0,0.03 -0.02,0.04 -0.01,0.04 -0.02,0.03 -0.02,0.03 -0.02,0.03 -0.02,0.02 -0.03,0.03 -0.03,0.02 -0.03,0.01 -0.04,0.02 -0.04,0.01 -0.05,0.01 -0.02,0.01 -0.02,0 -0.03,0.01 -0.03,0 -0.02,0 -0.03,0.01 -0.03,0 -0.03,0 -0.03,0 -0.04,0 -0.03,0 -0.04,0.01 -0.03,0 -0.04,0 -0.04,0 -0.04,0 -0.04,0 -0.05,0 -0.04,0 -0.05,0 c -2.23,-2.2 -5.39,-2.24 -6.82,-2.24 l 0,-1.25 c 0.84,0 3.14,0 5.04,0.97 l 0,-17.76 c 0,-1.16 0,-1.61 -3.48,-1.61 l -1.31,0 0,-1.25 c 0.62,0.03 4.9,0.14 6.2,0.14 1.08,0 5.47,-0.11 6.23,-0.14 l 0,1.25 -1.32,0 c -3.49,0 -3.49,0.45 -3.49,1.61 z"
             inkscape:connector-curvature="0"
             style="fill:#000000;stroke-width:0" /><path
             id="path9139"
             d="m 491.8,441.67 0.01,0.03 0.01,0.03 0.01,0.03 0.01,0.03 0.01,0.02 0.01,0.03 0.01,0.03 0.01,0.02 0.02,0.05 0.01,0.05 0.02,0.04 0.01,0.05 0.01,0.04 0.02,0.04 0.01,0.03 0.01,0.04 0,0.03 0.01,0.03 0.01,0.03 0.01,0.02 0,0.03 0.01,0.02 0,0.02 0,0.02 0.01,0.02 0,0.02 0,0.01 0,0.02 0,0.01 0.01,0.01 0,0.01 0,0.01 0,0.01 0,0.01 0,0.01 0,0 c 0,0.55 -0.46,0.99 -1,0.99 -0.35,0 -0.71,-0.14 -0.85,-0.44 l -17.29,-47.48 c -0.25,-0.64 -0.25,-0.85 -0.25,-0.89 0,-0.55 0.45,-1 1,-1 0.65,0 0.79,0.34 1.09,1.18 z"
             inkscape:connector-curvature="0"
             style="fill:#000000;stroke-width:0" /><path
             id="path9141"
             d="m 501.63,417.84 0.26,-0.01 0.24,-0.01 0.25,-0.03 0.23,-0.04 0.24,-0.05 0.22,-0.06 0.22,-0.07 0.22,-0.08 0.21,-0.1 0.2,-0.1 0.2,-0.12 0.19,-0.12 0.18,-0.14 0.17,-0.15 0.17,-0.16 0.16,-0.17 0.15,-0.18 0.14,-0.19 0.14,-0.21 0.12,-0.21 0.12,-0.23 0.11,-0.23 0.1,-0.25 0.09,-0.25 0.08,-0.27 0.07,-0.28 0.06,-0.29 0.05,-0.3 0.03,-0.31 0.03,-0.32 0.02,-0.34 0,-0.34 c 0,-4.33 -2.51,-5.61 -4.53,-5.61 -1.39,0 -4.47,0.38 -5.92,2.44 1.63,0.06 2.02,1.22 2.02,1.95 0,1.11 -0.85,1.91 -1.92,1.91 -0.97,0 -1.96,-0.6 -1.96,-2.02 0,-3.28 3.63,-5.4 7.85,-5.4 4.84,0 8.18,3.25 8.18,6.73 0,2.72 -2.22,5.44 -6.06,6.23 3.66,1.33 4.99,3.94 4.99,6.07 0,2.75 -3.18,4.81 -7.04,4.81 -3.87,0 -6.82,-1.89 -6.82,-4.67 0,-1.19 0.76,-1.85 1.81,-1.85 1.08,0 1.76,0.8 1.76,1.77 0,1.02 -0.68,1.75 -1.76,1.81 1.22,1.55 3.61,1.92 4.9,1.92 1.57,0 3.77,-0.76 3.77,-3.79 0,-1.47 -0.48,-3.07 -1.39,-4.14 -1.16,-1.33 -2.13,-1.41 -3.88,-1.5 -0.87,-0.08 -0.93,-0.08 -1.1,-0.11 -0.08,0 -0.36,-0.07 -0.36,-0.46 0,-0.48 0.31,-0.48 0.9,-0.48 z"
             inkscape:connector-curvature="0"
             style="fill:#000000;stroke-width:0" /></g>      </g>
      <g
         id="g9143"
         transform="translate(-446.40322,-2625.1127)">
        <g
           id="g9145"
           transform="matrix(1.0596867,0,0,-1.0596867,-185.44517,1726.8428)"
           xml:space="preserve"
           stroke-miterlimit="10.433"
           font-style="normal"
           font-variant="normal"
           font-weight="normal"
           font-stretch="normal"
           font-size-adjust="none"
           letter-spacing="normal"
           word-spacing="normal"
           style="font-style:normal;font-variant:normal;font-weight:normal;font-stretch:normal;letter-spacing:normal;word-spacing:normal;text-anchor:start;fill:none;stroke:#000000;stroke-linecap:butt;stroke-linejoin:miter;stroke-miterlimit:10.43299961;stroke-dasharray:none;stroke-dashoffset:0;stroke-opacity:1"><path
             d="m 473.11,422.74 -1.18,0 c -0.1,-0.76 -0.46,-2.83 -0.91,-3.17 -0.27,-0.2 -2.95,-0.2 -3.44,-0.2 l -6.42,0 c 3.66,3.23 4.88,4.2 6.97,5.84 2.58,2.06 4.98,4.22 4.98,7.53 0,4.22 -3.68,6.8 -8.15,6.8 -4.32,0 -7.25,-3.03 -7.25,-6.24 0,-1.78 1.5,-1.95 1.86,-1.95 0.82,0 1.84,0.6 1.84,1.85 0,0.62 -0.25,1.84 -2.06,1.84 1.08,2.47 3.45,3.23 5.09,3.23 3.49,0 5.3,-2.7 5.3,-5.53 0,-3.03 -2.16,-5.44 -3.28,-6.69 l -8.39,-8.29 c -0.36,-0.31 -0.36,-0.39 -0.36,-1.36 l 14.36,0 z"
             id="path9147"
             inkscape:connector-curvature="0"
             style="fill:#000000;stroke-width:0" /><path
             d="m 491.8,441.67 0.01,0.03 0.01,0.03 0.01,0.03 0.01,0.03 0.01,0.02 0.01,0.03 0.01,0.03 0.01,0.02 0.02,0.05 0.01,0.05 0.02,0.04 0.01,0.05 0.01,0.04 0.02,0.04 0.01,0.03 0.01,0.04 0,0.03 0.01,0.03 0.01,0.03 0.01,0.02 0,0.03 0.01,0.02 0,0.02 0,0.02 0.01,0.02 0,0.02 0,0.01 0,0.02 0,0.01 0.01,0.01 0,0.01 0,0.01 0,0.01 0,0.01 0,0.01 0,0 c 0,0.55 -0.46,0.99 -1,0.99 -0.35,0 -0.71,-0.14 -0.85,-0.44 l -17.29,-47.48 c -0.25,-0.64 -0.25,-0.85 -0.25,-0.89 0,-0.55 0.45,-1 1,-1 0.65,0 0.79,0.34 1.09,1.18 z"
             id="path9149"
             inkscape:connector-curvature="0"
             style="fill:#000000;stroke-width:0" /><path
             d="m 501.63,417.84 0.26,-0.01 0.24,-0.01 0.25,-0.03 0.23,-0.04 0.24,-0.05 0.22,-0.06 0.22,-0.07 0.22,-0.08 0.21,-0.1 0.2,-0.1 0.2,-0.12 0.19,-0.12 0.18,-0.14 0.17,-0.15 0.17,-0.16 0.16,-0.17 0.15,-0.18 0.14,-0.19 0.14,-0.21 0.12,-0.21 0.12,-0.23 0.11,-0.23 0.1,-0.25 0.09,-0.25 0.08,-0.27 0.07,-0.28 0.06,-0.29 0.05,-0.3 0.03,-0.31 0.03,-0.32 0.02,-0.34 0,-0.34 c 0,-4.33 -2.51,-5.61 -4.53,-5.61 -1.39,0 -4.47,0.38 -5.92,2.44 1.63,0.06 2.02,1.22 2.02,1.95 0,1.11 -0.85,1.91 -1.92,1.91 -0.97,0 -1.96,-0.6 -1.96,-2.02 0,-3.28 3.63,-5.4 7.85,-5.4 4.84,0 8.18,3.25 8.18,6.73 0,2.72 -2.22,5.44 -6.06,6.23 3.66,1.33 4.99,3.94 4.99,6.07 0,2.75 -3.18,4.81 -7.04,4.81 -3.87,0 -6.82,-1.89 -6.82,-4.67 0,-1.19 0.76,-1.85 1.81,-1.85 1.08,0 1.76,0.8 1.76,1.77 0,1.02 -0.68,1.75 -1.76,1.81 1.22,1.55 3.61,1.92 4.9,1.92 1.57,0 3.77,-0.76 3.77,-3.79 0,-1.47 -0.48,-3.07 -1.39,-4.14 -1.16,-1.33 -2.13,-1.41 -3.88,-1.5 -0.87,-0.08 -0.93,-0.08 -1.1,-0.11 -0.08,0 -0.36,-0.07 -0.36,-0.46 0,-0.48 0.31,-0.48 0.9,-0.48 z"
             id="path9151"
             inkscape:connector-curvature="0"
             style="fill:#000000;stroke-width:0" /></g>      </g>
    </g>
    <g
       id="g4410"
       transform="translate(2.8570557,0)">
      <path
         inkscape:connector-curvature="0"
         id="path8132"
         d="m -915.98619,-1209.571 0,151.4286"
         style="fill:none;stroke:#000000;stroke-width:5;stroke-linecap:butt;stroke-linejoin:miter;stroke-miterlimit:4;stroke-dasharray:none;stroke-opacity:1" />
      <path
         style="fill:none;stroke:#000000;stroke-width:5;stroke-linecap:butt;stroke-linejoin:miter;stroke-miterlimit:4;stroke-dasharray:none;stroke-opacity:1"
         d="m -621.9862,-1209.571 0,151.4286"
         id="path8134"
         inkscape:connector-curvature="0" />
      <rect
         style="fill:none;stroke:#000000;stroke-width:5;stroke-linecap:round;stroke-linejoin:round;stroke-miterlimit:4;stroke-dasharray:none;stroke-dashoffset:0;stroke-opacity:1"
         id="rect8136"
         width="887.68518"
         height="151.89577"
         x="-1211.8287"
         y="-1209.2896" />
      <path
         style="fill:none;stroke:#00ff00;stroke-width:5;stroke-linecap:butt;stroke-linejoin:miter;stroke-miterlimit:4;stroke-dasharray:none;stroke-opacity:1"
         d="m -621.881,-1133.3417 -293.60756,0"
         id="path8140"
         inkscape:connector-curvature="0"
         sodipodi:nodetypes="cc" />
      <path
         style="fill:none;stroke:#000000;stroke-width:5;stroke-linecap:butt;stroke-linejoin:miter;stroke-miterlimit:4;stroke-dasharray:none;stroke-opacity:1"
         d="m -767.9862,-1209.571 0,151.4286"
         id="path8138"
         inkscape:connector-curvature="0" />
      <g
         transform="translate(-1169.5518,-2452.1944)"
         id="g8309">
        <g
           style="font-style:normal;font-variant:normal;font-weight:normal;font-stretch:normal;letter-spacing:normal;word-spacing:normal;text-anchor:start;fill:none;stroke:#000000;stroke-linecap:butt;stroke-linejoin:miter;stroke-miterlimit:10.43299961;stroke-dasharray:none;stroke-dashoffset:0;stroke-opacity:1"
           id="g8311"
           transform="matrix(1.0596867,0,0,-1.0596867,-185.44517,1726.8428)"
           xml:space="preserve"
           stroke-miterlimit="10.433"
           font-style="normal"
           font-variant="normal"
           font-weight="normal"
           font-stretch="normal"
           font-size-adjust="none"
           letter-spacing="normal"
           word-spacing="normal"><path
             style="fill:#000000;stroke-width:0"
             inkscape:connector-curvature="0"
             d="m 467.19,438.55 0,0.05 0,0.04 0,0.04 0,0.04 0,0.04 0,0.04 0,0.04 0,0.03 -0.01,0.03 0,0.04 0,0.03 0,0.03 0,0.03 -0.01,0.03 0,0.02 0,0.03 -0.01,0.03 0,0.02 -0.01,0.02 0,0.03 -0.02,0.04 -0.01,0.04 -0.02,0.03 -0.02,0.03 -0.02,0.03 -0.02,0.02 -0.03,0.03 -0.03,0.02 -0.03,0.01 -0.04,0.02 -0.04,0.01 -0.05,0.01 -0.02,0.01 -0.02,0 -0.03,0.01 -0.03,0 -0.02,0 -0.03,0.01 -0.03,0 -0.03,0 -0.03,0 -0.04,0 -0.03,0 -0.04,0.01 -0.03,0 -0.04,0 -0.04,0 -0.04,0 -0.04,0 -0.05,0 -0.04,0 -0.05,0 c -2.23,-2.2 -5.39,-2.24 -6.82,-2.24 l 0,-1.25 c 0.84,0 3.14,0 5.04,0.97 l 0,-17.76 c 0,-1.16 0,-1.61 -3.48,-1.61 l -1.31,0 0,-1.25 c 0.62,0.03 4.9,0.14 6.2,0.14 1.08,0 5.47,-0.11 6.23,-0.14 l 0,1.25 -1.32,0 c -3.49,0 -3.49,0.45 -3.49,1.61 z"
             id="path8313" /><path
             style="fill:#000000;stroke-width:0"
             inkscape:connector-curvature="0"
             d="m 491.8,441.67 0.01,0.03 0.01,0.03 0.01,0.03 0.01,0.03 0.01,0.02 0.01,0.03 0.01,0.03 0.01,0.02 0.02,0.05 0.01,0.05 0.02,0.04 0.01,0.05 0.01,0.04 0.02,0.04 0.01,0.03 0.01,0.04 0,0.03 0.01,0.03 0.01,0.03 0.01,0.02 0,0.03 0.01,0.02 0,0.02 0,0.02 0.01,0.02 0,0.02 0,0.01 0,0.02 0,0.01 0.01,0.01 0,0.01 0,0.01 0,0.01 0,0.01 0,0.01 0,0 c 0,0.55 -0.46,0.99 -1,0.99 -0.35,0 -0.71,-0.14 -0.85,-0.44 l -17.29,-47.48 c -0.25,-0.64 -0.25,-0.85 -0.25,-0.89 0,-0.55 0.45,-1 1,-1 0.65,0 0.79,0.34 1.09,1.18 z"
             id="path8315" /><path
             style="fill:#000000;stroke-width:0"
             inkscape:connector-curvature="0"
             d="m 509.71,412.54 -1.19,0 c -0.09,-0.76 -0.45,-2.83 -0.9,-3.17 -0.27,-0.2 -2.96,-0.2 -3.44,-0.2 l -6.42,0 c 3.65,3.23 4.87,4.2 6.97,5.84 2.57,2.06 4.98,4.22 4.98,7.53 0,4.22 -3.69,6.8 -8.16,6.8 -4.31,0 -7.25,-3.03 -7.25,-6.23 0,-1.79 1.5,-1.96 1.86,-1.96 0.83,0 1.85,0.6 1.85,1.85 0,0.62 -0.25,1.84 -2.06,1.84 1.07,2.47 3.45,3.23 5.09,3.23 3.48,0 5.3,-2.7 5.3,-5.53 0,-3.03 -2.16,-5.43 -3.29,-6.68 l -8.39,-8.3 c -0.36,-0.31 -0.36,-0.39 -0.36,-1.36 l 14.36,0 z"
             id="path8317" /></g>      </g>
      <g
         id="g9083"
         transform="translate(-1023.5518,-2452.1944)">
        <g
           word-spacing="normal"
           letter-spacing="normal"
           font-size-adjust="none"
           font-stretch="normal"
           font-weight="normal"
           font-variant="normal"
           font-style="normal"
           stroke-miterlimit="10.433"
           xml:space="preserve"
           transform="matrix(1.0596867,0,0,-1.0596867,-185.44517,1726.8428)"
           id="g9085"
           style="font-style:normal;font-variant:normal;font-weight:normal;font-stretch:normal;letter-spacing:normal;word-spacing:normal;text-anchor:start;fill:none;stroke:#000000;stroke-linecap:butt;stroke-linejoin:miter;stroke-miterlimit:10.43299961;stroke-dasharray:none;stroke-dashoffset:0;stroke-opacity:1"><path
             id="path9087"
             d="m 467.19,438.55 0,0.05 0,0.04 0,0.04 0,0.04 0,0.04 0,0.04 0,0.04 0,0.03 -0.01,0.03 0,0.04 0,0.03 0,0.03 0,0.03 -0.01,0.03 0,0.02 0,0.03 -0.01,0.03 0,0.02 -0.01,0.02 0,0.03 -0.02,0.04 -0.01,0.04 -0.02,0.03 -0.02,0.03 -0.02,0.03 -0.02,0.02 -0.03,0.03 -0.03,0.02 -0.03,0.01 -0.04,0.02 -0.04,0.01 -0.05,0.01 -0.02,0.01 -0.02,0 -0.03,0.01 -0.03,0 -0.02,0 -0.03,0.01 -0.03,0 -0.03,0 -0.03,0 -0.04,0 -0.03,0 -0.04,0.01 -0.03,0 -0.04,0 -0.04,0 -0.04,0 -0.04,0 -0.05,0 -0.04,0 -0.05,0 c -2.23,-2.2 -5.39,-2.24 -6.82,-2.24 l 0,-1.25 c 0.84,0 3.14,0 5.04,0.97 l 0,-17.76 c 0,-1.16 0,-1.61 -3.48,-1.61 l -1.31,0 0,-1.25 c 0.62,0.03 4.9,0.14 6.2,0.14 1.08,0 5.47,-0.11 6.23,-0.14 l 0,1.25 -1.32,0 c -3.49,0 -3.49,0.45 -3.49,1.61 z"
             inkscape:connector-curvature="0"
             style="fill:#000000;stroke-width:0" /><path
             id="path9089"
             d="m 491.8,441.67 0.01,0.03 0.01,0.03 0.01,0.03 0.01,0.03 0.01,0.02 0.01,0.03 0.01,0.03 0.01,0.02 0.02,0.05 0.01,0.05 0.02,0.04 0.01,0.05 0.01,0.04 0.02,0.04 0.01,0.03 0.01,0.04 0,0.03 0.01,0.03 0.01,0.03 0.01,0.02 0,0.03 0.01,0.02 0,0.02 0,0.02 0.01,0.02 0,0.02 0,0.01 0,0.02 0,0.01 0.01,0.01 0,0.01 0,0.01 0,0.01 0,0.01 0,0.01 0,0 c 0,0.55 -0.46,0.99 -1,0.99 -0.35,0 -0.71,-0.14 -0.85,-0.44 l -17.29,-47.48 c -0.25,-0.64 -0.25,-0.85 -0.25,-0.89 0,-0.55 0.45,-1 1,-1 0.65,0 0.79,0.34 1.09,1.18 z"
             inkscape:connector-curvature="0"
             style="fill:#000000;stroke-width:0" /><path
             id="path9091"
             d="m 509.71,412.54 -1.19,0 c -0.09,-0.76 -0.45,-2.83 -0.9,-3.17 -0.27,-0.2 -2.96,-0.2 -3.44,-0.2 l -6.42,0 c 3.65,3.23 4.87,4.2 6.97,5.84 2.57,2.06 4.98,4.22 4.98,7.53 0,4.22 -3.69,6.8 -8.16,6.8 -4.31,0 -7.25,-3.03 -7.25,-6.23 0,-1.79 1.5,-1.96 1.86,-1.96 0.83,0 1.85,0.6 1.85,1.85 0,0.62 -0.25,1.84 -2.06,1.84 1.07,2.47 3.45,3.23 5.09,3.23 3.48,0 5.3,-2.7 5.3,-5.53 0,-3.03 -2.16,-5.43 -3.29,-6.68 l -8.39,-8.3 c -0.36,-0.31 -0.36,-0.39 -0.36,-1.36 l 14.36,0 z"
             inkscape:connector-curvature="0"
             style="fill:#000000;stroke-width:0" /></g>      </g>
      <g
         transform="translate(-1023.5518,-2372.1944)"
         id="g9093">
        <g
           style="font-style:normal;font-variant:normal;font-weight:normal;font-stretch:normal;letter-spacing:normal;word-spacing:normal;text-anchor:start;fill:none;stroke:#000000;stroke-linecap:butt;stroke-linejoin:miter;stroke-miterlimit:10.43299961;stroke-dasharray:none;stroke-dashoffset:0;stroke-opacity:1"
           id="g9095"
           transform="matrix(1.0596867,0,0,-1.0596867,-185.44517,1726.8428)"
           xml:space="preserve"
           stroke-miterlimit="10.433"
           font-style="normal"
           font-variant="normal"
           font-weight="normal"
           font-stretch="normal"
           font-size-adjust="none"
           letter-spacing="normal"
           word-spacing="normal"><path
             style="fill:#000000;stroke-width:0"
             inkscape:connector-curvature="0"
             d="m 467.19,438.55 0,0.05 0,0.04 0,0.04 0,0.04 0,0.04 0,0.04 0,0.04 0,0.03 -0.01,0.03 0,0.04 0,0.03 0,0.03 0,0.03 -0.01,0.03 0,0.02 0,0.03 -0.01,0.03 0,0.02 -0.01,0.02 0,0.03 -0.02,0.04 -0.01,0.04 -0.02,0.03 -0.02,0.03 -0.02,0.03 -0.02,0.02 -0.03,0.03 -0.03,0.02 -0.03,0.01 -0.04,0.02 -0.04,0.01 -0.05,0.01 -0.02,0.01 -0.02,0 -0.03,0.01 -0.03,0 -0.02,0 -0.03,0.01 -0.03,0 -0.03,0 -0.03,0 -0.04,0 -0.03,0 -0.04,0.01 -0.03,0 -0.04,0 -0.04,0 -0.04,0 -0.04,0 -0.05,0 -0.04,0 -0.05,0 c -2.23,-2.2 -5.39,-2.24 -6.82,-2.24 l 0,-1.25 c 0.84,0 3.14,0 5.04,0.97 l 0,-17.76 c 0,-1.16 0,-1.61 -3.48,-1.61 l -1.31,0 0,-1.25 c 0.62,0.03 4.9,0.14 6.2,0.14 1.08,0 5.47,-0.11 6.23,-0.14 l 0,1.25 -1.32,0 c -3.49,0 -3.49,0.45 -3.49,1.61 z"
             id="path9097" /><path
             style="fill:#000000;stroke-width:0"
             inkscape:connector-curvature="0"
             d="m 491.8,441.67 0.01,0.03 0.01,0.03 0.01,0.03 0.01,0.03 0.01,0.02 0.01,0.03 0.01,0.03 0.01,0.02 0.02,0.05 0.01,0.05 0.02,0.04 0.01,0.05 0.01,0.04 0.02,0.04 0.01,0.03 0.01,0.04 0,0.03 0.01,0.03 0.01,0.03 0.01,0.02 0,0.03 0.01,0.02 0,0.02 0,0.02 0.01,0.02 0,0.02 0,0.01 0,0.02 0,0.01 0.01,0.01 0,0.01 0,0.01 0,0.01 0,0.01 0,0.01 0,0 c 0,0.55 -0.46,0.99 -1,0.99 -0.35,0 -0.71,-0.14 -0.85,-0.44 l -17.29,-47.48 c -0.25,-0.64 -0.25,-0.85 -0.25,-0.89 0,-0.55 0.45,-1 1,-1 0.65,0 0.79,0.34 1.09,1.18 z"
             id="path9099" /><path
             style="fill:#000000;stroke-width:0"
             inkscape:connector-curvature="0"
             d="m 509.71,412.54 -1.19,0 c -0.09,-0.76 -0.45,-2.83 -0.9,-3.17 -0.27,-0.2 -2.96,-0.2 -3.44,-0.2 l -6.42,0 c 3.65,3.23 4.87,4.2 6.97,5.84 2.57,2.06 4.98,4.22 4.98,7.53 0,4.22 -3.69,6.8 -8.16,6.8 -4.31,0 -7.25,-3.03 -7.25,-6.23 0,-1.79 1.5,-1.96 1.86,-1.96 0.83,0 1.85,0.6 1.85,1.85 0,0.62 -0.25,1.84 -2.06,1.84 1.07,2.47 3.45,3.23 5.09,3.23 3.48,0 5.3,-2.7 5.3,-5.53 0,-3.03 -2.16,-5.43 -3.29,-6.68 l -8.39,-8.3 c -0.36,-0.31 -0.36,-0.39 -0.36,-1.36 l 14.36,0 z"
             id="path9101" /></g>      </g>
      <g
         id="g9103"
         transform="translate(-1169.5518,-2372.1944)">
        <g
           word-spacing="normal"
           letter-spacing="normal"
           font-size-adjust="none"
           font-stretch="normal"
           font-weight="normal"
           font-variant="normal"
           font-style="normal"
           stroke-miterlimit="10.433"
           xml:space="preserve"
           transform="matrix(1.0596867,0,0,-1.0596867,-185.44517,1726.8428)"
           id="g9105"
           style="font-style:normal;font-variant:normal;font-weight:normal;font-stretch:normal;letter-spacing:normal;word-spacing:normal;text-anchor:start;fill:none;stroke:#000000;stroke-linecap:butt;stroke-linejoin:miter;stroke-miterlimit:10.43299961;stroke-dasharray:none;stroke-dashoffset:0;stroke-opacity:1"><path
             id="path9107"
             d="m 467.19,438.55 0,0.05 0,0.04 0,0.04 0,0.04 0,0.04 0,0.04 0,0.04 0,0.03 -0.01,0.03 0,0.04 0,0.03 0,0.03 0,0.03 -0.01,0.03 0,0.02 0,0.03 -0.01,0.03 0,0.02 -0.01,0.02 0,0.03 -0.02,0.04 -0.01,0.04 -0.02,0.03 -0.02,0.03 -0.02,0.03 -0.02,0.02 -0.03,0.03 -0.03,0.02 -0.03,0.01 -0.04,0.02 -0.04,0.01 -0.05,0.01 -0.02,0.01 -0.02,0 -0.03,0.01 -0.03,0 -0.02,0 -0.03,0.01 -0.03,0 -0.03,0 -0.03,0 -0.04,0 -0.03,0 -0.04,0.01 -0.03,0 -0.04,0 -0.04,0 -0.04,0 -0.04,0 -0.05,0 -0.04,0 -0.05,0 c -2.23,-2.2 -5.39,-2.24 -6.82,-2.24 l 0,-1.25 c 0.84,0 3.14,0 5.04,0.97 l 0,-17.76 c 0,-1.16 0,-1.61 -3.48,-1.61 l -1.31,0 0,-1.25 c 0.62,0.03 4.9,0.14 6.2,0.14 1.08,0 5.47,-0.11 6.23,-0.14 l 0,1.25 -1.32,0 c -3.49,0 -3.49,0.45 -3.49,1.61 z"
             inkscape:connector-curvature="0"
             style="fill:#000000;stroke-width:0" /><path
             id="path9109"
             d="m 491.8,441.67 0.01,0.03 0.01,0.03 0.01,0.03 0.01,0.03 0.01,0.02 0.01,0.03 0.01,0.03 0.01,0.02 0.02,0.05 0.01,0.05 0.02,0.04 0.01,0.05 0.01,0.04 0.02,0.04 0.01,0.03 0.01,0.04 0,0.03 0.01,0.03 0.01,0.03 0.01,0.02 0,0.03 0.01,0.02 0,0.02 0,0.02 0.01,0.02 0,0.02 0,0.01 0,0.02 0,0.01 0.01,0.01 0,0.01 0,0.01 0,0.01 0,0.01 0,0.01 0,0 c 0,0.55 -0.46,0.99 -1,0.99 -0.35,0 -0.71,-0.14 -0.85,-0.44 l -17.29,-47.48 c -0.25,-0.64 -0.25,-0.85 -0.25,-0.89 0,-0.55 0.45,-1 1,-1 0.65,0 0.79,0.34 1.09,1.18 z"
             inkscape:connector-curvature="0"
             style="fill:#000000;stroke-width:0" /><path
             id="path9111"
             d="m 509.71,412.54 -1.19,0 c -0.09,-0.76 -0.45,-2.83 -0.9,-3.17 -0.27,-0.2 -2.96,-0.2 -3.44,-0.2 l -6.42,0 c 3.65,3.23 4.87,4.2 6.97,5.84 2.57,2.06 4.98,4.22 4.98,7.53 0,4.22 -3.69,6.8 -8.16,6.8 -4.31,0 -7.25,-3.03 -7.25,-6.23 0,-1.79 1.5,-1.96 1.86,-1.96 0.83,0 1.85,0.6 1.85,1.85 0,0.62 -0.25,1.84 -2.06,1.84 1.07,2.47 3.45,3.23 5.09,3.23 3.48,0 5.3,-2.7 5.3,-5.53 0,-3.03 -2.16,-5.43 -3.29,-6.68 l -8.39,-8.3 c -0.36,-0.31 -0.36,-0.39 -0.36,-1.36 l 14.36,0 z"
             inkscape:connector-curvature="0"
             style="fill:#000000;stroke-width:0" /></g>      </g>
    </g>
    <g
       id="g4437"
       transform="translate(2.8570862,0)">
      <path
         sodipodi:nodetypes="cc"
         inkscape:connector-curvature="0"
         id="path4226"
         d="m 98.0137,-1210.8598 0,155.0362"
         style="fill:none;stroke:#00ff00;stroke-width:5;stroke-linecap:butt;stroke-linejoin:miter;stroke-miterlimit:4;stroke-dasharray:none;stroke-opacity:1" />
      <path
         style="fill:none;stroke:#00ff00;stroke-width:5;stroke-linecap:butt;stroke-linejoin:miter;stroke-miterlimit:4;stroke-dasharray:none;stroke-opacity:1"
         d="m 245.0137,-1210.8598 0,155.0362"
         id="path4270"
         inkscape:connector-curvature="0"
         sodipodi:nodetypes="cc" />
      <path
         style="fill:none;stroke:#000000;stroke-width:5;stroke-linecap:butt;stroke-linejoin:miter;stroke-miterlimit:4;stroke-dasharray:none;stroke-opacity:1"
         d="m 24.0137,-1209.571 0,151.4286"
         id="path4220"
         inkscape:connector-curvature="0" />
      <path
         inkscape:connector-curvature="0"
         id="path4222"
         d="m 318.0137,-1209.571 0,151.4286"
         style="fill:none;stroke:#000000;stroke-width:5;stroke-linecap:butt;stroke-linejoin:miter;stroke-miterlimit:4;stroke-dasharray:none;stroke-opacity:1" />
      <rect
         y="-1209.2896"
         x="-271.82877"
         height="151.89577"
         width="887.68518"
         id="rect4224"
         style="fill:none;stroke:#000000;stroke-width:5;stroke-linecap:round;stroke-linejoin:round;stroke-miterlimit:4;stroke-dasharray:none;stroke-dashoffset:0;stroke-opacity:1" />
      <path
         inkscape:connector-curvature="0"
         id="path4228"
         d="m 172.0137,-1209.571 0,151.4286"
         style="fill:none;stroke:#000000;stroke-width:5;stroke-linecap:butt;stroke-linejoin:miter;stroke-miterlimit:4;stroke-dasharray:none;stroke-opacity:1" />
      <g
         id="g4230"
         transform="translate(-269.5518,-2412.1944)">
        <g
           word-spacing="normal"
           letter-spacing="normal"
           font-size-adjust="none"
           font-stretch="normal"
           font-weight="normal"
           font-variant="normal"
           font-style="normal"
           stroke-miterlimit="10.433"
           xml:space="preserve"
           transform="matrix(1.0596867,0,0,-1.0596867,-185.44517,1726.8428)"
           id="g4232"
           style="font-style:normal;font-variant:normal;font-weight:normal;font-stretch:normal;letter-spacing:normal;word-spacing:normal;text-anchor:start;fill:none;stroke:#000000;stroke-linecap:butt;stroke-linejoin:miter;stroke-miterlimit:10.43299961;stroke-dasharray:none;stroke-dashoffset:0;stroke-opacity:1"><path
             id="path4234"
             d="m 467.19,438.55 0,0.05 0,0.04 0,0.04 0,0.04 0,0.04 0,0.04 0,0.04 0,0.03 -0.01,0.03 0,0.04 0,0.03 0,0.03 0,0.03 -0.01,0.03 0,0.02 0,0.03 -0.01,0.03 0,0.02 -0.01,0.02 0,0.03 -0.02,0.04 -0.01,0.04 -0.02,0.03 -0.02,0.03 -0.02,0.03 -0.02,0.02 -0.03,0.03 -0.03,0.02 -0.03,0.01 -0.04,0.02 -0.04,0.01 -0.05,0.01 -0.02,0.01 -0.02,0 -0.03,0.01 -0.03,0 -0.02,0 -0.03,0.01 -0.03,0 -0.03,0 -0.03,0 -0.04,0 -0.03,0 -0.04,0.01 -0.03,0 -0.04,0 -0.04,0 -0.04,0 -0.04,0 -0.05,0 -0.04,0 -0.05,0 c -2.23,-2.2 -5.39,-2.24 -6.82,-2.24 l 0,-1.25 c 0.84,0 3.14,0 5.04,0.97 l 0,-17.76 c 0,-1.16 0,-1.61 -3.48,-1.61 l -1.31,0 0,-1.25 c 0.62,0.03 4.9,0.14 6.2,0.14 1.08,0 5.47,-0.11 6.23,-0.14 l 0,1.25 -1.32,0 c -3.49,0 -3.49,0.45 -3.49,1.61 z"
             inkscape:connector-curvature="0"
             style="fill:#000000;stroke-width:0" /><path
             id="path4236"
             d="m 491.8,441.67 0.01,0.03 0.01,0.03 0.01,0.03 0.01,0.03 0.01,0.02 0.01,0.03 0.01,0.03 0.01,0.02 0.02,0.05 0.01,0.05 0.02,0.04 0.01,0.05 0.01,0.04 0.02,0.04 0.01,0.03 0.01,0.04 0,0.03 0.01,0.03 0.01,0.03 0.01,0.02 0,0.03 0.01,0.02 0,0.02 0,0.02 0.01,0.02 0,0.02 0,0.01 0,0.02 0,0.01 0.01,0.01 0,0.01 0,0.01 0,0.01 0,0.01 0,0.01 0,0 c 0,0.55 -0.46,0.99 -1,0.99 -0.35,0 -0.71,-0.14 -0.85,-0.44 l -17.29,-47.48 c -0.25,-0.64 -0.25,-0.85 -0.25,-0.89 0,-0.55 0.45,-1 1,-1 0.65,0 0.79,0.34 1.09,1.18 z"
             inkscape:connector-curvature="0"
             style="fill:#000000;stroke-width:0" /><path
             id="path4238"
             d="m 509.71,412.54 -1.19,0 c -0.09,-0.76 -0.45,-2.83 -0.9,-3.17 -0.27,-0.2 -2.96,-0.2 -3.44,-0.2 l -6.42,0 c 3.65,3.23 4.87,4.2 6.97,5.84 2.57,2.06 4.98,4.22 4.98,7.53 0,4.22 -3.69,6.8 -8.16,6.8 -4.31,0 -7.25,-3.03 -7.25,-6.23 0,-1.79 1.5,-1.96 1.86,-1.96 0.83,0 1.85,0.6 1.85,1.85 0,0.62 -0.25,1.84 -2.06,1.84 1.07,2.47 3.45,3.23 5.09,3.23 3.48,0 5.3,-2.7 5.3,-5.53 0,-3.03 -2.16,-5.43 -3.29,-6.68 l -8.39,-8.3 c -0.36,-0.31 -0.36,-0.39 -0.36,-1.36 l 14.36,0 z"
             inkscape:connector-curvature="0"
             style="fill:#000000;stroke-width:0" /></g>      </g>
      <g
         transform="translate(-189.5518,-2412.1944)"
         id="g4260">
        <g
           style="font-style:normal;font-variant:normal;font-weight:normal;font-stretch:normal;letter-spacing:normal;word-spacing:normal;text-anchor:start;fill:none;stroke:#000000;stroke-linecap:butt;stroke-linejoin:miter;stroke-miterlimit:10.43299961;stroke-dasharray:none;stroke-dashoffset:0;stroke-opacity:1"
           id="g4262"
           transform="matrix(1.0596867,0,0,-1.0596867,-185.44517,1726.8428)"
           xml:space="preserve"
           stroke-miterlimit="10.433"
           font-style="normal"
           font-variant="normal"
           font-weight="normal"
           font-stretch="normal"
           font-size-adjust="none"
           letter-spacing="normal"
           word-spacing="normal"><path
             style="fill:#000000;stroke-width:0"
             inkscape:connector-curvature="0"
             d="m 467.19,438.55 0,0.05 0,0.04 0,0.04 0,0.04 0,0.04 0,0.04 0,0.04 0,0.03 -0.01,0.03 0,0.04 0,0.03 0,0.03 0,0.03 -0.01,0.03 0,0.02 0,0.03 -0.01,0.03 0,0.02 -0.01,0.02 0,0.03 -0.02,0.04 -0.01,0.04 -0.02,0.03 -0.02,0.03 -0.02,0.03 -0.02,0.02 -0.03,0.03 -0.03,0.02 -0.03,0.01 -0.04,0.02 -0.04,0.01 -0.05,0.01 -0.02,0.01 -0.02,0 -0.03,0.01 -0.03,0 -0.02,0 -0.03,0.01 -0.03,0 -0.03,0 -0.03,0 -0.04,0 -0.03,0 -0.04,0.01 -0.03,0 -0.04,0 -0.04,0 -0.04,0 -0.04,0 -0.05,0 -0.04,0 -0.05,0 c -2.23,-2.2 -5.39,-2.24 -6.82,-2.24 l 0,-1.25 c 0.84,0 3.14,0 5.04,0.97 l 0,-17.76 c 0,-1.16 0,-1.61 -3.48,-1.61 l -1.31,0 0,-1.25 c 0.62,0.03 4.9,0.14 6.2,0.14 1.08,0 5.47,-0.11 6.23,-0.14 l 0,1.25 -1.32,0 c -3.49,0 -3.49,0.45 -3.49,1.61 z"
             id="path4264" /><path
             style="fill:#000000;stroke-width:0"
             inkscape:connector-curvature="0"
             d="m 491.8,441.67 0.01,0.03 0.01,0.03 0.01,0.03 0.01,0.03 0.01,0.02 0.01,0.03 0.01,0.03 0.01,0.02 0.02,0.05 0.01,0.05 0.02,0.04 0.01,0.05 0.01,0.04 0.02,0.04 0.01,0.03 0.01,0.04 0,0.03 0.01,0.03 0.01,0.03 0.01,0.02 0,0.03 0.01,0.02 0,0.02 0,0.02 0.01,0.02 0,0.02 0,0.01 0,0.02 0,0.01 0.01,0.01 0,0.01 0,0.01 0,0.01 0,0.01 0,0.01 0,0 c 0,0.55 -0.46,0.99 -1,0.99 -0.35,0 -0.71,-0.14 -0.85,-0.44 l -17.29,-47.48 c -0.25,-0.64 -0.25,-0.85 -0.25,-0.89 0,-0.55 0.45,-1 1,-1 0.65,0 0.79,0.34 1.09,1.18 z"
             id="path4266" /><path
             style="fill:#000000;stroke-width:0"
             inkscape:connector-curvature="0"
             d="m 509.71,412.54 -1.19,0 c -0.09,-0.76 -0.45,-2.83 -0.9,-3.17 -0.27,-0.2 -2.96,-0.2 -3.44,-0.2 l -6.42,0 c 3.65,3.23 4.87,4.2 6.97,5.84 2.57,2.06 4.98,4.22 4.98,7.53 0,4.22 -3.69,6.8 -8.16,6.8 -4.31,0 -7.25,-3.03 -7.25,-6.23 0,-1.79 1.5,-1.96 1.86,-1.96 0.83,0 1.85,0.6 1.85,1.85 0,0.62 -0.25,1.84 -2.06,1.84 1.07,2.47 3.45,3.23 5.09,3.23 3.48,0 5.3,-2.7 5.3,-5.53 0,-3.03 -2.16,-5.43 -3.29,-6.68 l -8.39,-8.3 c -0.36,-0.31 -0.36,-0.39 -0.36,-1.36 l 14.36,0 z"
             id="path4268" /></g>      </g>
      <g
         transform="translate(-123.5518,-2412.1944)"
         id="g4272">
        <g
           style="font-style:normal;font-variant:normal;font-weight:normal;font-stretch:normal;letter-spacing:normal;word-spacing:normal;text-anchor:start;fill:none;stroke:#000000;stroke-linecap:butt;stroke-linejoin:miter;stroke-miterlimit:10.43299961;stroke-dasharray:none;stroke-dashoffset:0;stroke-opacity:1"
           id="g4274"
           transform="matrix(1.0596867,0,0,-1.0596867,-185.44517,1726.8428)"
           xml:space="preserve"
           stroke-miterlimit="10.433"
           font-style="normal"
           font-variant="normal"
           font-weight="normal"
           font-stretch="normal"
           font-size-adjust="none"
           letter-spacing="normal"
           word-spacing="normal"><path
             style="fill:#000000;stroke-width:0"
             inkscape:connector-curvature="0"
             d="m 467.19,438.55 0,0.05 0,0.04 0,0.04 0,0.04 0,0.04 0,0.04 0,0.04 0,0.03 -0.01,0.03 0,0.04 0,0.03 0,0.03 0,0.03 -0.01,0.03 0,0.02 0,0.03 -0.01,0.03 0,0.02 -0.01,0.02 0,0.03 -0.02,0.04 -0.01,0.04 -0.02,0.03 -0.02,0.03 -0.02,0.03 -0.02,0.02 -0.03,0.03 -0.03,0.02 -0.03,0.01 -0.04,0.02 -0.04,0.01 -0.05,0.01 -0.02,0.01 -0.02,0 -0.03,0.01 -0.03,0 -0.02,0 -0.03,0.01 -0.03,0 -0.03,0 -0.03,0 -0.04,0 -0.03,0 -0.04,0.01 -0.03,0 -0.04,0 -0.04,0 -0.04,0 -0.04,0 -0.05,0 -0.04,0 -0.05,0 c -2.23,-2.2 -5.39,-2.24 -6.82,-2.24 l 0,-1.25 c 0.84,0 3.14,0 5.04,0.97 l 0,-17.76 c 0,-1.16 0,-1.61 -3.48,-1.61 l -1.31,0 0,-1.25 c 0.62,0.03 4.9,0.14 6.2,0.14 1.08,0 5.47,-0.11 6.23,-0.14 l 0,1.25 -1.32,0 c -3.49,0 -3.49,0.45 -3.49,1.61 z"
             id="path4276" /><path
             style="fill:#000000;stroke-width:0"
             inkscape:connector-curvature="0"
             d="m 491.8,441.67 0.01,0.03 0.01,0.03 0.01,0.03 0.01,0.03 0.01,0.02 0.01,0.03 0.01,0.03 0.01,0.02 0.02,0.05 0.01,0.05 0.02,0.04 0.01,0.05 0.01,0.04 0.02,0.04 0.01,0.03 0.01,0.04 0,0.03 0.01,0.03 0.01,0.03 0.01,0.02 0,0.03 0.01,0.02 0,0.02 0,0.02 0.01,0.02 0,0.02 0,0.01 0,0.02 0,0.01 0.01,0.01 0,0.01 0,0.01 0,0.01 0,0.01 0,0.01 0,0 c 0,0.55 -0.46,0.99 -1,0.99 -0.35,0 -0.71,-0.14 -0.85,-0.44 l -17.29,-47.48 c -0.25,-0.64 -0.25,-0.85 -0.25,-0.89 0,-0.55 0.45,-1 1,-1 0.65,0 0.79,0.34 1.09,1.18 z"
             id="path4278" /><path
             style="fill:#000000;stroke-width:0"
             inkscape:connector-curvature="0"
             d="m 509.71,412.54 -1.19,0 c -0.09,-0.76 -0.45,-2.83 -0.9,-3.17 -0.27,-0.2 -2.96,-0.2 -3.44,-0.2 l -6.42,0 c 3.65,3.23 4.87,4.2 6.97,5.84 2.57,2.06 4.98,4.22 4.98,7.53 0,4.22 -3.69,6.8 -8.16,6.8 -4.31,0 -7.25,-3.03 -7.25,-6.23 0,-1.79 1.5,-1.96 1.86,-1.96 0.83,0 1.85,0.6 1.85,1.85 0,0.62 -0.25,1.84 -2.06,1.84 1.07,2.47 3.45,3.23 5.09,3.23 3.48,0 5.3,-2.7 5.3,-5.53 0,-3.03 -2.16,-5.43 -3.29,-6.68 l -8.39,-8.3 c -0.36,-0.31 -0.36,-0.39 -0.36,-1.36 l 14.36,0 z"
             id="path4280" /></g>      </g>
      <g
         id="g4282"
         transform="translate(-43.5518,-2412.1944)">
        <g
           word-spacing="normal"
           letter-spacing="normal"
           font-size-adjust="none"
           font-stretch="normal"
           font-weight="normal"
           font-variant="normal"
           font-style="normal"
           stroke-miterlimit="10.433"
           xml:space="preserve"
           transform="matrix(1.0596867,0,0,-1.0596867,-185.44517,1726.8428)"
           id="g4284"
           style="font-style:normal;font-variant:normal;font-weight:normal;font-stretch:normal;letter-spacing:normal;word-spacing:normal;text-anchor:start;fill:none;stroke:#000000;stroke-linecap:butt;stroke-linejoin:miter;stroke-miterlimit:10.43299961;stroke-dasharray:none;stroke-dashoffset:0;stroke-opacity:1"><path
             id="path4286"
             d="m 467.19,438.55 0,0.05 0,0.04 0,0.04 0,0.04 0,0.04 0,0.04 0,0.04 0,0.03 -0.01,0.03 0,0.04 0,0.03 0,0.03 0,0.03 -0.01,0.03 0,0.02 0,0.03 -0.01,0.03 0,0.02 -0.01,0.02 0,0.03 -0.02,0.04 -0.01,0.04 -0.02,0.03 -0.02,0.03 -0.02,0.03 -0.02,0.02 -0.03,0.03 -0.03,0.02 -0.03,0.01 -0.04,0.02 -0.04,0.01 -0.05,0.01 -0.02,0.01 -0.02,0 -0.03,0.01 -0.03,0 -0.02,0 -0.03,0.01 -0.03,0 -0.03,0 -0.03,0 -0.04,0 -0.03,0 -0.04,0.01 -0.03,0 -0.04,0 -0.04,0 -0.04,0 -0.04,0 -0.05,0 -0.04,0 -0.05,0 c -2.23,-2.2 -5.39,-2.24 -6.82,-2.24 l 0,-1.25 c 0.84,0 3.14,0 5.04,0.97 l 0,-17.76 c 0,-1.16 0,-1.61 -3.48,-1.61 l -1.31,0 0,-1.25 c 0.62,0.03 4.9,0.14 6.2,0.14 1.08,0 5.47,-0.11 6.23,-0.14 l 0,1.25 -1.32,0 c -3.49,0 -3.49,0.45 -3.49,1.61 z"
             inkscape:connector-curvature="0"
             style="fill:#000000;stroke-width:0" /><path
             id="path4288"
             d="m 491.8,441.67 0.01,0.03 0.01,0.03 0.01,0.03 0.01,0.03 0.01,0.02 0.01,0.03 0.01,0.03 0.01,0.02 0.02,0.05 0.01,0.05 0.02,0.04 0.01,0.05 0.01,0.04 0.02,0.04 0.01,0.03 0.01,0.04 0,0.03 0.01,0.03 0.01,0.03 0.01,0.02 0,0.03 0.01,0.02 0,0.02 0,0.02 0.01,0.02 0,0.02 0,0.01 0,0.02 0,0.01 0.01,0.01 0,0.01 0,0.01 0,0.01 0,0.01 0,0.01 0,0 c 0,0.55 -0.46,0.99 -1,0.99 -0.35,0 -0.71,-0.14 -0.85,-0.44 l -17.29,-47.48 c -0.25,-0.64 -0.25,-0.85 -0.25,-0.89 0,-0.55 0.45,-1 1,-1 0.65,0 0.79,0.34 1.09,1.18 z"
             inkscape:connector-curvature="0"
             style="fill:#000000;stroke-width:0" /><path
             id="path4290"
             d="m 509.71,412.54 -1.19,0 c -0.09,-0.76 -0.45,-2.83 -0.9,-3.17 -0.27,-0.2 -2.96,-0.2 -3.44,-0.2 l -6.42,0 c 3.65,3.23 4.87,4.2 6.97,5.84 2.57,2.06 4.98,4.22 4.98,7.53 0,4.22 -3.69,6.8 -8.16,6.8 -4.31,0 -7.25,-3.03 -7.25,-6.23 0,-1.79 1.5,-1.96 1.86,-1.96 0.83,0 1.85,0.6 1.85,1.85 0,0.62 -0.25,1.84 -2.06,1.84 1.07,2.47 3.45,3.23 5.09,3.23 3.48,0 5.3,-2.7 5.3,-5.53 0,-3.03 -2.16,-5.43 -3.29,-6.68 l -8.39,-8.3 c -0.36,-0.31 -0.36,-0.39 -0.36,-1.36 l 14.36,0 z"
             inkscape:connector-curvature="0"
             style="fill:#000000;stroke-width:0" /></g>      </g>
    </g>
  </g>
</svg>
