<?xml version="1.0" encoding="utf-8"?>
<!-- Generator: Adobe Illustrator 16.0.4, SVG Export Plug-In . SVG Version: 6.00 Build 0)  -->
<!DOCTYPE svg PUBLIC "-//W3C//DTD SVG 1.1//EN" "http://www.w3.org/Graphics/SVG/1.1/DTD/svg11.dtd">
<svg version="1.1"
	 id="svg2" xmlns:dc="http://purl.org/dc/elements/1.1/" xmlns:cc="http://creativecommons.org/ns#" xmlns:rdf="http://www.w3.org/1999/02/22-rdf-syntax-ns#" xmlns:svg="http://www.w3.org/2000/svg" xmlns:sodipodi="http://sodipodi.sourceforge.net/DTD/sodipodi-0.dtd" xmlns:inkscape="http://www.inkscape.org/namespaces/inkscape" inkscape:version="0.91 r" sodipodi:docname="Model_divisions.svg"
	 xmlns="http://www.w3.org/2000/svg" xmlns:xlink="http://www.w3.org/1999/xlink" x="0px" y="0px" width="841.891px"
	 height="595.275px" viewBox="0 0 841.891 595.275" enable-background="new 0 0 841.891 595.275" xml:space="preserve">
<sodipodi:namedview  pagecolor="#ffffff" bordercolor="#666666" borderopacity="1" objecttolerance="10" gridtolerance="10" guidetolerance="10" id="namedview447" showgrid="false" inkscape:zoom="1.6049335" inkscape:cx="238.46949" inkscape:cy="67.409627" inkscape:pageshadow="2" inkscape:window-width="1920" inkscape:window-maximized="1" inkscape:current-layer="g34553" inkscape:window-height="1025" inkscape:pageopacity="0" inkscape:window-y="-3" inkscape:window-x="-3">
	</sodipodi:namedview>
<g id="g34001" transform="translate(-30,-68)">
	<path id="path17456" fill="#FFFFFF" stroke="#00FF00" stroke-width="0.5" d="M595.899,159.946h17.5v57.5h-17.5V159.946z"/>
	<path id="path17460" fill="#FFFFFF" stroke="#00FF00" stroke-width="0.5" d="M619.899,147.945h17.5v33.501h-17.5V147.945z"/>
	<path id="path17472" fill="#FFFFFF" stroke="#00FF00" stroke-width="0.5" d="M619.899,195.947h17.5v33.502h-17.5V195.947z"/>
	<path id="path17484" fill="none" stroke="#666666" stroke-width="0.375" d="M560.645,188.696h16.002"/>
	<path id="path17488" fill="none" stroke="#666666" stroke-width="0.375" d="M576.647,188.696l23.998-23.999"/>
	<path id="path17492" fill="none" stroke="#666666" stroke-width="0.375" d="M576.647,188.696l32.002,23.999"/>
	<path id="path17496" fill="none" stroke="#666666" stroke-width="0.375" d="M600.645,164.697l24.004-12.002"/>
	<path id="path17500" fill="none" stroke="#666666" stroke-width="0.375" d="M600.645,164.697l32.003,11.998"/>
	<path id="path17520" fill="none" stroke="#666666" stroke-width="0.375" d="M608.649,212.695l16-11.996"/>
	<path id="path17524" fill="none" stroke="#666666" stroke-width="0.375" d="M608.649,212.695l23.999,12.002"/>
	<path id="path17542" fill="#EDFFC5" d="M556.647,186.694h8.002v4.004h-8.002V186.694z"/>
	<path id="path17544" fill="#FD0304" d="M572.648,184.698h7.997v3.999h-7.997V184.698z"/>
	<path id="path17546" fill="#7DE603" d="M572.648,188.697h7.997v3.998h-7.997V188.697z"/>
	<path id="path17548" fill="#FFB2E6" d="M596.647,160.698h8.002v3.999h-8.002V160.698z"/>
	<path id="path17550" fill="#5AF9FF" d="M596.647,164.698h8.002v3.999h-8.002V164.698z"/>
	<path id="path17552" fill="#FF9B55" d="M620.645,148.697h8.003v3.998h-8.003V148.697z"/>
	<path id="path17554" fill="#FE4445" d="M620.645,152.695h8.003v3.999h-8.003V152.695z"/>
	<path id="path17564" fill="#4F85FF" d="M628.649,172.695h7.998v3.999h-7.998V172.695z"/>
	<path id="path17566" fill="#47C681" d="M628.649,176.694h7.998v4.004h-7.998V176.694z"/>
	<path id="path17576" fill="#FFFA68" d="M604.649,208.697h7.998v3.998h-7.998V208.697z"/>
	<path id="path17578" fill="#BCBCBC" d="M604.649,212.695h7.998v3.999h-7.998V212.695z"/>
	<path id="path17580" fill="#FFE20C" d="M620.645,196.694h8.003v4.004h-8.003V196.694z"/>
	<path id="path17582" fill="#C143FF" d="M620.645,200.698h8.003v3.999h-8.003V200.698z"/>
	<path id="path17592" fill="#B47CDD" d="M628.649,220.698h7.998v3.999h-7.998V220.698z"/>
	<path id="path17594" fill="#FF70C2" d="M628.649,224.698h7.998v3.999h-7.998V224.698z"/>
	<text transform="matrix(1 0 0 1 598.2292 189.2964)" font-family="'Verdana'" font-size="2">7</text>
	<text transform="matrix(1 0 0 1 599.4998 189.2964)" font-family="'Verdana'" font-size="2">8</text>
	<text transform="matrix(1 0 0 1 600.7693 189.2964)" font-family="'Verdana'" font-size="2">.</text>
	<text transform="matrix(1 0 0 1 601.4958 189.2964)" font-family="'Verdana'" font-size="2">0</text>
	<text transform="matrix(1 0 0 1 602.7654 189.2964)" font-family="'Verdana'" font-size="2">%</text>
	<text transform="matrix(1 0 0 1 604.9177 189.2964)" font-family="'Verdana'" font-size="2"> </text>
	<text transform="matrix(1 0 0 1 605.6199 189.2964)" font-family="'Verdana'" font-size="2">/</text>
	<text transform="matrix(1 0 0 1 606.533 189.2964)" font-family="'Verdana'" font-size="2"> </text>
	<text transform="matrix(1 0 0 1 607.2351 189.2964)" font-family="'Verdana'" font-size="2">1</text>
	<text transform="matrix(1 0 0 1 608.5056 189.2964)" font-family="'Verdana'" font-size="2">0</text>
	<text transform="matrix(1 0 0 1 609.7751 189.2964)" font-family="'Verdana'" font-size="2">0</text>
	<text transform="matrix(1 0 0 1 622.8669 165.2964)" font-family="'Verdana'" font-size="2">6</text>
	<text transform="matrix(1 0 0 1 624.1365 165.2964)" font-family="'Verdana'" font-size="2">5</text>
	<text transform="matrix(1 0 0 1 625.406 165.2964)" font-family="'Verdana'" font-size="2">.</text>
	<text transform="matrix(1 0 0 1 626.1326 165.2964)" font-family="'Verdana'" font-size="2">9</text>
	<text transform="matrix(1 0 0 1 627.4021 165.2964)" font-family="'Verdana'" font-size="2">%</text>
	<text transform="matrix(1 0 0 1 629.5544 165.2964)" font-family="'Verdana'" font-size="2"> </text>
	<text transform="matrix(1 0 0 1 630.2566 165.2964)" font-family="'Verdana'" font-size="2">/</text>
	<text transform="matrix(1 0 0 1 631.1707 165.2964)" font-family="'Verdana'" font-size="2"> </text>
	<text transform="matrix(1 0 0 1 631.8718 165.2964)" font-family="'Verdana'" font-size="2">9</text>
	<text transform="matrix(1 0 0 1 633.1423 165.2964)" font-family="'Verdana'" font-size="2">7</text>
	<text transform="matrix(1 0 0 1 622.8669 213.2964)" font-family="'Verdana'" font-size="2">5</text>
	<text transform="matrix(1 0 0 1 624.1365 213.2964)" font-family="'Verdana'" font-size="2">7</text>
	<text transform="matrix(1 0 0 1 625.406 213.2964)" font-family="'Verdana'" font-size="2">.</text>
	<text transform="matrix(1 0 0 1 626.1326 213.2964)" font-family="'Verdana'" font-size="2">9</text>
	<text transform="matrix(1 0 0 1 627.4021 213.2964)" font-family="'Verdana'" font-size="2">%</text>
	<text transform="matrix(1 0 0 1 629.5544 213.2964)" font-family="'Verdana'" font-size="2"> </text>
	<text transform="matrix(1 0 0 1 630.2566 213.2964)" font-family="'Verdana'" font-size="2">/</text>
	<text transform="matrix(1 0 0 1 631.1707 213.2964)" font-family="'Verdana'" font-size="2"> </text>
	<text transform="matrix(1 0 0 1 631.8718 213.2964)" font-family="'Verdana'" font-size="2">8</text>
	<text transform="matrix(1 0 0 1 633.1423 213.2964)" font-family="'Verdana'" font-size="2">8</text>
	<text transform="matrix(1 0 0 1 560.0105 189.2964)" font-family="'Verdana'" font-size="2">0</text>
	<text transform="matrix(1 0 0 1 575.3748 187.2964)" font-family="'Verdana'" font-size="2">0</text>
	<text transform="matrix(1 0 0 1 576.6443 187.2964)" font-family="'Verdana'" font-size="2">1</text>
	<text transform="matrix(1 0 0 1 575.3748 191.2964)" font-family="'Verdana'" font-size="2">0</text>
	<text transform="matrix(1 0 0 1 576.6443 191.2964)" font-family="'Verdana'" font-size="2">2</text>
	<text transform="matrix(1 0 0 1 598.738 163.2964)" font-family="'Verdana'" font-size="2">0</text>
	<text transform="matrix(1 0 0 1 600.0076 163.2964)" font-family="'Verdana'" font-size="2">1</text>
	<text transform="matrix(1 0 0 1 601.2771 163.2964)" font-family="'Verdana'" font-size="2">1</text>
	<text transform="matrix(1 0 0 1 598.738 167.2964)" font-family="'Verdana'" font-size="2">0</text>
	<text transform="matrix(1 0 0 1 600.0076 167.2964)" font-family="'Verdana'" font-size="2">1</text>
	<text transform="matrix(1 0 0 1 601.2771 167.2964)" font-family="'Verdana'" font-size="2">2</text>
	<text transform="matrix(1 0 0 1 622.1003 151.2964)" font-family="'Verdana'" font-size="2">0</text>
	<text transform="matrix(1 0 0 1 623.3708 151.2964)" font-family="'Verdana'" font-size="2">1</text>
	<text transform="matrix(1 0 0 1 624.6404 151.2964)" font-family="'Verdana'" font-size="2">1</text>
	<text transform="matrix(1 0 0 1 625.9167 151.2964)" font-family="'Verdana'" font-size="2">1</text>
	<text transform="matrix(1 0 0 1 622.1003 155.2964)" font-family="'Verdana'" font-size="2">0</text>
	<text transform="matrix(1 0 0 1 623.3708 155.2964)" font-family="'Verdana'" font-size="2">1</text>
	<text transform="matrix(1 0 0 1 624.6404 155.2964)" font-family="'Verdana'" font-size="2">1</text>
	<text transform="matrix(1 0 0 1 625.9167 155.2964)" font-family="'Verdana'" font-size="2">2</text>
	<text transform="matrix(1 0 0 1 630.1003 175.2964)" font-family="'Verdana'" font-size="2">0</text>
	<text transform="matrix(1 0 0 1 631.3708 175.2964)" font-family="'Verdana'" font-size="2">1</text>
	<text transform="matrix(1 0 0 1 632.6404 175.2964)" font-family="'Verdana'" font-size="2">2</text>
	<text transform="matrix(1 0 0 1 633.9167 175.2964)" font-family="'Verdana'" font-size="2">1</text>
	<text transform="matrix(1 0 0 1 630.1003 179.2964)" font-family="'Verdana'" font-size="2">0</text>
	<text transform="matrix(1 0 0 1 631.3708 179.2964)" font-family="'Verdana'" font-size="2">1</text>
	<text transform="matrix(1 0 0 1 632.6404 179.2964)" font-family="'Verdana'" font-size="2">2</text>
	<text transform="matrix(1 0 0 1 633.9167 179.2964)" font-family="'Verdana'" font-size="2">2</text>
	<text transform="matrix(1 0 0 1 606.738 211.2964)" font-family="'Verdana'" font-size="2">0</text>
	<text transform="matrix(1 0 0 1 608.0076 211.2964)" font-family="'Verdana'" font-size="2">2</text>
	<text transform="matrix(1 0 0 1 609.2771 211.2964)" font-family="'Verdana'" font-size="2">1</text>
	<text transform="matrix(1 0 0 1 606.738 215.2964)" font-family="'Verdana'" font-size="2">0</text>
	<text transform="matrix(1 0 0 1 608.0076 215.2964)" font-family="'Verdana'" font-size="2">2</text>
	<text transform="matrix(1 0 0 1 609.2771 215.2964)" font-family="'Verdana'" font-size="2">2</text>
	<text transform="matrix(1 0 0 1 622.1003 199.2964)" font-family="'Verdana'" font-size="2">0</text>
	<text transform="matrix(1 0 0 1 623.3708 199.2964)" font-family="'Verdana'" font-size="2">2</text>
	<text transform="matrix(1 0 0 1 624.6404 199.2964)" font-family="'Verdana'" font-size="2">1</text>
	<text transform="matrix(1 0 0 1 625.9167 199.2964)" font-family="'Verdana'" font-size="2">1</text>
	<text transform="matrix(1 0 0 1 622.1003 203.2964)" font-family="'Verdana'" font-size="2">0</text>
	<text transform="matrix(1 0 0 1 623.3708 203.2964)" font-family="'Verdana'" font-size="2">2</text>
	<text transform="matrix(1 0 0 1 624.6404 203.2964)" font-family="'Verdana'" font-size="2">1</text>
	<text transform="matrix(1 0 0 1 625.9167 203.2964)" font-family="'Verdana'" font-size="2">2</text>
	<text transform="matrix(1 0 0 1 630.1003 223.2964)" font-family="'Verdana'" font-size="2">0</text>
	<text transform="matrix(1 0 0 1 631.3708 223.2964)" font-family="'Verdana'" font-size="2">2</text>
	<text transform="matrix(1 0 0 1 632.6404 223.2964)" font-family="'Verdana'" font-size="2">2</text>
	<text transform="matrix(1 0 0 1 633.9167 223.2964)" font-family="'Verdana'" font-size="2">1</text>
	<text transform="matrix(1 0 0 1 630.1003 227.2964)" font-family="'Verdana'" font-size="2">0</text>
	<text transform="matrix(1 0 0 1 631.3708 227.2964)" font-family="'Verdana'" font-size="2">2</text>
	<text transform="matrix(1 0 0 1 632.6404 227.2964)" font-family="'Verdana'" font-size="2">2</text>
	<text transform="matrix(1 0 0 1 633.9167 227.2964)" font-family="'Verdana'" font-size="2">2</text>
</g>
<g id="g34069" transform="translate(-26,-65.81102)">
	<path id="path16744" fill="#FFFFFF" stroke="#00FF00" stroke-width="0.5" d="M286.53,170.299h17.5v57.5h-17.5V170.299z"/>
	<path id="path16748" fill="#FFFFFF" stroke="#00FF00" stroke-width="0.5" d="M310.533,158.296h17.5v33.502h-17.5V158.296z"/>
	<path id="path16760" fill="#FFFFFF" stroke="#00FF00" stroke-width="0.5" d="M310.533,206.299h17.5V239.8h-17.5V206.299z"/>
	<path id="path16772" fill="none" stroke="#666666" stroke-width="0.375" d="M251.281,199.049h16.002"/>
	<path id="path16776" fill="none" stroke="#666666" stroke-width="0.375" d="M267.282,199.049l23.998-24"/>
	<path id="path16780" fill="none" stroke="#666666" stroke-width="0.375" d="M267.282,199.049l32.001,23.999"/>
	<path id="path16784" fill="none" stroke="#666666" stroke-width="0.375" d="M291.281,175.049l23.999-12.001"/>
	<path id="path16788" fill="none" stroke="#666666" stroke-width="0.375" d="M291.281,175.049l32.003,11.997"/>
	<path id="path16808" fill="none" stroke="#666666" stroke-width="0.375" d="M299.283,223.048l15.997-11.998"/>
	<path id="path16812" fill="none" stroke="#666666" stroke-width="0.375" d="M299.283,223.048l24,12.001"/>
	<path id="path16830" fill="#EDFFC5" d="M247.282,197.047h7.997v4.004h-7.997V197.047z"/>
	<path id="path16832" fill="#FD0304" d="M263.283,195.05h7.997v3.998h-7.997V195.05z"/>
	<path id="path16834" fill="#7DE603" d="M263.283,199.048h7.997v3.999h-7.997V199.048z"/>
	<path id="path16836" fill="#FFB2E6" d="M287.282,171.051h7.997v3.999h-7.997V171.051z"/>
	<path id="path16838" fill="#5AF9FF" d="M287.282,175.05h7.997v3.998h-7.997V175.05z"/>
	<path id="path16840" fill="#FF9B55" d="M311.281,159.048h8.003v3.999h-8.003V159.048z"/>
	<path id="path16842" fill="#FE4445" d="M311.281,163.047h8.003v3.999h-8.003V163.047z"/>
	<path id="path16852" fill="#4F85FF" d="M319.283,183.047h7.997v3.999h-7.997V183.047z"/>
	<path id="path16854" fill="#47C681" d="M319.283,187.047h7.997v4.004h-7.997V187.047z"/>
	<path id="path16864" fill="#FFFA68" d="M295.28,219.048h8.003v3.999h-8.003V219.048z"/>
	<path id="path16866" fill="#BCBCBC" d="M295.28,223.047h8.003v3.999h-8.003V223.047z"/>
	<path id="path16868" fill="#FFE20C" d="M311.281,207.047h8.003v4.004h-8.003V207.047z"/>
	<path id="path16870" fill="#C143FF" d="M311.281,211.051h8.003v3.999h-8.003V211.051z"/>
	<path id="path16880" fill="#B47CDD" d="M319.283,231.051h7.997v3.999h-7.997V231.051z"/>
	<path id="path16882" fill="#FF70C2" d="M319.283,235.05h7.997v3.998h-7.997V235.05z"/>
	<text transform="matrix(1 0 0 1 288.8635 199.6489)" font-family="'Verdana'" font-size="2">6</text>
	<text transform="matrix(1 0 0 1 290.1335 199.6489)" font-family="'Verdana'" font-size="2">9</text>
	<text transform="matrix(1 0 0 1 291.4031 199.6489)" font-family="'Verdana'" font-size="2">.</text>
	<text transform="matrix(1 0 0 1 292.1296 199.6489)" font-family="'Verdana'" font-size="2">0</text>
	<text transform="matrix(1 0 0 1 293.3992 199.6489)" font-family="'Verdana'" font-size="2">%</text>
	<text transform="matrix(1 0 0 1 295.551 199.6489)" font-family="'Verdana'" font-size="2"> </text>
	<text transform="matrix(1 0 0 1 296.2537 199.6489)" font-family="'Verdana'" font-size="2">/</text>
	<text transform="matrix(1 0 0 1 297.1672 199.6489)" font-family="'Verdana'" font-size="2"> </text>
	<text transform="matrix(1 0 0 1 297.8699 199.6489)" font-family="'Verdana'" font-size="2">1</text>
	<text transform="matrix(1 0 0 1 299.1389 199.6489)" font-family="'Verdana'" font-size="2">0</text>
	<text transform="matrix(1 0 0 1 300.4094 199.6489)" font-family="'Verdana'" font-size="2">0</text>
	<text transform="matrix(1 0 0 1 312.8635 175.6489)" font-family="'Verdana'" font-size="2">5</text>
	<text transform="matrix(1 0 0 1 314.1335 175.6489)" font-family="'Verdana'" font-size="2">0</text>
	<text transform="matrix(1 0 0 1 315.4031 175.6489)" font-family="'Verdana'" font-size="2">.</text>
	<text transform="matrix(1 0 0 1 316.1296 175.6489)" font-family="'Verdana'" font-size="2">0</text>
	<text transform="matrix(1 0 0 1 317.3992 175.6489)" font-family="'Verdana'" font-size="2">%</text>
	<text transform="matrix(1 0 0 1 319.551 175.6489)" font-family="'Verdana'" font-size="2"> </text>
	<text transform="matrix(1 0 0 1 320.2537 175.6489)" font-family="'Verdana'" font-size="2">/</text>
	<text transform="matrix(1 0 0 1 321.1672 175.6489)" font-family="'Verdana'" font-size="2"> </text>
	<text transform="matrix(1 0 0 1 321.8699 175.6489)" font-family="'Verdana'" font-size="2">1</text>
	<text transform="matrix(1 0 0 1 323.1389 175.6489)" font-family="'Verdana'" font-size="2">0</text>
	<text transform="matrix(1 0 0 1 324.4094 175.6489)" font-family="'Verdana'" font-size="2">0</text>
	<text transform="matrix(1 0 0 1 312.8635 223.6489)" font-family="'Verdana'" font-size="2">7</text>
	<text transform="matrix(1 0 0 1 314.1335 223.6489)" font-family="'Verdana'" font-size="2">4</text>
	<text transform="matrix(1 0 0 1 315.4031 223.6489)" font-family="'Verdana'" font-size="2">.</text>
	<text transform="matrix(1 0 0 1 316.1296 223.6489)" font-family="'Verdana'" font-size="2">0</text>
	<text transform="matrix(1 0 0 1 317.3992 223.6489)" font-family="'Verdana'" font-size="2">%</text>
	<text transform="matrix(1 0 0 1 319.551 223.6489)" font-family="'Verdana'" font-size="2"> </text>
	<text transform="matrix(1 0 0 1 320.2537 223.6489)" font-family="'Verdana'" font-size="2">/</text>
	<text transform="matrix(1 0 0 1 321.1672 223.6489)" font-family="'Verdana'" font-size="2"> </text>
	<text transform="matrix(1 0 0 1 321.8699 223.6489)" font-family="'Verdana'" font-size="2">1</text>
	<text transform="matrix(1 0 0 1 323.1389 223.6489)" font-family="'Verdana'" font-size="2">0</text>
	<text transform="matrix(1 0 0 1 324.4094 223.6489)" font-family="'Verdana'" font-size="2">0</text>
	<text transform="matrix(1 0 0 1 250.6453 199.6489)" font-family="'Verdana'" font-size="2">0</text>
	<text transform="matrix(1 0 0 1 266.0085 197.6489)" font-family="'Verdana'" font-size="2">0</text>
	<text transform="matrix(1 0 0 1 267.2781 197.6489)" font-family="'Verdana'" font-size="2">1</text>
	<text transform="matrix(1 0 0 1 266.0085 201.6489)" font-family="'Verdana'" font-size="2">0</text>
	<text transform="matrix(1 0 0 1 267.2781 201.6489)" font-family="'Verdana'" font-size="2">2</text>
	<text transform="matrix(1 0 0 1 289.3713 173.6489)" font-family="'Verdana'" font-size="2">0</text>
	<text transform="matrix(1 0 0 1 290.6414 173.6489)" font-family="'Verdana'" font-size="2">1</text>
	<text transform="matrix(1 0 0 1 291.9109 173.6489)" font-family="'Verdana'" font-size="2">1</text>
	<text transform="matrix(1 0 0 1 289.3713 177.6489)" font-family="'Verdana'" font-size="2">0</text>
	<text transform="matrix(1 0 0 1 290.6414 177.6489)" font-family="'Verdana'" font-size="2">1</text>
	<text transform="matrix(1 0 0 1 291.9109 177.6489)" font-family="'Verdana'" font-size="2">2</text>
	<text transform="matrix(1 0 0 1 312.7346 161.6489)" font-family="'Verdana'" font-size="2">0</text>
	<text transform="matrix(1 0 0 1 314.0046 161.6489)" font-family="'Verdana'" font-size="2">1</text>
	<text transform="matrix(1 0 0 1 315.2742 161.6489)" font-family="'Verdana'" font-size="2">1</text>
	<text transform="matrix(1 0 0 1 316.551 161.6489)" font-family="'Verdana'" font-size="2">1</text>
	<text transform="matrix(1 0 0 1 312.7346 165.6489)" font-family="'Verdana'" font-size="2">0</text>
	<text transform="matrix(1 0 0 1 314.0046 165.6489)" font-family="'Verdana'" font-size="2">1</text>
	<text transform="matrix(1 0 0 1 315.2742 165.6489)" font-family="'Verdana'" font-size="2">1</text>
	<text transform="matrix(1 0 0 1 316.551 165.6489)" font-family="'Verdana'" font-size="2">2</text>
	<text transform="matrix(1 0 0 1 320.7346 185.6489)" font-family="'Verdana'" font-size="2">0</text>
	<text transform="matrix(1 0 0 1 322.0046 185.6489)" font-family="'Verdana'" font-size="2">1</text>
	<text transform="matrix(1 0 0 1 323.2742 185.6489)" font-family="'Verdana'" font-size="2">2</text>
	<text transform="matrix(1 0 0 1 324.551 185.6489)" font-family="'Verdana'" font-size="2">1</text>
	<text transform="matrix(1 0 0 1 320.7346 189.6489)" font-family="'Verdana'" font-size="2">0</text>
	<text transform="matrix(1 0 0 1 322.0046 189.6489)" font-family="'Verdana'" font-size="2">1</text>
	<text transform="matrix(1 0 0 1 323.2742 189.6489)" font-family="'Verdana'" font-size="2">2</text>
	<text transform="matrix(1 0 0 1 324.551 189.6489)" font-family="'Verdana'" font-size="2">2</text>
	<text transform="matrix(1 0 0 1 297.3713 221.6489)" font-family="'Verdana'" font-size="2">0</text>
	<text transform="matrix(1 0 0 1 298.6414 221.6489)" font-family="'Verdana'" font-size="2">2</text>
	<text transform="matrix(1 0 0 1 299.9109 221.6489)" font-family="'Verdana'" font-size="2">1</text>
	<text transform="matrix(1 0 0 1 297.3713 225.6489)" font-family="'Verdana'" font-size="2">0</text>
	<text transform="matrix(1 0 0 1 298.6414 225.6489)" font-family="'Verdana'" font-size="2">2</text>
	<text transform="matrix(1 0 0 1 299.9109 225.6489)" font-family="'Verdana'" font-size="2">2</text>
	<text transform="matrix(1 0 0 1 312.7346 209.6489)" font-family="'Verdana'" font-size="2">0</text>
	<text transform="matrix(1 0 0 1 314.0046 209.6489)" font-family="'Verdana'" font-size="2">2</text>
	<text transform="matrix(1 0 0 1 315.2742 209.6489)" font-family="'Verdana'" font-size="2">1</text>
	<text transform="matrix(1 0 0 1 316.551 209.6489)" font-family="'Verdana'" font-size="2">1</text>
	<text transform="matrix(1 0 0 1 312.7346 213.6489)" font-family="'Verdana'" font-size="2">0</text>
	<text transform="matrix(1 0 0 1 314.0046 213.6489)" font-family="'Verdana'" font-size="2">2</text>
	<text transform="matrix(1 0 0 1 315.2742 213.6489)" font-family="'Verdana'" font-size="2">1</text>
	<text transform="matrix(1 0 0 1 316.551 213.6489)" font-family="'Verdana'" font-size="2">2</text>
	<text transform="matrix(1 0 0 1 320.7346 233.6489)" font-family="'Verdana'" font-size="2">0</text>
	<text transform="matrix(1 0 0 1 322.0046 233.6489)" font-family="'Verdana'" font-size="2">2</text>
	<text transform="matrix(1 0 0 1 323.2742 233.6489)" font-family="'Verdana'" font-size="2">2</text>
	<text transform="matrix(1 0 0 1 324.551 233.6489)" font-family="'Verdana'" font-size="2">1</text>
	<text transform="matrix(1 0 0 1 320.7346 237.6489)" font-family="'Verdana'" font-size="2">0</text>
	<text transform="matrix(1 0 0 1 322.0046 237.6489)" font-family="'Verdana'" font-size="2">2</text>
	<text transform="matrix(1 0 0 1 323.2742 237.6489)" font-family="'Verdana'" font-size="2">2</text>
	<text transform="matrix(1 0 0 1 324.551 237.6489)" font-family="'Verdana'" font-size="2">2</text>
</g>
<text transform="matrix(1 0 0 1 123.884 61.873)" font-family="'ArialMT'" font-size="9.1374">1st div. asymmetric then geometric </text>
<g id="g1018" transform="matrix(1.3563224,0,0,-1.3563224,264.30334,325.08423)">
	<g>
		<g>
			<defs>
				<rect id="SVGID_1_" x="30.204" y="103.696" width="208.586" height="69.793"/>
			</defs>
			<clipPath id="SVGID_2_">
				<use xlink:href="#SVGID_1_"  overflow="visible"/>
			</clipPath>
			<g id="g1020" clip-path="url(#SVGID_2_)">
				<g id="g1026" transform="matrix(113.38535,0,0,37.939649,0,56.058398)">
					
						<image overflow="visible" enable-background="new    " width="1055" height="361" id="image1028" xlink:href="9452B0C5E764034.png"  transform="matrix(9.456921e-04 0 0 -0.0029 0.6873 2.6857)">
					</image>
				</g>
			</g>
		</g>
	</g>
</g>
<g id="g1030" transform="matrix(1.295192,0,0,-1.295192,267.1574,310.75823)">
	<g>
		<g>
			<defs>
				<rect id="SVGID_3_" x="43.065" y="67.332" width="190.208" height="63.645"/>
			</defs>
			<clipPath id="SVGID_4_">
				<use xlink:href="#SVGID_3_"  overflow="visible"/>
			</clipPath>
			<g id="g1032" clip-path="url(#SVGID_4_)">
				<g id="g1038" transform="matrix(113.38535,0,0,37.939649,0,13.618945)">
					
						<image overflow="visible" enable-background="new    " width="1055" height="356" id="image1040" xlink:href="9452B0C5E764033.png"  transform="matrix(9.470620e-04 0 0 -0.0029 0.719 2.7583)">
					</image>
				</g>
			</g>
		</g>
	</g>
</g>
<g id="g1042" transform="matrix(158.27207,0,0,-52.959103,264.30334,209.06011)">
	
		<image overflow="visible" enable-background="new    " width="1058" height="357" id="image1044" xlink:href="9452B0C5E76403C.png"  transform="matrix(9.443762e-04 0 0 -0.0029 0.6671 2.6318)">
	</image>
</g>
<text transform="matrix(1 0 0 1 447.2439 52.3169)" font-family="'ArialMT'" font-size="9.1374">Random with equal areas</text>
<image overflow="visible" enable-background="new    " width="990" height="354" id="image4466" xlink:href="9452B0C5E76403E.jpg"  transform="matrix(0.1541 0 0 0.1541 41.9631 168.9219)">
</image>
<image overflow="visible" enable-background="new    " width="992" height="361" id="image4638" xlink:href="9452B0C5E764032.jpg"  transform="matrix(0.1533 0 0 0.1533 42.7614 125.3447)">
</image>
<image overflow="visible" enable-background="new    " width="986" height="360" id="image4369" xlink:href="9452B0C5E764033.jpg"  transform="matrix(0.157 0 0 0.157 40.8996 79.2217)">
</image>
<text transform="matrix(1 0 0 1 378.7585 52.3169)" font-family="'Helvetica'" font-size="12">B</text>
<text transform="matrix(1 0 0 1 33.9792 61.873)" font-family="'Helvetica'" font-size="12">A</text>
</svg>
