<?xml version="1.0" encoding="utf-8"?>
<!-- Generator: Adobe Illustrator 16.0.4, SVG Export Plug-In . SVG Version: 6.00 Build 0)  -->
<!DOCTYPE svg PUBLIC "-//W3C//DTD SVG 1.1//EN" "http://www.w3.org/Graphics/SVG/1.1/DTD/svg11.dtd">
<svg version="1.1"
	 id="svg2" xmlns:dc="http://purl.org/dc/elements/1.1/" xmlns:cc="http://creativecommons.org/ns#" xmlns:rdf="http://www.w3.org/1999/02/22-rdf-syntax-ns#" xmlns:svg="http://www.w3.org/2000/svg" xmlns:sodipodi="http://sodipodi.sourceforge.net/DTD/sodipodi-0.dtd" xmlns:inkscape="http://www.inkscape.org/namespaces/inkscape" sodipodi:docname="Model_visu.svg" inkscape:version="0.91 r"
	 xmlns="http://www.w3.org/2000/svg" xmlns:xlink="http://www.w3.org/1999/xlink" x="0px" y="0px" width="414.014px"
	 height="295.199px" viewBox="0 0 414.014 295.199" enable-background="new 0 0 414.014 295.199" xml:space="preserve">
<sodipodi:namedview  inkscape:cy="160.40671" inkscape:cx="325.14681" inkscape:zoom="2.2612184" showgrid="false" id="namedview72" guidetolerance="10" gridtolerance="10" objecttolerance="10" borderopacity="1" bordercolor="#666666" pagecolor="#ffffff" inkscape:current-layer="svg2" inkscape:window-maximized="1" inkscape:window-y="-3" inkscape:pageopacity="0" inkscape:window-x="-3" inkscape:window-height="1025" inkscape:window-width="1920" inkscape:pageshadow="2">
	</sodipodi:namedview>
<text transform="matrix(1 0 0 1 214.2429 161.0935)" font-family="'ArialMT'" font-size="9.1374">Basal growth</text>
<image overflow="visible" enable-background="new    " width="982" height="1050" id="image4357" xlink:href="10AEC29E8F0D7037.jpeg"  transform="matrix(0.133 0 0 0.133 -2.441406e-04 3.9988)">
</image>
<text transform="matrix(1 0 0 1 44.0281 7.5154)" font-family="'ArialMT'" font-size="9.1374">Geometric</text>
<g id="g46" transform="matrix(1.1524482,0,0,-1.1524482,-35.893249,148.4111)">
	<g>
		<defs>
			<rect id="SVGID_1_" x="182.429" y="81.075" width="130.671" height="43.724"/>
		</defs>
		<clipPath id="SVGID_2_">
			<use xlink:href="#SVGID_1_"  overflow="visible"/>
		</clipPath>
		<g id="g48" clip-path="url(#SVGID_2_)">
			<g id="g54" transform="matrix(113.38535,0,0,37.939649,153.37402,83.987109)">
				
					<image overflow="visible" enable-background="new    " width="1046" height="350" id="image56" xlink:href="10AEC29E8F0D7035.png"  transform="matrix(9.560230e-04 0 0 -0.0029 0.3325 0.9995)">
				</image>
			</g>
		</g>
	</g>
</g>
<g id="g58" transform="matrix(1.1524483,0,0,-1.1524483,-35.893262,143.84944)">
	<g>
		<defs>
			<rect id="SVGID_3_" x="182.429" y="0.286" width="130.671" height="43.723"/>
		</defs>
		<clipPath id="SVGID_4_">
			<use xlink:href="#SVGID_3_"  overflow="visible"/>
		</clipPath>
		<g id="g60" clip-path="url(#SVGID_4_)">
			<g id="g66" transform="matrix(113.38535,0,0,37.939649,153.37402,3.19707)">
				
					<image overflow="visible" enable-background="new    " width="1046" height="350" id="image68" xlink:href="10AEC29E8F0D703B.png"  transform="matrix(9.560231e-04 0 0 -0.0029 0.3325 0.9995)">
				</image>
			</g>
		</g>
	</g>
</g>
<g id="g70" transform="matrix(1.1208296,0,0,-1.1208296,-29.251226,145.89849)">
	<g>
		<defs>
			<rect id="SVGID_5_" x="185.286" y="39.735" width="127.085" height="42.523"/>
		</defs>
		<clipPath id="SVGID_6_">
			<use xlink:href="#SVGID_5_"  overflow="visible"/>
		</clipPath>
		<g id="g72" clip-path="url(#SVGID_6_)">
			<g id="g78" transform="matrix(113.38535,0,0,37.939649,153.37402,42.047168)">
				
					<image overflow="visible" enable-background="new    " width="1046" height="350" id="image80" xlink:href="10AEC29E8F0D703D.png"  transform="matrix(9.560225e-04 0 0 -0.0029 0.3419 0.9995)">
				</image>
			</g>
		</g>
	</g>
</g>
<text transform="matrix(1 0 0 1 232.2986 7.9197)" font-family="'ArialMT'" font-size="9.1374">Random</text>
<image overflow="visible" enable-background="new    " width="918" height="350" id="image4320" xlink:href="10AEC29E8F0D703F.jpg"  transform="matrix(0.1387 0 0 0.1387 26.0432 156.7185)">
</image>
<image overflow="visible" enable-background="new    " width="918" height="350" id="image4398" xlink:href="10AEC29E8F0D703D.jpg"  transform="matrix(0.134 0 0 0.1341 27.0705 204.908)">
</image>
<image overflow="visible" enable-background="new    " width="918" height="350" id="image4460" xlink:href="10AEC29E8F0D703B.jpg"  transform="matrix(0.1326 0 0 0.1326 27.0705 248.5994)">
</image>
<text transform="matrix(1 0 0 1 26.8283 160.2068)" font-family="'ArialMT'" font-size="9.1374">1st div. random then geometric</text>
<g id="g4307" transform="translate(0,2)">
	<g>
		<defs>
			<rect id="SVGID_7_" x="175.35" y="162.322" width="130.691" height="44.104"/>
		</defs>
		<clipPath id="SVGID_8_">
			<use xlink:href="#SVGID_7_"  overflow="visible"/>
		</clipPath>
		<g clip-path="url(#SVGID_8_)" enable-background="new    ">
			
				<image overflow="visible" width="982" height="1050" id="image4276" xlink:href="10AEC29E8F0D7035.jpg"  transform="matrix(0.1601 0 0 0.1601 161.8034 154.8533)">
			</image>
		</g>
	</g>
	<g>
		<defs>
			<rect id="SVGID_9_" x="176.084" y="250.032" width="129.225" height="43.608"/>
		</defs>
		<clipPath id="SVGID_10_">
			<use xlink:href="#SVGID_9_"  overflow="visible"/>
		</clipPath>
		<g clip-path="url(#SVGID_10_)" enable-background="new    ">
			
				<image overflow="visible" width="982" height="1050" id="image4285" xlink:href="10AEC29E8F0D7037.jpg"  transform="matrix(0.1583 0 0 0.1583 162.3904 131.0222)">
			</image>
		</g>
	</g>
	<g>
		<defs>
			<rect id="SVGID_11_" x="176.683" y="208.221" width="128.025" height="43.204"/>
		</defs>
		<clipPath id="SVGID_12_">
			<use xlink:href="#SVGID_11_"  overflow="visible"/>
		</clipPath>
		<g clip-path="url(#SVGID_12_)" enable-background="new    ">
			
				<image overflow="visible" width="982" height="1050" id="image4287" xlink:href="694220EAACF137F4.jpg"  transform="matrix(0.1569 0 0 0.1569 161.7722 145.6433)">
			</image>
		</g>
	</g>
</g>
<text transform="matrix(1 0 0 1 7.1277 11.0413)" font-family="'Helvetica'" font-size="12">A</text>
<text transform="matrix(1 0 0 1 165.8484 11.0413)" font-family="'Helvetica'" font-size="12">B</text>
<text transform="matrix(1 0 0 1 7.1277 160.2068)" font-family="'Helvetica'" font-size="12">C</text>
<text transform="matrix(1 0 0 1 165.8484 161.0935)" font-family="'Helvetica'" font-size="12">D</text>
</svg>
