<?xml version="1.0" encoding="utf-8"?>
<!-- Generator: Adobe Illustrator 16.0.4, SVG Export Plug-In . SVG Version: 6.00 Build 0)  -->
<!DOCTYPE svg PUBLIC "-//W3C//DTD SVG 1.1//EN" "http://www.w3.org/Graphics/SVG/1.1/DTD/svg11.dtd">
<svg version="1.1"
	 id="svg2" xmlns:dc="http://purl.org/dc/elements/1.1/" xmlns:cc="http://creativecommons.org/ns#" xmlns:rdf="http://www.w3.org/1999/02/22-rdf-syntax-ns#" xmlns:svg="http://www.w3.org/2000/svg" xmlns:sodipodi="http://sodipodi.sourceforge.net/DTD/sodipodi-0.dtd" xmlns:inkscape="http://www.inkscape.org/namespaces/inkscape" sodipodi:docname="Model_divisions.svg" inkscape:version="0.91 r"
	 xmlns="http://www.w3.org/2000/svg" xmlns:xlink="http://www.w3.org/1999/xlink" x="0px" y="0px" width="841.89px"
	 height="595.275px" viewBox="-246.474 -195.169 841.89 595.275" enable-background="new -246.474 -195.169 841.89 595.275"
	 xml:space="preserve">
<sodipodi:namedview  inkscape:cy="67.409627" inkscape:cx="238.46949" inkscape:zoom="1.6049335" showgrid="false" id="namedview447" guidetolerance="10" gridtolerance="10" objecttolerance="10" borderopacity="1" bordercolor="#666666" pagecolor="#ffffff" inkscape:current-layer="g34553" inkscape:window-maximized="1" inkscape:window-y="-3" inkscape:pageopacity="0" inkscape:window-x="-3" inkscape:window-height="1025" inkscape:window-width="1920" inkscape:pageshadow="2">
	</sodipodi:namedview>
<g id="g34001" transform="translate(-30,-68)">
	<path id="path17456" fill="#FFFFFF" stroke="#00FF00" stroke-width="0.5" d="M117.899,12.502h17.5v57.5h-17.5V12.502z"/>
	<path id="path17460" fill="#FFFFFF" stroke="#00FF00" stroke-width="0.5" d="M141.899,0.501h17.5v33.501h-17.5V0.501z"/>
	<path id="path17472" fill="#FFFFFF" stroke="#00FF00" stroke-width="0.5" d="M141.899,48.503h17.5v33.502h-17.5V48.503z"/>
	<path id="path17484" fill="none" stroke="#666666" stroke-width="0.375" d="M82.645,41.252h16.002"/>
	<path id="path17488" fill="none" stroke="#666666" stroke-width="0.375" d="M98.647,41.252l23.998-23.999"/>
	<path id="path17492" fill="none" stroke="#666666" stroke-width="0.375" d="M98.647,41.252l32.002,23.999"/>
	<path id="path17496" fill="none" stroke="#666666" stroke-width="0.375" d="M122.645,17.253l24.004-12.002"/>
	<path id="path17500" fill="none" stroke="#666666" stroke-width="0.375" d="M122.645,17.253l32.003,11.998"/>
	<path id="path17520" fill="none" stroke="#666666" stroke-width="0.375" d="M130.649,65.251l16-11.996"/>
	<path id="path17524" fill="none" stroke="#666666" stroke-width="0.375" d="M130.649,65.251l23.999,12.002"/>
	<path id="path17542" fill="#EDFFC5" d="M78.647,39.25h8.002v4.004h-8.002V39.25z"/>
	<path id="path17544" fill="#FD0304" d="M94.648,37.254h7.997v3.999h-7.997V37.254z"/>
	<path id="path17546" fill="#7DE603" d="M94.648,41.253h7.997v3.998h-7.997V41.253z"/>
	<path id="path17548" fill="#FFB2E6" d="M118.647,13.254h8.002v3.999h-8.002V13.254z"/>
	<path id="path17550" fill="#5AF9FF" d="M118.647,17.254h8.002v3.999h-8.002V17.254z"/>
	<path id="path17552" fill="#FF9B55" d="M142.645,1.253h8.003v3.998h-8.003V1.253z"/>
	<path id="path17554" fill="#FE4445" d="M142.645,5.251h8.003V9.25h-8.003V5.251z"/>
	<path id="path17564" fill="#4F85FF" d="M150.649,25.251h7.998v3.999h-7.998V25.251z"/>
	<path id="path17566" fill="#47C681" d="M150.649,29.25h7.998v4.004h-7.998V29.25z"/>
	<path id="path17576" fill="#FFFA68" d="M126.649,61.253h7.998v3.998h-7.998V61.253z"/>
	<path id="path17578" fill="#BCBCBC" d="M126.649,65.251h7.998v3.999h-7.998V65.251z"/>
	<path id="path17580" fill="#FFE20C" d="M142.645,49.25h8.003v4.004h-8.003V49.25z"/>
	<path id="path17582" fill="#C143FF" d="M142.645,53.254h8.003v3.999h-8.003V53.254z"/>
	<path id="path17592" fill="#B47CDD" d="M150.649,73.254h7.998v3.999h-7.998V73.254z"/>
	<path id="path17594" fill="#FF70C2" d="M150.649,77.254h7.998v3.999h-7.998V77.254z"/>
	<text transform="matrix(1 0 0 1 120.2292 41.8523)" font-family="'Verdana'" font-size="2">7</text>
	<text transform="matrix(1 0 0 1 121.4993 41.8523)" font-family="'Verdana'" font-size="2">8</text>
	<text transform="matrix(1 0 0 1 122.7693 41.8523)" font-family="'Verdana'" font-size="2">.</text>
	<text transform="matrix(1 0 0 1 123.4954 41.8523)" font-family="'Verdana'" font-size="2">0</text>
	<text transform="matrix(1 0 0 1 124.7654 41.8523)" font-family="'Verdana'" font-size="2">%</text>
	<text transform="matrix(1 0 0 1 126.9172 41.8523)" font-family="'Verdana'" font-size="2"> </text>
	<text transform="matrix(1 0 0 1 127.6194 41.8523)" font-family="'Verdana'" font-size="2">/</text>
	<text transform="matrix(1 0 0 1 128.533 41.8523)" font-family="'Verdana'" font-size="2"> </text>
	<text transform="matrix(1 0 0 1 129.2351 41.8523)" font-family="'Verdana'" font-size="2">1</text>
	<text transform="matrix(1 0 0 1 130.5051 41.8523)" font-family="'Verdana'" font-size="2">0</text>
	<text transform="matrix(1 0 0 1 131.7751 41.8523)" font-family="'Verdana'" font-size="2">0</text>
	<text transform="matrix(1 0 0 1 144.866 17.8523)" font-family="'Verdana'" font-size="2">6</text>
	<text transform="matrix(1 0 0 1 146.136 17.8523)" font-family="'Verdana'" font-size="2">5</text>
	<text transform="matrix(1 0 0 1 147.406 17.8523)" font-family="'Verdana'" font-size="2">.</text>
	<text transform="matrix(1 0 0 1 148.1321 17.8523)" font-family="'Verdana'" font-size="2">9</text>
	<text transform="matrix(1 0 0 1 149.4021 17.8523)" font-family="'Verdana'" font-size="2">%</text>
	<text transform="matrix(1 0 0 1 151.554 17.8523)" font-family="'Verdana'" font-size="2"> </text>
	<text transform="matrix(1 0 0 1 152.2561 17.8523)" font-family="'Verdana'" font-size="2">/</text>
	<text transform="matrix(1 0 0 1 153.1702 17.8523)" font-family="'Verdana'" font-size="2"> </text>
	<text transform="matrix(1 0 0 1 153.8718 17.8523)" font-family="'Verdana'" font-size="2">9</text>
	<text transform="matrix(1 0 0 1 155.1418 17.8523)" font-family="'Verdana'" font-size="2">7</text>
	<text transform="matrix(1 0 0 1 144.866 65.8523)" font-family="'Verdana'" font-size="2">5</text>
	<text transform="matrix(1 0 0 1 146.136 65.8523)" font-family="'Verdana'" font-size="2">7</text>
	<text transform="matrix(1 0 0 1 147.406 65.8523)" font-family="'Verdana'" font-size="2">.</text>
	<text transform="matrix(1 0 0 1 148.1321 65.8523)" font-family="'Verdana'" font-size="2">9</text>
	<text transform="matrix(1 0 0 1 149.4021 65.8523)" font-family="'Verdana'" font-size="2">%</text>
	<text transform="matrix(1 0 0 1 151.554 65.8523)" font-family="'Verdana'" font-size="2"> </text>
	<text transform="matrix(1 0 0 1 152.2561 65.8523)" font-family="'Verdana'" font-size="2">/</text>
	<text transform="matrix(1 0 0 1 153.1702 65.8523)" font-family="'Verdana'" font-size="2"> </text>
	<text transform="matrix(1 0 0 1 153.8718 65.8523)" font-family="'Verdana'" font-size="2">8</text>
	<text transform="matrix(1 0 0 1 155.1418 65.8523)" font-family="'Verdana'" font-size="2">8</text>
	<text transform="matrix(1 0 0 1 82.0105 41.8523)" font-family="'Verdana'" font-size="2">0</text>
	<text transform="matrix(1 0 0 1 97.3738 39.8523)" font-family="'Verdana'" font-size="2">0</text>
	<text transform="matrix(1 0 0 1 98.6438 39.8523)" font-family="'Verdana'" font-size="2">1</text>
	<text transform="matrix(1 0 0 1 97.3738 43.8523)" font-family="'Verdana'" font-size="2">0</text>
	<text transform="matrix(1 0 0 1 98.6438 43.8523)" font-family="'Verdana'" font-size="2">2</text>
	<text transform="matrix(1 0 0 1 120.7371 15.8523)" font-family="'Verdana'" font-size="2">0</text>
	<text transform="matrix(1 0 0 1 122.0071 15.8523)" font-family="'Verdana'" font-size="2">1</text>
	<text transform="matrix(1 0 0 1 123.2771 15.8523)" font-family="'Verdana'" font-size="2">1</text>
	<text transform="matrix(1 0 0 1 120.7371 19.8523)" font-family="'Verdana'" font-size="2">0</text>
	<text transform="matrix(1 0 0 1 122.0071 19.8523)" font-family="'Verdana'" font-size="2">1</text>
	<text transform="matrix(1 0 0 1 123.2771 19.8523)" font-family="'Verdana'" font-size="2">2</text>
	<text transform="matrix(1 0 0 1 144.1003 3.8523)" font-family="'Verdana'" font-size="2">0</text>
	<text transform="matrix(1 0 0 1 145.3704 3.8523)" font-family="'Verdana'" font-size="2">1</text>
	<text transform="matrix(1 0 0 1 146.6404 3.8523)" font-family="'Verdana'" font-size="2">1</text>
	<text transform="matrix(1 0 0 1 147.9163 3.8523)" font-family="'Verdana'" font-size="2">1</text>
	<text transform="matrix(1 0 0 1 144.1003 7.8523)" font-family="'Verdana'" font-size="2">0</text>
	<text transform="matrix(1 0 0 1 145.3704 7.8523)" font-family="'Verdana'" font-size="2">1</text>
	<text transform="matrix(1 0 0 1 146.6404 7.8523)" font-family="'Verdana'" font-size="2">1</text>
	<text transform="matrix(1 0 0 1 147.9163 7.8523)" font-family="'Verdana'" font-size="2">2</text>
	<text transform="matrix(1 0 0 1 152.1003 27.8523)" font-family="'Verdana'" font-size="2">0</text>
	<text transform="matrix(1 0 0 1 153.3704 27.8523)" font-family="'Verdana'" font-size="2">1</text>
	<text transform="matrix(1 0 0 1 154.6404 27.8523)" font-family="'Verdana'" font-size="2">2</text>
	<text transform="matrix(1 0 0 1 155.9163 27.8523)" font-family="'Verdana'" font-size="2">1</text>
	<text transform="matrix(1 0 0 1 152.1003 31.8523)" font-family="'Verdana'" font-size="2">0</text>
	<text transform="matrix(1 0 0 1 153.3704 31.8523)" font-family="'Verdana'" font-size="2">1</text>
	<text transform="matrix(1 0 0 1 154.6404 31.8523)" font-family="'Verdana'" font-size="2">2</text>
	<text transform="matrix(1 0 0 1 155.9163 31.8523)" font-family="'Verdana'" font-size="2">2</text>
	<text transform="matrix(1 0 0 1 128.7371 63.8523)" font-family="'Verdana'" font-size="2">0</text>
	<text transform="matrix(1 0 0 1 130.0071 63.8523)" font-family="'Verdana'" font-size="2">2</text>
	<text transform="matrix(1 0 0 1 131.2771 63.8523)" font-family="'Verdana'" font-size="2">1</text>
	<text transform="matrix(1 0 0 1 128.7371 67.8523)" font-family="'Verdana'" font-size="2">0</text>
	<text transform="matrix(1 0 0 1 130.0071 67.8523)" font-family="'Verdana'" font-size="2">2</text>
	<text transform="matrix(1 0 0 1 131.2771 67.8523)" font-family="'Verdana'" font-size="2">2</text>
	<text transform="matrix(1 0 0 1 144.1003 51.8523)" font-family="'Verdana'" font-size="2">0</text>
	<text transform="matrix(1 0 0 1 145.3704 51.8523)" font-family="'Verdana'" font-size="2">2</text>
	<text transform="matrix(1 0 0 1 146.6404 51.8523)" font-family="'Verdana'" font-size="2">1</text>
	<text transform="matrix(1 0 0 1 147.9163 51.8523)" font-family="'Verdana'" font-size="2">1</text>
	<text transform="matrix(1 0 0 1 144.1003 55.8523)" font-family="'Verdana'" font-size="2">0</text>
	<text transform="matrix(1 0 0 1 145.3704 55.8523)" font-family="'Verdana'" font-size="2">2</text>
	<text transform="matrix(1 0 0 1 146.6404 55.8523)" font-family="'Verdana'" font-size="2">1</text>
	<text transform="matrix(1 0 0 1 147.9163 55.8523)" font-family="'Verdana'" font-size="2">2</text>
	<text transform="matrix(1 0 0 1 152.1003 75.8523)" font-family="'Verdana'" font-size="2">0</text>
	<text transform="matrix(1 0 0 1 153.3704 75.8523)" font-family="'Verdana'" font-size="2">2</text>
	<text transform="matrix(1 0 0 1 154.6404 75.8523)" font-family="'Verdana'" font-size="2">2</text>
	<text transform="matrix(1 0 0 1 155.9163 75.8523)" font-family="'Verdana'" font-size="2">1</text>
	<text transform="matrix(1 0 0 1 152.1003 79.8523)" font-family="'Verdana'" font-size="2">0</text>
	<text transform="matrix(1 0 0 1 153.3704 79.8523)" font-family="'Verdana'" font-size="2">2</text>
	<text transform="matrix(1 0 0 1 154.6404 79.8523)" font-family="'Verdana'" font-size="2">2</text>
	<text transform="matrix(1 0 0 1 155.9163 79.8523)" font-family="'Verdana'" font-size="2">2</text>
</g>
<g id="g34069" transform="translate(-26,-65.81102)">
	<path id="path16744" fill="#FFFFFF" stroke="#00FF00" stroke-width="0.5" d="M452.53,13.299h17.5v57.5h-17.5V13.299z"/>
	<path id="path16748" fill="#FFFFFF" stroke="#00FF00" stroke-width="0.5" d="M476.533,1.296h17.5v33.502h-17.5V1.296z"/>
	<path id="path16760" fill="#FFFFFF" stroke="#00FF00" stroke-width="0.5" d="M476.533,49.299h17.5V82.8h-17.5V49.299z"/>
	<path id="path16772" fill="none" stroke="#666666" stroke-width="0.375" d="M417.281,42.049h16.002"/>
	<path id="path16776" fill="none" stroke="#666666" stroke-width="0.375" d="M433.282,42.049l23.998-24"/>
	<path id="path16780" fill="none" stroke="#666666" stroke-width="0.375" d="M433.282,42.049l32.001,23.999"/>
	<path id="path16784" fill="none" stroke="#666666" stroke-width="0.375" d="M457.281,18.049L481.28,6.048"/>
	<path id="path16788" fill="none" stroke="#666666" stroke-width="0.375" d="M457.281,18.049l32.003,11.997"/>
	<path id="path16808" fill="none" stroke="#666666" stroke-width="0.375" d="M465.283,66.048L481.28,54.05"/>
	<path id="path16812" fill="none" stroke="#666666" stroke-width="0.375" d="M465.283,66.048l24,12.001"/>
	<path id="path16830" fill="#EDFFC5" d="M413.282,40.047h7.997v4.004h-7.997V40.047z"/>
	<path id="path16832" fill="#FD0304" d="M429.283,38.05h7.997v3.998h-7.997V38.05z"/>
	<path id="path16834" fill="#7DE603" d="M429.283,42.048h7.997v3.999h-7.997V42.048z"/>
	<path id="path16836" fill="#FFB2E6" d="M453.282,14.051h7.997v3.999h-7.997V14.051z"/>
	<path id="path16838" fill="#5AF9FF" d="M453.282,18.05h7.997v3.998h-7.997V18.05z"/>
	<path id="path16840" fill="#FF9B55" d="M477.281,2.048h8.003v3.999h-8.003V2.048z"/>
	<path id="path16842" fill="#FE4445" d="M477.281,6.047h8.003v3.999h-8.003V6.047z"/>
	<path id="path16852" fill="#4F85FF" d="M485.283,26.047h7.997v3.999h-7.997V26.047z"/>
	<path id="path16854" fill="#47C681" d="M485.283,30.047h7.997v4.004h-7.997V30.047z"/>
	<path id="path16864" fill="#FFFA68" d="M461.28,62.048h8.003v3.999h-8.003V62.048z"/>
	<path id="path16866" fill="#BCBCBC" d="M461.28,66.047h8.003v3.999h-8.003V66.047z"/>
	<path id="path16868" fill="#FFE20C" d="M477.281,50.047h8.003v4.004h-8.003V50.047z"/>
	<path id="path16870" fill="#C143FF" d="M477.281,54.051h8.003v3.999h-8.003V54.051z"/>
	<path id="path16880" fill="#B47CDD" d="M485.283,74.051h7.997v3.999h-7.997V74.051z"/>
	<path id="path16882" fill="#FF70C2" d="M485.283,78.05h7.997v3.998h-7.997V78.05z"/>
	<text transform="matrix(1 0 0 1 454.8635 42.6487)" font-family="'Verdana'" font-size="2">6</text>
	<text transform="matrix(1 0 0 1 456.1331 42.6487)" font-family="'Verdana'" font-size="2">9</text>
	<text transform="matrix(1 0 0 1 457.4026 42.6487)" font-family="'Verdana'" font-size="2">.</text>
	<text transform="matrix(1 0 0 1 458.1292 42.6487)" font-family="'Verdana'" font-size="2">0</text>
	<text transform="matrix(1 0 0 1 459.3987 42.6487)" font-family="'Verdana'" font-size="2">%</text>
	<text transform="matrix(1 0 0 1 461.551 42.6487)" font-family="'Verdana'" font-size="2"> </text>
	<text transform="matrix(1 0 0 1 462.2532 42.6487)" font-family="'Verdana'" font-size="2">/</text>
	<text transform="matrix(1 0 0 1 463.1672 42.6487)" font-family="'Verdana'" font-size="2"> </text>
	<text transform="matrix(1 0 0 1 463.8694 42.6487)" font-family="'Verdana'" font-size="2">1</text>
	<text transform="matrix(1 0 0 1 465.1389 42.6487)" font-family="'Verdana'" font-size="2">0</text>
	<text transform="matrix(1 0 0 1 466.4094 42.6487)" font-family="'Verdana'" font-size="2">0</text>
	<text transform="matrix(1 0 0 1 478.8635 18.6487)" font-family="'Verdana'" font-size="2">5</text>
	<text transform="matrix(1 0 0 1 480.1331 18.6487)" font-family="'Verdana'" font-size="2">0</text>
	<text transform="matrix(1 0 0 1 481.4026 18.6487)" font-family="'Verdana'" font-size="2">.</text>
	<text transform="matrix(1 0 0 1 482.1292 18.6487)" font-family="'Verdana'" font-size="2">0</text>
	<text transform="matrix(1 0 0 1 483.3987 18.6487)" font-family="'Verdana'" font-size="2">%</text>
	<text transform="matrix(1 0 0 1 485.551 18.6487)" font-family="'Verdana'" font-size="2"> </text>
	<text transform="matrix(1 0 0 1 486.2532 18.6487)" font-family="'Verdana'" font-size="2">/</text>
	<text transform="matrix(1 0 0 1 487.1672 18.6487)" font-family="'Verdana'" font-size="2"> </text>
	<text transform="matrix(1 0 0 1 487.8694 18.6487)" font-family="'Verdana'" font-size="2">1</text>
	<text transform="matrix(1 0 0 1 489.1389 18.6487)" font-family="'Verdana'" font-size="2">0</text>
	<text transform="matrix(1 0 0 1 490.4094 18.6487)" font-family="'Verdana'" font-size="2">0</text>
	<text transform="matrix(1 0 0 1 478.8635 66.6487)" font-family="'Verdana'" font-size="2">7</text>
	<text transform="matrix(1 0 0 1 480.1331 66.6487)" font-family="'Verdana'" font-size="2">4</text>
	<text transform="matrix(1 0 0 1 481.4026 66.6487)" font-family="'Verdana'" font-size="2">.</text>
	<text transform="matrix(1 0 0 1 482.1292 66.6487)" font-family="'Verdana'" font-size="2">0</text>
	<text transform="matrix(1 0 0 1 483.3987 66.6487)" font-family="'Verdana'" font-size="2">%</text>
	<text transform="matrix(1 0 0 1 485.551 66.6487)" font-family="'Verdana'" font-size="2"> </text>
	<text transform="matrix(1 0 0 1 486.2532 66.6487)" font-family="'Verdana'" font-size="2">/</text>
	<text transform="matrix(1 0 0 1 487.1672 66.6487)" font-family="'Verdana'" font-size="2"> </text>
	<text transform="matrix(1 0 0 1 487.8694 66.6487)" font-family="'Verdana'" font-size="2">1</text>
	<text transform="matrix(1 0 0 1 489.1389 66.6487)" font-family="'Verdana'" font-size="2">0</text>
	<text transform="matrix(1 0 0 1 490.4094 66.6487)" font-family="'Verdana'" font-size="2">0</text>
	<text transform="matrix(1 0 0 1 416.6448 42.6487)" font-family="'Verdana'" font-size="2">0</text>
	<text transform="matrix(1 0 0 1 432.0081 40.6487)" font-family="'Verdana'" font-size="2">0</text>
	<text transform="matrix(1 0 0 1 433.2776 40.6487)" font-family="'Verdana'" font-size="2">1</text>
	<text transform="matrix(1 0 0 1 432.0081 44.6487)" font-family="'Verdana'" font-size="2">0</text>
	<text transform="matrix(1 0 0 1 433.2776 44.6487)" font-family="'Verdana'" font-size="2">2</text>
	<text transform="matrix(1 0 0 1 455.3713 16.6487)" font-family="'Verdana'" font-size="2">0</text>
	<text transform="matrix(1 0 0 1 456.6409 16.6487)" font-family="'Verdana'" font-size="2">1</text>
	<text transform="matrix(1 0 0 1 457.9104 16.6487)" font-family="'Verdana'" font-size="2">1</text>
	<text transform="matrix(1 0 0 1 455.3713 20.6487)" font-family="'Verdana'" font-size="2">0</text>
	<text transform="matrix(1 0 0 1 456.6409 20.6487)" font-family="'Verdana'" font-size="2">1</text>
	<text transform="matrix(1 0 0 1 457.9104 20.6487)" font-family="'Verdana'" font-size="2">2</text>
	<text transform="matrix(1 0 0 1 478.7346 4.6487)" font-family="'Verdana'" font-size="2">0</text>
	<text transform="matrix(1 0 0 1 480.0042 4.6487)" font-family="'Verdana'" font-size="2">1</text>
	<text transform="matrix(1 0 0 1 481.2737 4.6487)" font-family="'Verdana'" font-size="2">1</text>
	<text transform="matrix(1 0 0 1 482.551 4.6487)" font-family="'Verdana'" font-size="2">1</text>
	<text transform="matrix(1 0 0 1 478.7346 8.6487)" font-family="'Verdana'" font-size="2">0</text>
	<text transform="matrix(1 0 0 1 480.0042 8.6487)" font-family="'Verdana'" font-size="2">1</text>
	<text transform="matrix(1 0 0 1 481.2737 8.6487)" font-family="'Verdana'" font-size="2">1</text>
	<text transform="matrix(1 0 0 1 482.551 8.6487)" font-family="'Verdana'" font-size="2">2</text>
	<text transform="matrix(1 0 0 1 486.7346 28.6487)" font-family="'Verdana'" font-size="2">0</text>
	<text transform="matrix(1 0 0 1 488.0042 28.6487)" font-family="'Verdana'" font-size="2">1</text>
	<text transform="matrix(1 0 0 1 489.2737 28.6487)" font-family="'Verdana'" font-size="2">2</text>
	<text transform="matrix(1 0 0 1 490.551 28.6487)" font-family="'Verdana'" font-size="2">1</text>
	<text transform="matrix(1 0 0 1 486.7346 32.6487)" font-family="'Verdana'" font-size="2">0</text>
	<text transform="matrix(1 0 0 1 488.0042 32.6487)" font-family="'Verdana'" font-size="2">1</text>
	<text transform="matrix(1 0 0 1 489.2737 32.6487)" font-family="'Verdana'" font-size="2">2</text>
	<text transform="matrix(1 0 0 1 490.551 32.6487)" font-family="'Verdana'" font-size="2">2</text>
	<text transform="matrix(1 0 0 1 463.3713 64.6487)" font-family="'Verdana'" font-size="2">0</text>
	<text transform="matrix(1 0 0 1 464.6409 64.6487)" font-family="'Verdana'" font-size="2">2</text>
	<text transform="matrix(1 0 0 1 465.9104 64.6487)" font-family="'Verdana'" font-size="2">1</text>
	<text transform="matrix(1 0 0 1 463.3713 68.6487)" font-family="'Verdana'" font-size="2">0</text>
	<text transform="matrix(1 0 0 1 464.6409 68.6487)" font-family="'Verdana'" font-size="2">2</text>
	<text transform="matrix(1 0 0 1 465.9104 68.6487)" font-family="'Verdana'" font-size="2">2</text>
	<text transform="matrix(1 0 0 1 478.7346 52.6487)" font-family="'Verdana'" font-size="2">0</text>
	<text transform="matrix(1 0 0 1 480.0042 52.6487)" font-family="'Verdana'" font-size="2">2</text>
	<text transform="matrix(1 0 0 1 481.2737 52.6487)" font-family="'Verdana'" font-size="2">1</text>
	<text transform="matrix(1 0 0 1 482.551 52.6487)" font-family="'Verdana'" font-size="2">1</text>
	<text transform="matrix(1 0 0 1 478.7346 56.6487)" font-family="'Verdana'" font-size="2">0</text>
	<text transform="matrix(1 0 0 1 480.0042 56.6487)" font-family="'Verdana'" font-size="2">2</text>
	<text transform="matrix(1 0 0 1 481.2737 56.6487)" font-family="'Verdana'" font-size="2">1</text>
	<text transform="matrix(1 0 0 1 482.551 56.6487)" font-family="'Verdana'" font-size="2">2</text>
	<text transform="matrix(1 0 0 1 486.7346 76.6487)" font-family="'Verdana'" font-size="2">0</text>
	<text transform="matrix(1 0 0 1 488.0042 76.6487)" font-family="'Verdana'" font-size="2">2</text>
	<text transform="matrix(1 0 0 1 489.2737 76.6487)" font-family="'Verdana'" font-size="2">2</text>
	<text transform="matrix(1 0 0 1 490.551 76.6487)" font-family="'Verdana'" font-size="2">1</text>
	<text transform="matrix(1 0 0 1 486.7346 80.6487)" font-family="'Verdana'" font-size="2">0</text>
	<text transform="matrix(1 0 0 1 488.0042 80.6487)" font-family="'Verdana'" font-size="2">2</text>
	<text transform="matrix(1 0 0 1 489.2737 80.6487)" font-family="'Verdana'" font-size="2">2</text>
	<text transform="matrix(1 0 0 1 490.551 80.6487)" font-family="'Verdana'" font-size="2">2</text>
</g>
<text transform="matrix(1 0 0 1 289.884 -95.1272)" font-family="'ArialMT'" font-size="9.1374">1st div. asymmetric then geometric </text>
<g id="g1018" transform="matrix(1.3563224,0,0,-1.3563224,264.30334,325.08423)">
	<g>
		<defs>
			<rect id="SVGID_1_" x="-294.821" y="221.572" width="153.788" height="51.458"/>
		</defs>
		<clipPath id="SVGID_2_">
			<use xlink:href="#SVGID_1_"  overflow="visible"/>
		</clipPath>
		<g id="g1020" clip-path="url(#SVGID_2_)">
			<g id="g1026" transform="matrix(113.38535,0,0,37.939649,0,56.058398)">
				
					<image overflow="visible" enable-background="new    " width="1046" height="350" id="image1028" xlink:href="9452B0C5E764034.png"  transform="matrix(9.560233e-04 0 0 -0.0029 -2.422 5.5407)">
				</image>
			</g>
		</g>
	</g>
</g>
<g id="g1030" transform="matrix(1.295192,0,0,-1.295192,267.1574,310.75823)">
	<g>
		<defs>
			<rect id="SVGID_3_" x="-304.317" y="188.424" width="146.857" height="49.139"/>
		</defs>
		<clipPath id="SVGID_4_">
			<use xlink:href="#SVGID_3_"  overflow="visible"/>
		</clipPath>
		<g id="g1032" clip-path="url(#SVGID_4_)">
			<g id="g1038" transform="matrix(113.38535,0,0,37.939649,0,13.618945)">
				
					<image overflow="visible" enable-background="new    " width="1046" height="350" id="image1040" xlink:href="9452B0C5E764033.png"  transform="matrix(9.560263e-04 0 0 -0.0029 -2.5363 5.755)">
				</image>
			</g>
		</g>
	</g>
</g>
<g id="g1042" transform="matrix(158.27207,0,0,-52.959103,264.30334,209.06011)">
	
		<image overflow="visible" enable-background="new    " width="1046" height="350" id="image1044" xlink:href="9452B0C5E76403C.png"  transform="matrix(9.560246e-04 0 0 -0.0029 -2.3534 5.4121)">
	</image>
</g>
<text transform="matrix(1 0 0 1 -30.7561 -95.1272)" font-family="'ArialMT'" font-size="9.1374">Random with equal areas</text>
<image overflow="visible" enable-background="new    " width="982" height="350" id="image4466" xlink:href="9452B0C5E76403E.jpg"  transform="matrix(0.1554 0 0 0.1554 207.9348 12.0002)">
</image>
<image overflow="visible" enable-background="new    " width="982" height="350" id="image4638" xlink:href="9452B0C5E764032.jpg"  transform="matrix(0.1552 0 0 0.1552 208.5793 -31.1492)">
</image>
<image overflow="visible" enable-background="new    " width="982" height="350" id="image4369" xlink:href="9452B0C5E764033.jpg"  transform="matrix(0.1581 0 0 0.1581 206.6848 -77.1824)">
</image>
<text transform="matrix(1 0 0 1 -99.2419 -95.1272)" font-family="'Helvetica'" font-size="12">A</text>
<text transform="matrix(1 0 0 1 199.9788 -95.1272)" font-family="'Helvetica'" font-size="12">B</text>
</svg>
