<?xml version="1.0" encoding="UTF-8" standalone="no"?>
<!-- Created with Inkscape (http://www.inkscape.org/) -->

<svg
   xmlns:dc="http://purl.org/dc/elements/1.1/"
   xmlns:cc="http://creativecommons.org/ns#"
   xmlns:rdf="http://www.w3.org/1999/02/22-rdf-syntax-ns#"
   xmlns:svg="http://www.w3.org/2000/svg"
   xmlns="http://www.w3.org/2000/svg"
   xmlns:xlink="http://www.w3.org/1999/xlink"
   xmlns:sodipodi="http://sodipodi.sourceforge.net/DTD/sodipodi-0.dtd"
   xmlns:inkscape="http://www.inkscape.org/namespaces/inkscape"
   width="2302.457"
   height="741.7807"
   id="svg2"
   version="1.1"
   inkscape:version="0.48.4 r9939"
   sodipodi:docname="shapePreserving.svg">
  <sodipodi:namedview
     id="base"
     pagecolor="#ffffff"
     bordercolor="#666666"
     borderopacity="1.0"
     inkscape:pageopacity="0.0"
     inkscape:pageshadow="2"
     inkscape:zoom="0.35"
     inkscape:cx="1280.5206"
     inkscape:cy="209.60588"
     inkscape:document-units="px"
     inkscape:current-layer="layer1"
     showgrid="false"
     inkscape:window-width="1920"
     inkscape:window-height="1025"
     inkscape:window-x="-3"
     inkscape:window-y="-3"
     inkscape:window-maximized="1"
     fit-margin-top="0"
     fit-margin-left="0"
     fit-margin-right="0"
     fit-margin-bottom="0"
     showguides="true"
     inkscape:guide-bbox="true" />
  <defs
     id="defs4">
    <marker
       inkscape:stockid="Arrow2Mend"
       orient="auto"
       refY="0"
       refX="0"
       id="Arrow2Mend"
       style="overflow:visible">
      <path
         id="path6872"
         style="fill-rule:evenodd;stroke-width:0.625;stroke-linejoin:round"
         d="M 8.7185878,4.0337352 -2.2072895,0.01601326 8.7185884,-4.0017078 c -1.7454984,2.3720609 -1.7354408,5.6174519 -6e-7,8.035443 z"
         transform="scale(-0.6,-0.6)"
         inkscape:connector-curvature="0" />
    </marker>
    <linearGradient
       id="linearGradient3987">
      <stop
         id="stop3989"
         offset="0"
         style="stop-color:#feb24c;stop-opacity:1;" />
      <stop
         style="stop-color:#fd8d3c;stop-opacity:1;"
         offset="0.19797821"
         id="stop4001" />
      <stop
         style="stop-color:#fc4e2a;stop-opacity:1;"
         offset="0.40096852"
         id="stop3999" />
      <stop
         style="stop-color:#e31a1c;stop-opacity:1;"
         offset="0.6033867"
         id="stop3997" />
      <stop
         style="stop-color:#bd0026;stop-opacity:1;"
         offset="0.79843748"
         id="stop3995" />
      <stop
         id="stop3991"
         offset="1"
         style="stop-color:#800026;stop-opacity:1;" />
    </linearGradient>
    <linearGradient
       y2="2064.8562"
       x2="1820"
       y1="2064.8562"
       x1="1337.1428"
       gradientTransform="matrix(0.79142012,0,0,0.59360755,-24.291916,151.99564)"
       gradientUnits="userSpaceOnUse"
       id="linearGradient4469"
       xlink:href="#linearGradient3987"
       inkscape:collect="always" />
    <clipPath
       id="clipPath28526"
       clipPathUnits="userSpaceOnUse">
      <rect
         y="-1097.2858"
         x="770.70294"
         height="134.64285"
         width="85.714287"
         id="rect28528"
         style="fill:#ff0000;fill-opacity:1;fill-rule:nonzero;stroke:#fc4e2a;stroke-width:5;stroke-linecap:round;stroke-linejoin:round;stroke-miterlimit:4;stroke-opacity:1;stroke-dasharray:none;stroke-dashoffset:0" />
    </clipPath>
  </defs>
  <metadata
     id="metadata7">
    <rdf:RDF>
      <cc:Work
         rdf:about="">
        <dc:format>image/svg+xml</dc:format>
        <dc:type
           rdf:resource="http://purl.org/dc/dcmitype/StillImage" />
        <dc:title />
      </cc:Work>
    </rdf:RDF>
  </metadata>
  <g
     transform="translate(1273.6577,692.78021)"
     id="layer1"
     inkscape:groupmode="layer"
     inkscape:label="Layer 1">
    <text
       transform="translate(-826.85089,-904.09375)"
       sodipodi:linespacing="125%"
       id="text3226"
       y="392.06302"
       x="440.42651"
       style="font-size:100px;font-style:normal;font-variant:normal;font-weight:normal;font-stretch:normal;line-height:125%;letter-spacing:0px;word-spacing:0px;fill:#000000;fill-opacity:1;stroke:none;font-family:Arial;-inkscape-font-specification:Arial"
       xml:space="preserve"><tspan
         y="392.06302"
         x="440.42651"
         id="tspan3228"
         sodipodi:role="line" /></text>
    <g
       id="g7864">
      <g
         transform="matrix(1.7143234,0,0,1.7143234,-1465.7932,70.062899)"
         id="g5646">
        <path
           inkscape:transform-center-y="-3.5654336"
           inkscape:transform-center-x="0.57424929"
           sodipodi:nodetypes="cc"
           inkscape:connector-curvature="0"
           id="path5648"
           d="M 830.90487,-83.469746 725.47016,-369.06756"
           style="fill:none;stroke:#00ff00;stroke-width:3;stroke-linecap:butt;stroke-linejoin:miter;stroke-miterlimit:4;stroke-opacity:1;stroke-dasharray:none" />
        <path
           sodipodi:nodetypes="ccccccc"
           inkscape:connector-curvature="0"
           id="path5650"
           d="m 936.48083,-117.42843 -179.80716,58.588854 -160.61425,-96.974654 1.01015,-170.71578 232.33509,-77.78174 129.63533,124.50045 z"
           style="fill:none;stroke:#000000;stroke-width:5;stroke-linecap:round;stroke-linejoin:round;stroke-miterlimit:4;stroke-opacity:1;stroke-dasharray:none" />
        <path
           transform="translate(541.82669,-454.64322)"
           d="m 242.43661,231.10817 c 0,2.78946 -2.2613,5.05076 -5.05076,5.05076 -2.78946,0 -5.05076,-2.2613 -5.05076,-5.05076 0,-2.78946 2.2613,-5.05076 5.05076,-5.05076 2.78946,0 5.05076,2.2613 5.05076,5.05076 z"
           sodipodi:ry="5.0507627"
           sodipodi:rx="5.0507627"
           sodipodi:cy="231.10817"
           sodipodi:cx="237.38585"
           id="path5652"
           style="fill:#ff0000;fill-opacity:1;fill-rule:nonzero;stroke:none"
           sodipodi:type="arc" />
      </g>
      <path
         sodipodi:type="arc"
         style="fill:#000000;fill-opacity:1;fill-rule:nonzero;stroke:none"
         id="path5660"
         sodipodi:cx="520.22858"
         sodipodi:cy="217.30664"
         sodipodi:rx="11.111678"
         sodipodi:ry="11.111678"
         d="m 531.34025,217.30664 c 0,6.13681 -4.97486,11.11168 -11.11167,11.11168 -6.13681,0 -11.11168,-4.97487 -11.11168,-11.11168 0,-6.13681 4.97487,-11.11168 11.11168,-11.11168 6.13681,0 11.11167,4.97487 11.11167,11.11168 z"
         transform="translate(-962.7746,-704.08355)" />
      <path
         sodipodi:type="arc"
         style="fill:#000000;fill-opacity:1;fill-rule:nonzero;stroke:none"
         id="path5662"
         sodipodi:cx="520.22858"
         sodipodi:cy="217.30664"
         sodipodi:rx="11.111678"
         sodipodi:ry="11.111678"
         d="m 531.34025,217.30664 c 0,6.13681 -4.97486,11.11168 -11.11167,11.11168 -6.13681,0 -11.11168,-4.97487 -11.11168,-11.11168 0,-6.13681 4.97487,-11.11168 11.11168,-11.11168 6.13681,0 11.11167,4.97487 11.11167,11.11168 z"
         transform="translate(-743.6072,-780.11474)" />
      <path
         transform="translate(-560.75009,-288.68617)"
         d="m 531.34025,217.30664 c 0,6.13681 -4.97486,11.11168 -11.11167,11.11168 -6.13681,0 -11.11168,-4.97487 -11.11168,-11.11168 0,-6.13681 4.97487,-11.11168 11.11168,-11.11168 6.13681,0 11.11167,4.97487 11.11167,11.11168 z"
         sodipodi:ry="11.111678"
         sodipodi:rx="11.111678"
         sodipodi:cy="217.30664"
         sodipodi:cx="520.22858"
         id="path5664"
         style="fill:#000000;fill-opacity:1;fill-rule:nonzero;stroke:none"
         sodipodi:type="arc" />
      <g
         id="g5666"
         transform="translate(-807.6751,-1848.5792)">
        <g
           word-spacing="normal"
           letter-spacing="normal"
           font-size-adjust="none"
           font-stretch="normal"
           font-weight="normal"
           font-variant="normal"
           font-style="normal"
           stroke-miterlimit="10.433"
           xml:space="preserve"
           transform="matrix(1.9266821,0,0,-1.9266821,-337.16937,2041.5097)"
           id="g5668"
           style="font-style:normal;font-variant:normal;font-weight:normal;font-stretch:normal;letter-spacing:normal;word-spacing:normal;text-anchor:start;fill:none;stroke:#000000;stroke-linecap:butt;stroke-linejoin:miter;stroke-miterlimit:10.43299961;stroke-opacity:1;stroke-dasharray:none;stroke-dashoffset:0"><path
             id="path5670"
             d="m 472.96,409 0.05,-0.19 0.06,-0.19 0.07,-0.18 0.08,-0.18 0.08,-0.17 0.09,-0.16 0.09,-0.16 0.1,-0.16 0.11,-0.15 0.11,-0.15 0.11,-0.14 0.13,-0.13 0.12,-0.13 0.14,-0.12 0.14,-0.12 0.14,-0.11 0.15,-0.11 0.15,-0.1 0.15,-0.09 0.16,-0.09 0.17,-0.08 0.17,-0.07 0.17,-0.07 0.18,-0.06 0.17,-0.06 0.19,-0.04 0.18,-0.05 0.19,-0.03 0.19,-0.02 0.2,-0.02 0.2,-0.01 0.19,-0.01 c 1.74,0 2.9,1.14 3.69,2.74 0.85,1.79 1.49,4.84 1.49,4.93 0,0.5 -0.44,0.5 -0.6,0.5 -0.5,0 -0.54,-0.2 -0.7,-0.9 -0.69,-2.78 -1.64,-6.17 -3.73,-6.17 -1.05,0 -1.54,0.65 -1.54,2.29 0,1.1 0.6,3.44 0.99,5.17 l 1.4,5.4 c 0.15,0.75 0.65,2.64 0.85,3.39 0.25,1.14 0.75,3.03 0.75,3.32 0,0.91 -0.7,1.35 -1.45,1.35 -0.25,0 -1.55,-0.05 -1.94,-1.74 -0.96,-3.64 -3.14,-12.36 -3.74,-15 -0.06,-0.2 -2.04,-4.18 -5.68,-4.18 -2.6,0 -3.1,2.25 -3.1,4.09 0,2.78 1.41,6.72 2.71,10.16 0.59,1.5 0.84,2.18 0.84,3.14 0,2.23 -1.59,4.07 -4.09,4.07 -4.74,0 -6.58,-7.21 -6.58,-7.67 0,-0.5 0.5,-0.5 0.61,-0.5 0.5,0 0.54,0.11 0.79,0.91 1.24,4.33 3.14,6.17 5.03,6.17 0.44,0 1.25,-0.05 1.25,-1.64 0,-1.2 -0.56,-2.64 -0.85,-3.39 -1.85,-4.94 -2.9,-8.02 -2.9,-10.45 0,-4.74 3.44,-5.99 6.15,-5.99 3.28,0 5.07,2.24 5.92,3.35 z"
             inkscape:connector-curvature="0"
             style="fill:#000000;stroke-width:0" /></g>      </g>
      <path
         transform="translate(-566.79476,-839.44399)"
         d="m 531.34025,217.30664 c 0,6.13681 -4.97486,11.11168 -11.11167,11.11168 -6.13681,0 -11.11168,-4.97487 -11.11168,-11.11168 0,-6.13681 4.97487,-11.11168 11.11168,-11.11168 6.13681,0 11.11167,4.97487 11.11167,11.11168 z"
         sodipodi:ry="11.111678"
         sodipodi:rx="11.111678"
         sodipodi:cy="217.30664"
         sodipodi:cx="520.22858"
         id="path5672"
         style="fill:#000000;fill-opacity:1;fill-rule:nonzero;stroke:none"
         sodipodi:type="arc" />
      <path
         sodipodi:type="arc"
         style="fill:#000000;fill-opacity:1;fill-rule:nonzero;stroke:none"
         id="path5674"
         sodipodi:cx="520.22858"
         sodipodi:cy="217.30664"
         sodipodi:rx="11.111678"
         sodipodi:ry="11.111678"
         d="m 531.34025,217.30664 c 0,6.13681 -4.97486,11.11168 -11.11167,11.11168 -6.13681,0 -11.11168,-4.97487 -11.11168,-11.11168 0,-6.13681 4.97487,-11.11168 11.11168,-11.11168 6.13681,0 11.11167,4.97487 11.11167,11.11168 z"
         transform="translate(-382.947,-348.50985)" />
      <path
         transform="translate(-685.99276,-251.53521)"
         d="m 531.34025,217.30664 c 0,6.13681 -4.97486,11.11168 -11.11167,11.11168 -6.13681,0 -11.11168,-4.97487 -11.11168,-11.11168 0,-6.13681 4.97487,-11.11168 11.11168,-11.11168 6.13681,0 11.11167,4.97487 11.11167,11.11168 z"
         sodipodi:ry="11.111678"
         sodipodi:rx="11.111678"
         sodipodi:cy="217.30664"
         sodipodi:cx="520.22858"
         id="path5676"
         style="fill:#000000;fill-opacity:1;fill-rule:nonzero;stroke:none"
         sodipodi:type="arc" />
      <g
         transform="translate(-589.48217,-1260.6704)"
         id="g5678">
        <g
           style="font-style:normal;font-variant:normal;font-weight:normal;font-stretch:normal;letter-spacing:normal;word-spacing:normal;text-anchor:start;fill:none;stroke:#000000;stroke-linecap:butt;stroke-linejoin:miter;stroke-miterlimit:10.43299961;stroke-opacity:1;stroke-dasharray:none;stroke-dashoffset:0"
           id="g5680"
           transform="matrix(1.9266821,0,0,-1.9266821,-337.16937,2041.5097)"
           xml:space="preserve"
           stroke-miterlimit="10.433"
           font-style="normal"
           font-variant="normal"
           font-weight="normal"
           font-stretch="normal"
           font-size-adjust="none"
           letter-spacing="normal"
           word-spacing="normal"><path
             style="fill:#000000;stroke-width:0"
             inkscape:connector-curvature="0"
             d="m 478.83,424.73 0,0.12 0,0.13 -0.01,0.12 0,0.11 -0.01,0.12 -0.01,0.11 -0.01,0.11 -0.02,0.1 -0.03,0.21 -0.03,0.19 -0.05,0.18 -0.04,0.18 -0.06,0.16 -0.06,0.16 -0.06,0.15 -0.07,0.13 -0.07,0.13 -0.07,0.12 -0.08,0.12 -0.08,0.1 -0.08,0.1 -0.09,0.09 -0.08,0.08 -0.09,0.07 -0.09,0.07 -0.09,0.06 -0.1,0.05 -0.09,0.05 -0.09,0.04 -0.09,0.03 -0.09,0.03 -0.1,0.03 -0.09,0.01 -0.08,0.02 -0.09,0 -0.09,0 c -1.25,0 -2.43,-1.29 -2.43,-2.39 0,-0.64 0.25,-0.93 0.79,-1.48 1.05,-1 1.69,-2.3 1.69,-4.09 0,-2.1 -3.03,-13.5 -8.86,-13.5 -2.54,0 -3.69,1.75 -3.69,4.32 0,2.8 1.35,6.44 2.9,10.57 0.34,0.86 0.59,1.54 0.59,2.5 0,2.23 -1.59,4.07 -4.09,4.07 -4.68,0 -6.58,-7.21 -6.58,-7.67 0,-0.5 0.5,-0.5 0.61,-0.5 0.5,0 0.54,0.11 0.79,0.91 1.44,5.03 3.58,6.17 5.03,6.17 0.4,0 1.25,0 1.25,-1.59 0,-1.25 -0.5,-2.6 -0.85,-3.49 -2.19,-5.78 -2.83,-8.08 -2.83,-10.22 0,-5.37 4.37,-6.17 6.67,-6.17 8.37,0 11.2,16.49 11.2,19.08 z"
             id="path5682" /></g>      </g>
      <g
         transform="translate(-401.5938,-1329.3607)"
         id="g5684">
        <g
           style="font-style:normal;font-variant:normal;font-weight:normal;font-stretch:normal;letter-spacing:normal;word-spacing:normal;text-anchor:start;fill:none;stroke:#000000;stroke-linecap:butt;stroke-linejoin:miter;stroke-miterlimit:10.43299961;stroke-opacity:1;stroke-dasharray:none;stroke-dashoffset:0"
           word-spacing="normal"
           letter-spacing="normal"
           font-size-adjust="none"
           font-stretch="normal"
           font-weight="normal"
           font-variant="normal"
           font-style="normal"
           stroke-miterlimit="10.433"
           xml:space="preserve"
           transform="matrix(1.9266821,0,0,-1.9266821,-337.16937,2041.5097)"
           id="g5686"><path
             style="fill:#000000;stroke-width:0"
             inkscape:connector-curvature="0"
             id="path5688"
             d="m 478.83,424.73 0,0.12 0,0.13 -0.01,0.12 0,0.11 -0.01,0.12 -0.01,0.11 -0.01,0.11 -0.02,0.1 -0.03,0.21 -0.03,0.19 -0.05,0.18 -0.04,0.18 -0.06,0.16 -0.06,0.16 -0.06,0.15 -0.07,0.13 -0.07,0.13 -0.07,0.12 -0.08,0.12 -0.08,0.1 -0.08,0.1 -0.09,0.09 -0.08,0.08 -0.09,0.07 -0.09,0.07 -0.09,0.06 -0.1,0.05 -0.09,0.05 -0.09,0.04 -0.09,0.03 -0.09,0.03 -0.1,0.03 -0.09,0.01 -0.08,0.02 -0.09,0 -0.09,0 c -1.25,0 -2.43,-1.29 -2.43,-2.39 0,-0.64 0.25,-0.93 0.79,-1.48 1.05,-1 1.69,-2.3 1.69,-4.09 0,-2.1 -3.03,-13.5 -8.86,-13.5 -2.54,0 -3.69,1.75 -3.69,4.32 0,2.8 1.35,6.44 2.9,10.57 0.34,0.86 0.59,1.54 0.59,2.5 0,2.23 -1.59,4.07 -4.09,4.07 -4.68,0 -6.58,-7.21 -6.58,-7.67 0,-0.5 0.5,-0.5 0.61,-0.5 0.5,0 0.54,0.11 0.79,0.91 1.44,5.03 3.58,6.17 5.03,6.17 0.4,0 1.25,0 1.25,-1.59 0,-1.25 -0.5,-2.6 -0.85,-3.49 -2.19,-5.78 -2.83,-8.08 -2.83,-10.22 0,-5.37 4.37,-6.17 6.67,-6.17 8.37,0 11.2,16.49 11.2,19.08 z" /><path
             style="fill:#000000;stroke-width:0"
             inkscape:connector-curvature="0"
             id="path5690"
             d="m 491.31,420.92 0,0.04 0,0.04 0,0.05 0,0.04 0,0.03 0,0.04 0,0.04 0,0.03 0,0.04 0,0.03 -0.01,0.03 0,0.03 0,0.03 -0.01,0.03 0,0.03 0,0.02 -0.01,0.03 0,0.02 -0.01,0.03 0,0.02 -0.01,0.04 -0.02,0.04 -0.02,0.03 -0.02,0.03 -0.02,0.03 -0.02,0.03 -0.03,0.02 -0.03,0.02 -0.03,0.02 -0.04,0.01 -0.04,0.01 -0.05,0.02 -0.02,0 -0.02,0 -0.03,0.01 -0.03,0 -0.02,0.01 -0.03,0 -0.03,0 -0.03,0 -0.03,0 -0.04,0.01 -0.03,0 -0.04,0 -0.03,0 -0.04,0 -0.04,0 -0.04,0 -0.04,0 -0.04,0 -0.05,0 -0.04,0 c -2.24,-2.2 -5.39,-2.23 -6.83,-2.23 v -1.25 c 0.84,0 3.14,0 5.04,0.97 v -17.77 c 0,-1.16 0,-1.61 -3.48,-1.61 h -1.31 v -1.25 c 0.62,0.03 4.9,0.14 6.2,0.14 1.08,0 5.47,-0.11 6.23,-0.14 v 1.25 h -1.32 c -3.49,0 -3.49,0.45 -3.49,1.61 z" /></g>      </g>
      <g
         transform="translate(-738.98474,-1224.3049)"
         id="g5692">
        <g
           style="font-style:normal;font-variant:normal;font-weight:normal;font-stretch:normal;letter-spacing:normal;word-spacing:normal;text-anchor:start;fill:none;stroke:#000000;stroke-linecap:butt;stroke-linejoin:miter;stroke-miterlimit:10.43299961;stroke-opacity:1;stroke-dasharray:none;stroke-dashoffset:0"
           id="g5694"
           transform="matrix(1.9266821,0,0,-1.9266821,-337.16937,2041.5097)"
           xml:space="preserve"
           stroke-miterlimit="10.433"
           font-style="normal"
           font-variant="normal"
           font-weight="normal"
           font-stretch="normal"
           font-size-adjust="none"
           letter-spacing="normal"
           word-spacing="normal"><path
             style="fill:#000000;stroke-width:0"
             inkscape:connector-curvature="0"
             d="m 478.83,424.73 0,0.12 0,0.13 -0.01,0.12 0,0.11 -0.01,0.12 -0.01,0.11 -0.01,0.11 -0.02,0.1 -0.03,0.21 -0.03,0.19 -0.05,0.18 -0.04,0.18 -0.06,0.16 -0.06,0.16 -0.06,0.15 -0.07,0.13 -0.07,0.13 -0.07,0.12 -0.08,0.12 -0.08,0.1 -0.08,0.1 -0.09,0.09 -0.08,0.08 -0.09,0.07 -0.09,0.07 -0.09,0.06 -0.1,0.05 -0.09,0.05 -0.09,0.04 -0.09,0.03 -0.09,0.03 -0.1,0.03 -0.09,0.01 -0.08,0.02 -0.09,0 -0.09,0 c -1.25,0 -2.43,-1.29 -2.43,-2.39 0,-0.64 0.25,-0.93 0.79,-1.48 1.05,-1 1.69,-2.3 1.69,-4.09 0,-2.1 -3.03,-13.5 -8.86,-13.5 -2.54,0 -3.69,1.75 -3.69,4.32 0,2.8 1.35,6.44 2.9,10.57 0.34,0.86 0.59,1.54 0.59,2.5 0,2.23 -1.59,4.07 -4.09,4.07 -4.68,0 -6.58,-7.21 -6.58,-7.67 0,-0.5 0.5,-0.5 0.61,-0.5 0.5,0 0.54,0.11 0.79,0.91 1.44,5.03 3.58,6.17 5.03,6.17 0.4,0 1.25,0 1.25,-1.59 0,-1.25 -0.5,-2.6 -0.85,-3.49 -2.19,-5.78 -2.83,-8.08 -2.83,-10.22 0,-5.37 4.37,-6.17 6.67,-6.17 8.37,0 11.2,16.49 11.2,19.08 z"
             id="path5696" /><path
             style="fill:#000000;stroke-width:0"
             inkscape:connector-curvature="0"
             d="m 497.23,405.11 h -1.18 c -0.1,-0.77 -0.46,-2.83 -0.91,-3.18 -0.26,-0.2 -2.95,-0.2 -3.44,-0.2 h -6.42 c 3.66,3.23 4.88,4.2 6.97,5.84 2.58,2.07 4.98,4.22 4.98,7.54 0,4.21 -3.68,6.79 -8.15,6.79 -4.31,0 -7.25,-3.03 -7.25,-6.23 0,-1.78 1.5,-1.96 1.86,-1.96 0.83,0 1.84,0.6 1.84,1.85 0,0.62 -0.25,1.84 -2.06,1.84 1.08,2.47 3.45,3.24 5.09,3.24 3.49,0 5.3,-2.71 5.3,-5.53 0,-3.04 -2.16,-5.44 -3.28,-6.69 l -8.39,-8.3 c -0.36,-0.31 -0.36,-0.39 -0.36,-1.36 h 14.36 z"
             id="path5698" /></g>      </g>
      <g
         transform="translate(-1050.1117,-1781.9091)"
         id="g5700">
        <g
           style="font-style:normal;font-variant:normal;font-weight:normal;font-stretch:normal;letter-spacing:normal;word-spacing:normal;text-anchor:start;fill:none;stroke:#000000;stroke-linecap:butt;stroke-linejoin:miter;stroke-miterlimit:10.43299961;stroke-opacity:1;stroke-dasharray:none;stroke-dashoffset:0"
           word-spacing="normal"
           letter-spacing="normal"
           font-size-adjust="none"
           font-stretch="normal"
           font-weight="normal"
           font-variant="normal"
           font-style="normal"
           stroke-miterlimit="10.433"
           xml:space="preserve"
           transform="matrix(1.9266821,0,0,-1.9266821,-337.16937,2041.5097)"
           id="g5702"><path
             style="fill:#000000;stroke-width:0"
             inkscape:connector-curvature="0"
             id="path5704"
             d="m 472.96,409 0.05,-0.19 0.06,-0.19 0.07,-0.18 0.08,-0.18 0.08,-0.17 0.09,-0.16 0.09,-0.16 0.1,-0.16 0.11,-0.15 0.11,-0.15 0.11,-0.14 0.13,-0.13 0.12,-0.13 0.14,-0.12 0.14,-0.12 0.14,-0.11 0.15,-0.11 0.15,-0.1 0.15,-0.09 0.16,-0.09 0.17,-0.08 0.17,-0.07 0.17,-0.07 0.18,-0.06 0.17,-0.06 0.19,-0.04 0.18,-0.05 0.19,-0.03 0.19,-0.02 0.2,-0.02 0.2,-0.01 0.19,-0.01 c 1.74,0 2.9,1.14 3.69,2.74 0.85,1.79 1.49,4.84 1.49,4.93 0,0.5 -0.44,0.5 -0.6,0.5 -0.5,0 -0.54,-0.2 -0.7,-0.9 -0.69,-2.78 -1.64,-6.17 -3.73,-6.17 -1.05,0 -1.54,0.65 -1.54,2.29 0,1.1 0.6,3.44 0.99,5.17 l 1.4,5.4 c 0.15,0.75 0.65,2.64 0.85,3.39 0.25,1.14 0.75,3.03 0.75,3.32 0,0.91 -0.7,1.35 -1.45,1.35 -0.25,0 -1.55,-0.05 -1.94,-1.74 -0.96,-3.64 -3.14,-12.36 -3.74,-15 -0.06,-0.2 -2.04,-4.18 -5.68,-4.18 -2.6,0 -3.1,2.25 -3.1,4.09 0,2.78 1.41,6.72 2.71,10.16 0.59,1.5 0.84,2.18 0.84,3.14 0,2.23 -1.59,4.07 -4.09,4.07 -4.74,0 -6.58,-7.21 -6.58,-7.67 0,-0.5 0.5,-0.5 0.61,-0.5 0.5,0 0.54,0.11 0.79,0.91 1.24,4.33 3.14,6.17 5.03,6.17 0.44,0 1.25,-0.05 1.25,-1.64 0,-1.2 -0.56,-2.64 -0.85,-3.39 -1.85,-4.94 -2.9,-8.02 -2.9,-10.45 0,-4.74 3.44,-5.99 6.15,-5.99 3.28,0 5.07,2.24 5.92,3.35 z" /><path
             style="fill:#000000;stroke-width:0"
             inkscape:connector-curvature="0"
             id="path5706"
             d="m 495.75,420.92 0,0.04 0,0.04 0,0.05 0,0.04 0,0.03 0,0.04 0,0.04 0,0.03 -0.01,0.04 0,0.03 0,0.03 0,0.03 0,0.03 -0.01,0.03 0,0.03 -0.01,0.02 0,0.03 0,0.02 -0.01,0.03 0,0.02 -0.02,0.04 -0.01,0.04 -0.02,0.03 -0.02,0.03 -0.02,0.03 -0.02,0.03 -0.03,0.02 -0.03,0.02 -0.04,0.02 -0.03,0.01 -0.04,0.01 -0.05,0.02 -0.02,0 -0.03,0 -0.02,0.01 -0.03,0 -0.03,0.01 -0.02,0 -0.03,0 -0.03,0 -0.04,0 -0.03,0.01 -0.03,0 -0.04,0 -0.04,0 -0.03,0 -0.04,0 -0.04,0 -0.04,0 -0.05,0 -0.04,0 -0.05,0 c -2.23,-2.2 -5.39,-2.23 -6.82,-2.23 v -1.25 c 0.84,0 3.14,0 5.04,0.97 v -17.77 c 0,-1.16 0,-1.61 -3.48,-1.61 h -1.32 v -1.25 c 0.63,0.03 4.91,0.14 6.21,0.14 1.08,0 5.47,-0.11 6.23,-0.14 v 1.25 h -1.33 c -3.48,0 -3.48,0.45 -3.48,1.61 z" /></g>      </g>
      <g
         transform="translate(-621.80705,-1909.1883)"
         id="g5708">
        <g
           style="font-style:normal;font-variant:normal;font-weight:normal;font-stretch:normal;letter-spacing:normal;word-spacing:normal;text-anchor:start;fill:none;stroke:#000000;stroke-linecap:butt;stroke-linejoin:miter;stroke-miterlimit:10.43299961;stroke-opacity:1;stroke-dasharray:none;stroke-dashoffset:0"
           id="g5710"
           transform="matrix(1.9266821,0,0,-1.9266821,-337.16937,2041.5097)"
           xml:space="preserve"
           stroke-miterlimit="10.433"
           font-style="normal"
           font-variant="normal"
           font-weight="normal"
           font-stretch="normal"
           font-size-adjust="none"
           letter-spacing="normal"
           word-spacing="normal"><path
             style="fill:#000000;stroke-width:0"
             inkscape:connector-curvature="0"
             d="m 472.96,409 0.05,-0.19 0.06,-0.19 0.07,-0.18 0.08,-0.18 0.08,-0.17 0.09,-0.16 0.09,-0.16 0.1,-0.16 0.11,-0.15 0.11,-0.15 0.11,-0.14 0.13,-0.13 0.12,-0.13 0.14,-0.12 0.14,-0.12 0.14,-0.11 0.15,-0.11 0.15,-0.1 0.15,-0.09 0.16,-0.09 0.17,-0.08 0.17,-0.07 0.17,-0.07 0.18,-0.06 0.17,-0.06 0.19,-0.04 0.18,-0.05 0.19,-0.03 0.19,-0.02 0.2,-0.02 0.2,-0.01 0.19,-0.01 c 1.74,0 2.9,1.14 3.69,2.74 0.85,1.79 1.49,4.84 1.49,4.93 0,0.5 -0.44,0.5 -0.6,0.5 -0.5,0 -0.54,-0.2 -0.7,-0.9 -0.69,-2.78 -1.64,-6.17 -3.73,-6.17 -1.05,0 -1.54,0.65 -1.54,2.29 0,1.1 0.6,3.44 0.99,5.17 l 1.4,5.4 c 0.15,0.75 0.65,2.64 0.85,3.39 0.25,1.14 0.75,3.03 0.75,3.32 0,0.91 -0.7,1.35 -1.45,1.35 -0.25,0 -1.55,-0.05 -1.94,-1.74 -0.96,-3.64 -3.14,-12.36 -3.74,-15 -0.06,-0.2 -2.04,-4.18 -5.68,-4.18 -2.6,0 -3.1,2.25 -3.1,4.09 0,2.78 1.41,6.72 2.71,10.16 0.59,1.5 0.84,2.18 0.84,3.14 0,2.23 -1.59,4.07 -4.09,4.07 -4.74,0 -6.58,-7.21 -6.58,-7.67 0,-0.5 0.5,-0.5 0.61,-0.5 0.5,0 0.54,0.11 0.79,0.91 1.24,4.33 3.14,6.17 5.03,6.17 0.44,0 1.25,-0.05 1.25,-1.64 0,-1.2 -0.56,-2.64 -0.85,-3.39 -1.85,-4.94 -2.9,-8.02 -2.9,-10.45 0,-4.74 3.44,-5.99 6.15,-5.99 3.28,0 5.07,2.24 5.92,3.35 z"
             id="path5712" /><path
             style="fill:#000000;stroke-width:0"
             inkscape:connector-curvature="0"
             d="m 501.67,405.11 h -1.19 c -0.09,-0.77 -0.45,-2.83 -0.9,-3.18 -0.27,-0.2 -2.96,-0.2 -3.44,-0.2 h -6.42 c 3.66,3.23 4.87,4.2 6.97,5.84 2.58,2.07 4.98,4.22 4.98,7.54 0,4.21 -3.69,6.79 -8.15,6.79 -4.32,0 -7.25,-3.03 -7.25,-6.23 0,-1.78 1.5,-1.96 1.85,-1.96 0.83,0 1.85,0.6 1.85,1.85 0,0.62 -0.25,1.84 -2.06,1.84 1.07,2.47 3.45,3.24 5.09,3.24 3.48,0 5.3,-2.71 5.3,-5.53 0,-3.04 -2.16,-5.44 -3.28,-6.69 l -8.4,-8.3 c -0.35,-0.31 -0.35,-0.39 -0.35,-1.36 h 14.35 z"
             id="path5714" /></g>      </g>
      <path
         transform="translate(-342.5409,-629.33226)"
         d="m 531.34025,217.30664 c 0,6.13681 -4.97486,11.11168 -11.11167,11.11168 -6.13681,0 -11.11168,-4.97487 -11.11168,-11.11168 0,-6.13681 4.97487,-11.11168 11.11168,-11.11168 6.13681,0 11.11167,4.97487 11.11167,11.11168 z"
         sodipodi:ry="11.111678"
         sodipodi:rx="11.111678"
         sodipodi:cy="217.30664"
         sodipodi:cx="520.22858"
         id="path5716"
         style="fill:#000000;fill-opacity:1;fill-rule:nonzero;stroke:none"
         sodipodi:type="arc" />
      <path
         sodipodi:type="arc"
         style="fill:#000000;fill-opacity:1;fill-rule:nonzero;stroke:none"
         id="path5718"
         sodipodi:cx="520.22858"
         sodipodi:cy="217.30664"
         sodipodi:rx="11.111678"
         sodipodi:ry="11.111678"
         d="m 531.34025,217.30664 c 0,6.13681 -4.97486,11.11168 -11.11167,11.11168 -6.13681,0 -11.11168,-4.97487 -11.11168,-11.11168 0,-6.13681 4.97487,-11.11168 11.11168,-11.11168 6.13681,0 11.11167,4.97487 11.11167,11.11168 z"
         transform="translate(-962.7746,-413.15962)" />
    </g>
    <g
       id="g7900">
      <path
         inkscape:transform-center-y="-3.5654336"
         inkscape:transform-center-x="0.57424929"
         sodipodi:nodetypes="cc"
         inkscape:connector-curvature="0"
         id="path3792"
         d="M 798.64644,-73.03124 617.89725,-562.63826"
         style="fill:none;stroke:#00ff00;stroke-width:5.14297009;stroke-linecap:butt;stroke-linejoin:miter;stroke-miterlimit:4;stroke-opacity:1;stroke-dasharray:none" />
      <path
         sodipodi:nodetypes="ccccccc"
         inkscape:connector-curvature="0"
         id="path3794"
         d="M 979.63778,-131.24741 671.39016,-30.807163 396.04539,-197.05308 l 1.73173,-292.66206 398.29748,-133.34305 222.2369,213.43403 z"
         style="fill:none;stroke:#000000;stroke-width:8.57161713;stroke-linecap:round;stroke-linejoin:round;stroke-miterlimit:4;stroke-opacity:1;stroke-dasharray:none" />
      <path
         sodipodi:nodetypes="cc"
         inkscape:connector-curvature="0"
         id="path6537"
         d="M 673.03653,-30.966333 801.71001,-73.036124"
         style="fill:none;stroke:#ff8b00;stroke-width:10;stroke-linecap:butt;stroke-linejoin:miter;stroke-miterlimit:4;stroke-opacity:1;stroke-dasharray:none" />
      <path
         sodipodi:nodetypes="cc"
         inkscape:connector-curvature="0"
         id="path6533"
         d="m 616.72053,-562.55911 178.92857,-60"
         style="fill:none;stroke:#ff00ff;stroke-width:10;stroke-linecap:butt;stroke-linejoin:miter;stroke-miterlimit:4;stroke-opacity:1;stroke-dasharray:none" />
      <path
         transform="matrix(1.7143234,0,0,1.7143234,303.07295,-709.34261)"
         d="m 242.43661,231.10817 c 0,2.78946 -2.2613,5.05076 -5.05076,5.05076 -2.78946,0 -5.05076,-2.2613 -5.05076,-5.05076 0,-2.78946 2.2613,-5.05076 5.05076,-5.05076 2.78946,0 5.05076,2.2613 5.05076,5.05076 z"
         sodipodi:ry="5.0507627"
         sodipodi:rx="5.0507627"
         sodipodi:cy="231.10817"
         sodipodi:cx="237.38585"
         id="path3796"
         style="fill:#ff0000;fill-opacity:1;fill-rule:nonzero;stroke:none"
         sodipodi:type="arc" />
      <path
         style="fill:none;stroke:#0000ff;stroke-width:10;stroke-linecap:butt;stroke-linejoin:miter;stroke-miterlimit:4;stroke-opacity:1;stroke-dasharray:none"
         d="M 797.53783,-72.130049 980.75955,-131.87751"
         id="path6535"
         inkscape:connector-curvature="0"
         sodipodi:nodetypes="cc" />
      <path
         sodipodi:type="arc"
         style="fill:#000000;fill-opacity:1;fill-rule:nonzero;stroke:none"
         id="path4753"
         sodipodi:cx="520.22858"
         sodipodi:cy="217.30664"
         sodipodi:rx="11.111678"
         sodipodi:ry="11.111678"
         d="m 531.34025,217.30664 c 0,6.13681 -4.97486,11.11168 -11.11167,11.11168 -6.13681,0 -11.11168,-4.97487 -11.11168,-11.11168 0,-6.13681 4.97487,-11.11168 11.11168,-11.11168 6.13681,0 11.11167,4.97487 11.11167,11.11168 z"
         transform="translate(278.74483,-289.94886)" />
      <g
         transform="translate(32.324881,-1848.5792)"
         id="g5062">
        <g
           style="font-style:normal;font-variant:normal;font-weight:normal;font-stretch:normal;letter-spacing:normal;word-spacing:normal;text-anchor:start;fill:none;stroke:#000000;stroke-linecap:butt;stroke-linejoin:miter;stroke-miterlimit:10.43299961;stroke-opacity:1;stroke-dasharray:none;stroke-dashoffset:0"
           id="g5064"
           transform="matrix(1.9266821,0,0,-1.9266821,-337.16937,2041.5097)"
           xml:space="preserve"
           stroke-miterlimit="10.433"
           font-style="normal"
           font-variant="normal"
           font-weight="normal"
           font-stretch="normal"
           font-size-adjust="none"
           letter-spacing="normal"
           word-spacing="normal"><path
             style="fill:#000000;stroke-width:0"
             inkscape:connector-curvature="0"
             d="m 472.96,409 0.05,-0.19 0.06,-0.19 0.07,-0.18 0.08,-0.18 0.08,-0.17 0.09,-0.16 0.09,-0.16 0.1,-0.16 0.11,-0.15 0.11,-0.15 0.11,-0.14 0.13,-0.13 0.12,-0.13 0.14,-0.12 0.14,-0.12 0.14,-0.11 0.15,-0.11 0.15,-0.1 0.15,-0.09 0.16,-0.09 0.17,-0.08 0.17,-0.07 0.17,-0.07 0.18,-0.06 0.17,-0.06 0.19,-0.04 0.18,-0.05 0.19,-0.03 0.19,-0.02 0.2,-0.02 0.2,-0.01 0.19,-0.01 c 1.74,0 2.9,1.14 3.69,2.74 0.85,1.79 1.49,4.84 1.49,4.93 0,0.5 -0.44,0.5 -0.6,0.5 -0.5,0 -0.54,-0.2 -0.7,-0.9 -0.69,-2.78 -1.64,-6.17 -3.73,-6.17 -1.05,0 -1.54,0.65 -1.54,2.29 0,1.1 0.6,3.44 0.99,5.17 l 1.4,5.4 c 0.15,0.75 0.65,2.64 0.85,3.39 0.25,1.14 0.75,3.03 0.75,3.32 0,0.91 -0.7,1.35 -1.45,1.35 -0.25,0 -1.55,-0.05 -1.94,-1.74 -0.96,-3.64 -3.14,-12.36 -3.74,-15 -0.06,-0.2 -2.04,-4.18 -5.68,-4.18 -2.6,0 -3.1,2.25 -3.1,4.09 0,2.78 1.41,6.72 2.71,10.16 0.59,1.5 0.84,2.18 0.84,3.14 0,2.23 -1.59,4.07 -4.09,4.07 -4.74,0 -6.58,-7.21 -6.58,-7.67 0,-0.5 0.5,-0.5 0.61,-0.5 0.5,0 0.54,0.11 0.79,0.91 1.24,4.33 3.14,6.17 5.03,6.17 0.44,0 1.25,-0.05 1.25,-1.64 0,-1.2 -0.56,-2.64 -0.85,-3.39 -1.85,-4.94 -2.9,-8.02 -2.9,-10.45 0,-4.74 3.44,-5.99 6.15,-5.99 3.28,0 5.07,2.24 5.92,3.35 z"
             id="path5066" /></g>      </g>
      <path
         sodipodi:type="arc"
         style="fill:#000000;fill-opacity:1;fill-rule:nonzero;stroke:none"
         id="path5168"
         sodipodi:cx="520.22858"
         sodipodi:cy="217.30664"
         sodipodi:rx="11.111678"
         sodipodi:ry="11.111678"
         d="m 531.34025,217.30664 c 0,6.13681 -4.97486,11.11168 -11.11167,11.11168 -6.13681,0 -11.11168,-4.97487 -11.11168,-11.11168 0,-6.13681 4.97487,-11.11168 11.11168,-11.11168 6.13681,0 11.11167,4.97487 11.11167,11.11168 z"
         transform="translate(273.20524,-839.44399)" />
      <path
         transform="translate(457.053,-348.50985)"
         d="m 531.34025,217.30664 c 0,6.13681 -4.97486,11.11168 -11.11167,11.11168 -6.13681,0 -11.11168,-4.97487 -11.11168,-11.11168 0,-6.13681 4.97487,-11.11168 11.11168,-11.11168 6.13681,0 11.11167,4.97487 11.11167,11.11168 z"
         sodipodi:ry="11.111678"
         sodipodi:rx="11.111678"
         sodipodi:cy="217.30664"
         sodipodi:cx="520.22858"
         id="path5170"
         style="fill:#000000;fill-opacity:1;fill-rule:nonzero;stroke:none"
         sodipodi:type="arc" />
      <path
         sodipodi:type="arc"
         style="fill:#000000;fill-opacity:1;fill-rule:nonzero;stroke:none"
         id="path5172"
         sodipodi:cx="520.22858"
         sodipodi:cy="217.30664"
         sodipodi:rx="11.111678"
         sodipodi:ry="11.111678"
         d="m 531.34025,217.30664 c 0,6.13681 -4.97486,11.11168 -11.11167,11.11168 -6.13681,0 -11.11168,-4.97487 -11.11168,-11.11168 0,-6.13681 4.97487,-11.11168 11.11168,-11.11168 6.13681,0 11.11167,4.97487 11.11167,11.11168 z"
         transform="translate(154.00724,-250.01998)" />
      <g
         id="g5209"
         transform="translate(250.51783,-1260.6704)">
        <g
           word-spacing="normal"
           letter-spacing="normal"
           font-size-adjust="none"
           font-stretch="normal"
           font-weight="normal"
           font-variant="normal"
           font-style="normal"
           stroke-miterlimit="10.433"
           xml:space="preserve"
           transform="matrix(1.9266821,0,0,-1.9266821,-337.16937,2041.5097)"
           id="content"
           style="font-style:normal;font-variant:normal;font-weight:normal;font-stretch:normal;letter-spacing:normal;word-spacing:normal;text-anchor:start;fill:none;stroke:#000000;stroke-linecap:butt;stroke-linejoin:miter;stroke-miterlimit:10.43299961;stroke-opacity:1;stroke-dasharray:none;stroke-dashoffset:0"><path
             id="path5212"
             d="m 478.83,424.73 0,0.12 0,0.13 -0.01,0.12 0,0.11 -0.01,0.12 -0.01,0.11 -0.01,0.11 -0.02,0.1 -0.03,0.21 -0.03,0.19 -0.05,0.18 -0.04,0.18 -0.06,0.16 -0.06,0.16 -0.06,0.15 -0.07,0.13 -0.07,0.13 -0.07,0.12 -0.08,0.12 -0.08,0.1 -0.08,0.1 -0.09,0.09 -0.08,0.08 -0.09,0.07 -0.09,0.07 -0.09,0.06 -0.1,0.05 -0.09,0.05 -0.09,0.04 -0.09,0.03 -0.09,0.03 -0.1,0.03 -0.09,0.01 -0.08,0.02 -0.09,0 -0.09,0 c -1.25,0 -2.43,-1.29 -2.43,-2.39 0,-0.64 0.25,-0.93 0.79,-1.48 1.05,-1 1.69,-2.3 1.69,-4.09 0,-2.1 -3.03,-13.5 -8.86,-13.5 -2.54,0 -3.69,1.75 -3.69,4.32 0,2.8 1.35,6.44 2.9,10.57 0.34,0.86 0.59,1.54 0.59,2.5 0,2.23 -1.59,4.07 -4.09,4.07 -4.68,0 -6.58,-7.21 -6.58,-7.67 0,-0.5 0.5,-0.5 0.61,-0.5 0.5,0 0.54,0.11 0.79,0.91 1.44,5.03 3.58,6.17 5.03,6.17 0.4,0 1.25,0 1.25,-1.59 0,-1.25 -0.5,-2.6 -0.85,-3.49 -2.19,-5.78 -2.83,-8.08 -2.83,-10.22 0,-5.37 4.37,-6.17 6.67,-6.17 8.37,0 11.2,16.49 11.2,19.08 z"
             inkscape:connector-curvature="0"
             style="fill:#000000;stroke-width:0" /></g>      </g>
      <path
         sodipodi:type="arc"
         style="fill:#000000;fill-opacity:1;fill-rule:nonzero;stroke:none"
         id="path5642"
         sodipodi:cx="520.22858"
         sodipodi:cy="217.30664"
         sodipodi:rx="11.111678"
         sodipodi:ry="11.111678"
         d="m 531.34025,217.30664 c 0,6.13681 -4.97486,11.11168 -11.11167,11.11168 -6.13681,0 -11.11168,-4.97487 -11.11168,-11.11168 0,-6.13681 4.97487,-11.11168 11.11168,-11.11168 6.13681,0 11.11167,4.97487 11.11167,11.11168 z"
         transform="translate(497.4591,-629.33226)" />
      <path
         transform="translate(-122.77456,-413.15962)"
         d="m 531.34025,217.30664 c 0,6.13681 -4.97486,11.11168 -11.11167,11.11168 -6.13681,0 -11.11168,-4.97487 -11.11168,-11.11168 0,-6.13681 4.97487,-11.11168 11.11168,-11.11168 6.13681,0 11.11167,4.97487 11.11167,11.11168 z"
         sodipodi:ry="11.111678"
         sodipodi:rx="11.111678"
         sodipodi:cy="217.30664"
         sodipodi:cx="520.22858"
         id="path5644"
         style="fill:#000000;fill-opacity:1;fill-rule:nonzero;stroke:none"
         sodipodi:type="arc" />
      <path
         style="fill:none;stroke:#ff0000;stroke-width:10;stroke-linecap:butt;stroke-linejoin:miter;stroke-miterlimit:4;stroke-opacity:1;stroke-dasharray:none"
         d="M 398.86339,-489.70197 618.1491,-562.55911"
         id="path5723"
         inkscape:connector-curvature="0"
         sodipodi:nodetypes="cc" />
      <path
         transform="translate(-122.77456,-705.51212)"
         d="m 531.34025,217.30664 c 0,6.13681 -4.97486,11.11168 -11.11167,11.11168 -6.13681,0 -11.11168,-4.97487 -11.11168,-11.11168 0,-6.13681 4.97487,-11.11168 11.11168,-11.11168 6.13681,0 11.11167,4.97487 11.11167,11.11168 z"
         sodipodi:ry="11.111678"
         sodipodi:rx="11.111678"
         sodipodi:cy="217.30664"
         sodipodi:cx="520.22858"
         id="path3971"
         style="fill:#000000;fill-opacity:1;fill-rule:nonzero;stroke:none"
         sodipodi:type="arc" />
      <path
         transform="translate(96.39277,-780.11474)"
         d="m 531.34025,217.30664 c 0,6.13681 -4.97486,11.11168 -11.11167,11.11168 -6.13681,0 -11.11168,-4.97487 -11.11168,-11.11168 0,-6.13681 4.97487,-11.11168 11.11168,-11.11168 6.13681,0 11.11167,4.97487 11.11167,11.11168 z"
         sodipodi:ry="11.111678"
         sodipodi:rx="11.111678"
         sodipodi:cy="217.30664"
         sodipodi:cx="520.22858"
         id="path4751"
         style="fill:#000000;fill-opacity:1;fill-rule:nonzero;stroke:none"
         sodipodi:type="arc" />
      <g
         id="g5818"
         transform="translate(-37.559167,-1723.629)"
         style="fill:#ff0000;fill-opacity:1">
        <g
           id="g5820"
           transform="matrix(1.9266821,0,0,-1.9266821,-337.16937,2041.5097)"
           xml:space="preserve"
           stroke-miterlimit="10.433"
           font-style="normal"
           font-variant="normal"
           font-weight="normal"
           font-stretch="normal"
           font-size-adjust="none"
           letter-spacing="normal"
           word-spacing="normal"
           style="font-style:normal;font-variant:normal;font-weight:normal;font-stretch:normal;letter-spacing:normal;word-spacing:normal;text-anchor:start;fill:#ff0000;fill-opacity:1;stroke:#000000;stroke-linecap:butt;stroke-linejoin:miter;stroke-miterlimit:10.43299961;stroke-opacity:1;stroke-dasharray:none;stroke-dashoffset:0"><path
             d="m 474.1,425.03 -0.09,0.17 -0.09,0.17 -0.09,0.16 -0.09,0.16 -0.1,0.16 -0.1,0.16 -0.11,0.15 -0.11,0.14 -0.11,0.15 -0.12,0.13 -0.12,0.14 -0.12,0.13 -0.13,0.12 -0.13,0.12 -0.14,0.11 -0.14,0.11 -0.14,0.11 -0.15,0.09 -0.15,0.1 -0.15,0.08 -0.16,0.08 -0.17,0.08 -0.17,0.06 -0.17,0.07 -0.17,0.05 -0.18,0.05 -0.19,0.04 -0.19,0.03 -0.19,0.03 -0.2,0.02 -0.2,0.01 -0.21,0 0.05,-1.09 c 3.23,0 3.93,-4.08 3.93,-4.37 0,-0.32 -0.09,-0.61 -0.14,-0.86 l -2.5,-9.77 c -0.25,-0.89 -0.25,-0.98 -1,-1.84 -2.18,-2.74 -4.23,-3.53 -5.62,-3.53 -2.49,0 -3.19,2.73 -3.19,4.68 0,2.49 1.59,8.61 2.74,10.91 1.54,2.94 3.79,4.78 5.78,4.78 l -0.05,1.09 c -5.83,0 -12,-7.31 -12,-14.59 0,-4.69 2.73,-7.97 6.62,-7.97 0.99,0 3.49,0.21 6.47,3.74 0.41,-2.1 2.14,-3.74 4.53,-3.74 1.75,0 2.9,1.14 3.69,2.74 0.85,1.79 1.5,4.84 1.5,4.93 0,0.5 -0.45,0.5 -0.59,0.5 -0.5,0 -0.55,-0.2 -0.7,-0.9 -0.85,-3.24 -1.75,-6.17 -3.79,-6.17 -1.34,0 -1.5,1.29 -1.5,2.29 0,1.1 0.1,1.49 0.64,3.69 0.57,2.09 0.66,2.59 1.11,4.48 l 1.79,6.97 c 0.35,1.39 0.35,1.5 0.35,1.69 0,0.86 -0.6,1.36 -1.45,1.36 -1.19,0 -1.94,-1.11 -2.09,-2.2 z"
             id="path5822"
             inkscape:connector-curvature="0"
             style="fill:#ff0000;fill-opacity:1;stroke-width:0" /></g>      </g>
      <g
         id="g6014"
         transform="translate(162.44083,-1772.2005)"
         style="fill:#ff00ff;fill-opacity:1">
        <g
           word-spacing="normal"
           letter-spacing="normal"
           font-size-adjust="none"
           font-stretch="normal"
           font-weight="normal"
           font-variant="normal"
           font-style="normal"
           stroke-miterlimit="10.433"
           xml:space="preserve"
           transform="matrix(1.9266821,0,0,-1.9266821,-337.16937,2041.5097)"
           id="g6016"
           style="font-style:normal;font-variant:normal;font-weight:normal;font-stretch:normal;letter-spacing:normal;word-spacing:normal;text-anchor:start;fill:#ff00ff;fill-opacity:1;stroke:#000000;stroke-linecap:butt;stroke-linejoin:miter;stroke-miterlimit:10.43299961;stroke-opacity:1;stroke-dasharray:none;stroke-dashoffset:0"><path
             id="path6018"
             d="m 467.43,440.23 0,0 0,0.01 0,0 0,0.01 -0.01,0.02 0,0.01 0,0.02 0,0.02 0,0.02 -0.01,0.02 0,0.02 -0.01,0.02 -0.01,0.02 -0.01,0.03 -0.01,0.02 -0.01,0.03 -0.01,0.02 -0.02,0.03 -0.02,0.02 -0.02,0.02 -0.02,0.03 -0.01,0.01 -0.02,0.01 -0.01,0.01 -0.01,0.01 -0.02,0.01 -0.01,0.01 -0.02,0.01 -0.01,0.01 -0.02,0.01 -0.02,0.01 -0.02,0 -0.02,0.01 -0.02,0.01 -0.02,0 -0.02,0.01 -0.02,0.01 -0.03,0 -0.02,0 -0.03,0.01 -0.02,0 -0.03,0 -0.03,0.01 -0.03,0 -0.02,0 c -1.16,0 -4.79,-0.41 -6.08,-0.5 -0.41,-0.05 -0.96,-0.1 -0.96,-1 0,-0.6 0.46,-0.6 1.21,-0.6 2.39,0 2.48,-0.34 2.48,-0.84 0,-0.36 -0.45,-2.05 -0.7,-3.09 l -4.08,-16.24 c -0.59,-2.5 -0.8,-3.3 -0.8,-5.03 0,-4.73 2.64,-7.83 6.33,-7.83 v 1.1 c -1.7,0 -3.34,1.34 -3.34,5.03 0,0.95 0,1.89 0.79,5.03 l 1.1,4.59 c 0.3,1.1 0.3,1.19 0.75,1.74 2.44,3.23 4.69,3.98 5.98,3.98 1.8,0 3.14,-1.48 3.14,-4.69 0,-2.93 -1.65,-8.65 -2.54,-10.56 -1.64,-3.33 -3.94,-5.12 -5.88,-5.12 v -1.1 c 5.88,0 12,7.42 12,14.6 0,4.53 -2.64,7.96 -6.62,7.96 -2.28,0 -4.33,-1.43 -5.83,-2.98 z"
             inkscape:connector-curvature="0"
             style="fill:#ff00ff;fill-opacity:1;stroke-width:0" /></g>      </g>
      <g
         id="g6216"
         transform="translate(153.8694,-1327.9148)"
         style="fill:#ff8b00;fill-opacity:1">
        <g
           id="g6218"
           transform="matrix(1.9266821,0,0,-1.9266821,-337.16937,2041.5097)"
           xml:space="preserve"
           stroke-miterlimit="10.433"
           font-style="normal"
           font-variant="normal"
           font-weight="normal"
           font-stretch="normal"
           font-size-adjust="none"
           letter-spacing="normal"
           word-spacing="normal"
           style="font-style:normal;font-variant:normal;font-weight:normal;font-stretch:normal;letter-spacing:normal;word-spacing:normal;text-anchor:start;fill:#ff8b00;fill-opacity:1;stroke:#000000;stroke-linecap:butt;stroke-linejoin:miter;stroke-miterlimit:10.43299961;stroke-opacity:1;stroke-dasharray:none;stroke-dashoffset:0"><path
             d="m 475.25,425.14 -0.14,0 -0.15,0 -0.15,-0.01 -0.14,0 -0.14,-0.01 -0.14,-0.02 -0.07,-0.01 -0.07,-0.01 -0.06,-0.02 -0.07,-0.01 -0.07,-0.02 -0.07,-0.02 -0.07,-0.02 -0.06,-0.02 -0.07,-0.03 -0.07,-0.03 -0.06,-0.03 -0.07,-0.04 -0.07,-0.04 -0.06,-0.04 -0.07,-0.05 -0.07,-0.04 -0.06,-0.06 -0.07,-0.05 -0.06,-0.06 -0.07,-0.07 c -0.8,-0.75 -0.89,-1.59 -0.89,-1.93 0,-1.21 0.89,-1.75 1.84,-1.75 1.44,0 2.8,1.2 2.8,3.18 0,2.44 -2.34,4.28 -5.89,4.28 -6.72,0 -13.34,-7.12 -13.34,-14.14 0,-4.48 2.89,-8.42 8.06,-8.42 7.12,0 11.31,5.28 11.31,5.88 0,0.29 -0.3,0.65 -0.59,0.65 -0.25,0 -0.35,-0.11 -0.66,-0.5 -3.94,-4.93 -9.36,-4.93 -9.95,-4.93 -3.14,0 -4.49,2.43 -4.49,5.43 0,2.03 0.99,6.88 2.69,9.96 1.55,2.84 4.28,4.98 7.02,4.98 1.7,0 3.59,-0.64 4.29,-1.98 z"
             id="path6220"
             inkscape:connector-curvature="0"
             style="fill:#ff8b00;fill-opacity:1;stroke-width:0" /></g>      </g>
      <g
         id="g6424"
         transform="translate(316.03329,-1383.0373)"
         style="fill:#0000ff;fill-opacity:1">
        <g
           word-spacing="normal"
           letter-spacing="normal"
           font-size-adjust="none"
           font-stretch="normal"
           font-weight="normal"
           font-variant="normal"
           font-style="normal"
           stroke-miterlimit="10.433"
           xml:space="preserve"
           transform="matrix(1.9266821,0,0,-1.9266821,-337.16937,2041.5097)"
           id="g6426"
           style="font-style:normal;font-variant:normal;font-weight:normal;font-stretch:normal;letter-spacing:normal;word-spacing:normal;text-anchor:start;fill:#0000ff;fill-opacity:1;stroke:#000000;stroke-linecap:butt;stroke-linejoin:miter;stroke-miterlimit:10.43299961;stroke-opacity:1;stroke-dasharray:none;stroke-dashoffset:0"><path
             id="path6428"
             d="m 481.22,440.23 0,0 0,0.01 0,0 0,0.01 0,0.02 0,0.01 0,0.02 0,0.02 -0.01,0.02 0,0.02 -0.01,0.02 0,0.02 -0.01,0.02 -0.01,0.03 -0.01,0.02 -0.01,0.03 -0.02,0.02 -0.01,0.03 -0.02,0.02 -0.02,0.02 -0.02,0.03 -0.02,0.01 -0.01,0.01 -0.01,0.01 -0.02,0.01 -0.01,0.01 -0.02,0.01 -0.01,0.01 -0.02,0.01 -0.01,0.01 -0.02,0.01 -0.02,0 -0.02,0.01 -0.02,0.01 -0.02,0 -0.02,0.01 -0.03,0.01 -0.02,0 -0.02,0 -0.03,0.01 -0.03,0 -0.02,0 -0.03,0.01 -0.03,0 -0.03,0 c -0.75,0 -5.48,-0.46 -6.33,-0.55 -0.4,-0.05 -0.7,-0.3 -0.7,-0.95 0,-0.6 0.45,-0.6 1.2,-0.6 2.39,0 2.49,-0.34 2.49,-0.84 l -0.14,-1 -3,-11.81 c -0.89,1.84 -2.35,3.18 -4.58,3.18 l 0.05,-1.09 c 3.23,0 3.93,-4.08 3.93,-4.37 0,-0.32 -0.09,-0.61 -0.14,-0.86 l -2.5,-9.77 c -0.25,-0.89 -0.25,-0.98 -1,-1.84 -2.18,-2.74 -4.23,-3.53 -5.62,-3.53 -2.49,0 -3.19,2.73 -3.19,4.68 0,2.49 1.59,8.61 2.74,10.91 1.54,2.94 3.79,4.78 5.78,4.78 l -0.05,1.09 c -5.83,0 -12,-7.31 -12,-14.59 0,-4.69 2.73,-7.97 6.62,-7.97 0.99,0 3.49,0.21 6.47,3.74 0.41,-2.1 2.14,-3.74 4.53,-3.74 1.75,0 2.9,1.14 3.69,2.74 0.85,1.79 1.5,4.84 1.5,4.93 0,0.5 -0.45,0.5 -0.59,0.5 -0.5,0 -0.55,-0.2 -0.7,-0.9 -0.85,-3.24 -1.75,-6.17 -3.79,-6.17 -1.34,0 -1.5,1.29 -1.5,2.29 0,1.19 0.1,1.55 0.3,2.39 z"
             inkscape:connector-curvature="0"
             style="fill:#0000ff;fill-opacity:1;stroke-width:0" /></g>      </g>
    </g>
    <g
       id="g7840">
      <path
         sodipodi:nodetypes="cac"
         inkscape:connector-curvature="0"
         id="path6622"
         d="m -1132.4854,-348.01135 c 0,0 -0.2482,-11.79523 1.7294,-17.21157 2.066,-5.65827 10.204,-14.91437 10.204,-14.91437"
         style="fill:none;stroke:#000000;stroke-width:2;stroke-linecap:butt;stroke-linejoin:miter;stroke-miterlimit:4;stroke-opacity:1;stroke-dasharray:none" />
      <path
         style="fill:none;stroke:#000000;stroke-width:2;stroke-linecap:butt;stroke-linejoin:miter;stroke-miterlimit:4;stroke-opacity:1;stroke-dasharray:none"
         d="m -1128.9937,-313.45198 c 0,0 -5.2834,-10.75762 -5.5552,-16.57986 -0.257,-5.50537 3.7694,-16.0987 3.7694,-16.0987"
         id="path6620"
         inkscape:connector-curvature="0"
         sodipodi:nodetypes="cac" />
      <path
         inkscape:transform-center-y="-0.6966536"
         inkscape:transform-center-x="3.5435343"
         sodipodi:nodetypes="cc"
         inkscape:connector-curvature="0"
         id="path6541"
         d="m -654.34876,-313.91557 -607.76834,-0.0805"
         style="fill:none;stroke:#00ff00;stroke-width:5.14297009;stroke-linecap:butt;stroke-linejoin:miter;stroke-miterlimit:4;stroke-opacity:1;stroke-dasharray:none" />
      <path
         style="fill:none;stroke:#00ff00;stroke-width:5.14300013;stroke-linecap:butt;stroke-linejoin:miter;stroke-miterlimit:4;stroke-opacity:1;stroke-dasharray:15.42900038, 5.14300013;stroke-dashoffset:0"
         d="M -661.58576,-261.4164 -1262.1824,-370.56136"
         id="path6616"
         inkscape:connector-curvature="0"
         sodipodi:nodetypes="cc"
         inkscape:transform-center-x="8.457357"
         inkscape:transform-center-y="-1.527985" />
      <path
         inkscape:transform-center-y="-3.142"
         inkscape:transform-center-x="7.999362"
         sodipodi:nodetypes="cc"
         inkscape:connector-curvature="0"
         id="path6618"
         d="m -670.2592,-201.92202 -591.4251,-234.89729"
         style="fill:none;stroke:#00ff00;stroke-width:5.14297009;stroke-linecap:butt;stroke-linejoin:miter;stroke-miterlimit:4;stroke-opacity:1;stroke-dasharray:15.42891026, 5.14297009;stroke-dashoffset:0" />
      <path
         sodipodi:nodetypes="ccccccc"
         inkscape:connector-curvature="0"
         id="path6543"
         d="m -680.3622,-131.24741 -308.24762,100.440247 -275.34478,-166.245917 1.7317,-292.66206 398.29752,-133.34305 222.23688,213.43403 z"
         style="fill:none;stroke:#000000;stroke-width:8.57161713;stroke-linecap:round;stroke-linejoin:round;stroke-miterlimit:4;stroke-opacity:1;stroke-dasharray:none" />
      <path
         transform="translate(-1782.7746,-704.08355)"
         d="m 531.34025,217.30664 c 0,6.13681 -4.97486,11.11168 -11.11167,11.11168 -6.13681,0 -11.11168,-4.97487 -11.11168,-11.11168 0,-6.13681 4.97487,-11.11168 11.11168,-11.11168 6.13681,0 11.11167,4.97487 11.11167,11.11168 z"
         sodipodi:ry="11.111678"
         sodipodi:rx="11.111678"
         sodipodi:cy="217.30664"
         sodipodi:cx="520.22858"
         id="path6553"
         style="fill:#000000;fill-opacity:1;fill-rule:nonzero;stroke:none"
         sodipodi:type="arc" />
      <path
         transform="translate(-1563.6072,-780.11474)"
         d="m 531.34025,217.30664 c 0,6.13681 -4.97486,11.11168 -11.11167,11.11168 -6.13681,0 -11.11168,-4.97487 -11.11168,-11.11168 0,-6.13681 4.97487,-11.11168 11.11168,-11.11168 6.13681,0 11.11167,4.97487 11.11167,11.11168 z"
         sodipodi:ry="11.111678"
         sodipodi:rx="11.111678"
         sodipodi:cy="217.30664"
         sodipodi:cx="520.22858"
         id="path6555"
         style="fill:#000000;fill-opacity:1;fill-rule:nonzero;stroke:none"
         sodipodi:type="arc" />
      <path
         sodipodi:type="arc"
         style="fill:#000000;fill-opacity:1;fill-rule:nonzero;stroke:none"
         id="path6557"
         sodipodi:cx="520.22858"
         sodipodi:cy="217.30664"
         sodipodi:rx="11.111678"
         sodipodi:ry="11.111678"
         d="m 531.34025,217.30664 c 0,6.13681 -4.97486,11.11168 -11.11167,11.11168 -6.13681,0 -11.11168,-4.97487 -11.11168,-11.11168 0,-6.13681 4.97487,-11.11168 11.11168,-11.11168 6.13681,0 11.11167,4.97487 11.11167,11.11168 z"
         transform="translate(-1380.7501,-288.68617)" />
      <path
         sodipodi:type="arc"
         style="fill:#000000;fill-opacity:1;fill-rule:nonzero;stroke:none"
         id="path6565"
         sodipodi:cx="520.22858"
         sodipodi:cy="217.30664"
         sodipodi:rx="11.111678"
         sodipodi:ry="11.111678"
         d="m 531.34025,217.30664 c 0,6.13681 -4.97486,11.11168 -11.11167,11.11168 -6.13681,0 -11.11168,-4.97487 -11.11168,-11.11168 0,-6.13681 4.97487,-11.11168 11.11168,-11.11168 6.13681,0 11.11167,4.97487 11.11167,11.11168 z"
         transform="translate(-1386.7948,-839.44399)" />
      <path
         transform="translate(-1202.947,-348.50985)"
         d="m 531.34025,217.30664 c 0,6.13681 -4.97486,11.11168 -11.11167,11.11168 -6.13681,0 -11.11168,-4.97487 -11.11168,-11.11168 0,-6.13681 4.97487,-11.11168 11.11168,-11.11168 6.13681,0 11.11167,4.97487 11.11167,11.11168 z"
         sodipodi:ry="11.111678"
         sodipodi:rx="11.111678"
         sodipodi:cy="217.30664"
         sodipodi:cx="520.22858"
         id="path6567"
         style="fill:#000000;fill-opacity:1;fill-rule:nonzero;stroke:none"
         sodipodi:type="arc" />
      <path
         sodipodi:type="arc"
         style="fill:#000000;fill-opacity:1;fill-rule:nonzero;stroke:none"
         id="path6569"
         sodipodi:cx="520.22858"
         sodipodi:cy="217.30664"
         sodipodi:rx="11.111678"
         sodipodi:ry="11.111678"
         d="m 531.34025,217.30664 c 0,6.13681 -4.97486,11.11168 -11.11167,11.11168 -6.13681,0 -11.11168,-4.97487 -11.11168,-11.11168 0,-6.13681 4.97487,-11.11168 11.11168,-11.11168 6.13681,0 11.11167,4.97487 11.11167,11.11168 z"
         transform="translate(-1505.9928,-251.53521)" />
      <path
         sodipodi:type="arc"
         style="fill:#000000;fill-opacity:1;fill-rule:nonzero;stroke:none"
         id="path6609"
         sodipodi:cx="520.22858"
         sodipodi:cy="217.30664"
         sodipodi:rx="11.111678"
         sodipodi:ry="11.111678"
         d="m 531.34025,217.30664 c 0,6.13681 -4.97486,11.11168 -11.11167,11.11168 -6.13681,0 -11.11168,-4.97487 -11.11168,-11.11168 0,-6.13681 4.97487,-11.11168 11.11168,-11.11168 6.13681,0 11.11167,4.97487 11.11167,11.11168 z"
         transform="translate(-1162.5409,-629.33226)" />
      <path
         transform="translate(-1782.7746,-413.15962)"
         d="m 531.34025,217.30664 c 0,6.13681 -4.97486,11.11168 -11.11167,11.11168 -6.13681,0 -11.11168,-4.97487 -11.11168,-11.11168 0,-6.13681 4.97487,-11.11168 11.11168,-11.11168 6.13681,0 11.11167,4.97487 11.11167,11.11168 z"
         sodipodi:ry="11.111678"
         sodipodi:rx="11.111678"
         sodipodi:cy="217.30664"
         sodipodi:cx="520.22858"
         id="path6611"
         style="fill:#000000;fill-opacity:1;fill-rule:nonzero;stroke:none"
         sodipodi:type="arc" />
      <path
         transform="matrix(1.7143234,0,0,1.7143234,-1356.927,-709.34261)"
         d="m 242.43661,231.10817 c 0,2.78946 -2.2613,5.05076 -5.05076,5.05076 -2.78946,0 -5.05076,-2.2613 -5.05076,-5.05076 0,-2.78946 2.2613,-5.05076 5.05076,-5.05076 2.78946,0 5.05076,2.2613 5.05076,5.05076 z"
         sodipodi:ry="5.0507627"
         sodipodi:rx="5.0507627"
         sodipodi:cy="231.10817"
         sodipodi:cx="237.38585"
         id="path6545"
         style="fill:#ff0000;fill-opacity:1;fill-rule:nonzero;stroke:none"
         sodipodi:type="arc" />
      <g
         transform="matrix(0.53905245,0,0,0.53905245,-1465.1784,-1000.2004)"
         id="g6725">
        <g
           style="font-style:normal;font-variant:normal;font-weight:normal;font-stretch:normal;letter-spacing:normal;word-spacing:normal;text-anchor:start;fill:none;stroke:#000000;stroke-linecap:butt;stroke-linejoin:miter;stroke-miterlimit:10.43299961;stroke-opacity:1;stroke-dasharray:none;stroke-dashoffset:0"
           id="g6727"
           transform="matrix(1.9266821,0,0,-1.9266821,-337.16937,2041.5097)"
           xml:space="preserve"
           stroke-miterlimit="10.433"
           font-style="normal"
           font-variant="normal"
           font-weight="normal"
           font-stretch="normal"
           font-size-adjust="none"
           letter-spacing="normal"
           word-spacing="normal"><path
             style="fill:#000000;stroke-width:0"
             inkscape:connector-curvature="0"
             d="m 479.29,417.96 -0.01,0.37 -0.01,0.35 -0.02,0.35 -0.02,0.34 -0.06,0.65 -0.09,0.63 -0.11,0.59 -0.14,0.57 -0.15,0.54 -0.18,0.51 -0.19,0.49 -0.21,0.45 -0.23,0.44 -0.25,0.4 -0.26,0.38 -0.27,0.36 -0.29,0.33 -0.3,0.31 -0.31,0.29 -0.31,0.26 -0.33,0.24 -0.34,0.22 -0.34,0.2 -0.35,0.18 -0.35,0.16 -0.36,0.14 -0.35,0.12 -0.36,0.11 -0.37,0.09 -0.36,0.06 -0.36,0.06 -0.35,0.04 -0.35,0.02 -0.35,0 -0.05,-1.09 c 4.94,0 4.94,-6.53 4.94,-10.41 0,-1.84 0,-4.73 0.09,-5.57 h 0 c -4.37,-3.85 -8.22,-4.39 -10.2,-4.39 -3,0 -4.49,2.25 -4.49,5.43 0,2.44 1.3,7.82 2.89,10.36 2.33,3.64 5.04,4.58 6.77,4.58 l 0.05,1.09 c -6.82,0 -13.39,-7.12 -13.39,-14.14 0,-4.64 2.98,-8.42 8.06,-8.42 3.14,0 6.73,1.14 10.51,4.19 0.66,-2.64 2.3,-4.19 4.54,-4.19 2.64,0 4.18,2.74 4.18,3.53 0,0.36 -0.29,0.5 -0.59,0.5 -0.36,0 -0.5,-0.14 -0.66,-0.5 -0.89,-2.43 -2.68,-2.43 -2.78,-2.43 -1.54,0 -1.54,3.89 -1.54,5.07 0,1.05 0,1.16 0.5,1.75 4.68,5.88 5.73,11.66 5.73,11.71 0,0.11 -0.06,0.5 -0.61,0.5 -0.5,0 -0.5,-0.14 -0.75,-1.05 -0.89,-3.14 -2.53,-6.92 -4.87,-9.86 z"
             id="path6729" /></g>      </g>
      <path
         sodipodi:nodetypes="cac"
         inkscape:connector-curvature="0"
         id="path7285"
         d="m -996.30399,-347.88093 c 11.11168,-25.50869 26.63269,-42.5108 47.98225,-42.42641 21.16103,0.0836 33.08249,19.19056 47.22462,42.42641"
         style="fill:none;stroke:#000000;stroke-width:5;stroke-linecap:round;stroke-linejoin:round;stroke-miterlimit:4;stroke-opacity:1;stroke-dashoffset:0;marker-end:url(#Arrow2Mend)" />
      <g
         id="g7834"
         transform="matrix(0.53905245,0,0,0.53905245,-1460.1784,-1038.5932)">
        <g
           word-spacing="normal"
           letter-spacing="normal"
           font-size-adjust="none"
           font-stretch="normal"
           font-weight="normal"
           font-variant="normal"
           font-style="normal"
           stroke-miterlimit="10.433"
           xml:space="preserve"
           transform="matrix(1.9266821,0,0,-1.9266821,-337.16937,2041.5097)"
           id="g7836"
           style="font-style:normal;font-variant:normal;font-weight:normal;font-stretch:normal;letter-spacing:normal;word-spacing:normal;text-anchor:start;fill:none;stroke:#000000;stroke-linecap:butt;stroke-linejoin:miter;stroke-miterlimit:10.43299961;stroke-opacity:1;stroke-dasharray:none;stroke-dashoffset:0"><path
             id="path7838"
             d="m 479.29,417.96 -0.01,0.37 -0.01,0.35 -0.02,0.35 -0.02,0.34 -0.06,0.65 -0.09,0.63 -0.11,0.59 -0.14,0.57 -0.15,0.54 -0.18,0.51 -0.19,0.49 -0.21,0.45 -0.23,0.44 -0.25,0.4 -0.26,0.38 -0.27,0.36 -0.29,0.33 -0.3,0.31 -0.31,0.29 -0.31,0.26 -0.33,0.24 -0.34,0.22 -0.34,0.2 -0.35,0.18 -0.35,0.16 -0.36,0.14 -0.35,0.12 -0.36,0.11 -0.37,0.09 -0.36,0.06 -0.36,0.06 -0.35,0.04 -0.35,0.02 -0.35,0 -0.05,-1.09 c 4.94,0 4.94,-6.53 4.94,-10.41 0,-1.84 0,-4.73 0.09,-5.57 h 0 c -4.37,-3.85 -8.22,-4.39 -10.2,-4.39 -3,0 -4.49,2.25 -4.49,5.43 0,2.44 1.3,7.82 2.89,10.36 2.33,3.64 5.04,4.58 6.77,4.58 l 0.05,1.09 c -6.82,0 -13.39,-7.12 -13.39,-14.14 0,-4.64 2.98,-8.42 8.06,-8.42 3.14,0 6.73,1.14 10.51,4.19 0.66,-2.64 2.3,-4.19 4.54,-4.19 2.64,0 4.18,2.74 4.18,3.53 0,0.36 -0.29,0.5 -0.59,0.5 -0.36,0 -0.5,-0.14 -0.66,-0.5 -0.89,-2.43 -2.68,-2.43 -2.78,-2.43 -1.54,0 -1.54,3.89 -1.54,5.07 0,1.05 0,1.16 0.5,1.75 4.68,5.88 5.73,11.66 5.73,11.71 0,0.11 -0.06,0.5 -0.61,0.5 -0.5,0 -0.5,-0.14 -0.75,-1.05 -0.89,-3.14 -2.53,-6.92 -4.87,-9.86 z"
             inkscape:connector-curvature="0"
             style="fill:#000000;stroke-width:0" /></g>      </g>
    </g>
  </g>
</svg>
